{
.appVersion = "1192";
DisplayStrings = (
"Advent Pro\012ABCDEFGHIJKLMNOPQRSTUVWXYZ\012abcdefghijklmnopqrstuvwxyz"
);
copyright = "Copyright (c) 2019 The Advent Pro Project Authors (https://github.com/mjlagattuta/Advent), with Reserved Font Name \"Advent Pro\"";
customParameters = (
{
name = fsType;
value = (
);
},
{
name = Axes;
value = (
{
Name = Weight;
Tag = wght;
},
{
Name = Italic;
Tag = ital;
}
);
},
{
name = "Enforce Compatibility Check";
value = 1;
},
{
name = "Variable Font Origin";
value = master01;
},
{
name = license;
value = "This Font Software is licensed under the SIL Open Font License, Version 1.1. This license is available with a FAQ at: http://scripts.sil.org/OFL";
},
{
name = licenseURL;
value = "http://scripts.sil.org/OFL";
},
{
name = "Disable Last Change";
value = 1;
}
);
date = "2019-02-10 06:51:56 +0000";
designer = "Andreas Kalpakidis";
designerURL = "https://www.vivarado.com/";
disablesNiceNames = 1;
familyName = "Advent Pro";
featurePrefixes = (
{
automatic = 1;
code = "languagesystem DFLT dflt;\012languagesystem latn dflt;\012languagesystem latn ROM;\012languagesystem latn MOL;\012";
name = Languagesystems;
}
);
features = (
{
automatic = 1;
code = "feature locl;\012feature ordn;\012";
name = aalt;
},
{
automatic = 1;
code = "script latn;\012language ROM;\012sub Scedilla by Scommaaccent;\012sub scedilla by scommaaccent;\012language MOL;\012sub Scedilla by Scommaaccent;\012sub scedilla by scommaaccent;\012";
name = locl;
},
{
automatic = 1;
code = "sub [zero one two three four five six seven eight nine] [A a]' by ordfeminine;\012";
name = ordn;
},
{
automatic = 1;
code = "sub w w w by w_w_w;\012sub t t by t_t;\012";
name = dlig;
},
{
automatic = 1;
code = "sub f i by fi;\012sub f l by fl;\012";
name = liga;
notes = "	sub f l by fl;\012	sub f i by fi;\012	sub f f l by ffl;\012	sub f t by ft;\012	#\012	sub t t by t_t;\012	sub w w w by w_w_w;";
}
);
fontMaster = (
{
alignmentZones = (
"{1924, 32}",
"{1400, 30}",
"{1000, 22}",
"{0, -40}",

glyphs = (
{
glyphname = A;
layers = (
{
layerId = master01;
paths = (
{
closed = 1;
nodes = (
"932 0 LINE",
"772 488 LINE",
"318 488 LINE",
"162 0 LINE",
"42 0 LINE",
"490 1396 LINE",
"596 1396 LINE",
"1050 0 LINE"
);
},
{
closed = 1;
nodes = (
"742 598 LINE",
"542 1224 LINE",
"348 598 LINE"
);
}
);
width = 1090;
},
{
layerId = "9D15C82E-7F80-48F0-B3D1-43822CDE4CEB";
paths = (
{
closed = 1;
nodes = (
"1006 0 LINE",
"810 560 LINE",
"276 560 LINE",
"80 0 LINE",
"40 0 LINE",
"530 1396 LINE",
"558 1396 LINE",
"1048 0 LINE"
);
},
{
closed = 1;
nodes = (
"798 598 LINE",
"544 1316 LINE",
"292 598 LINE"
);
}
);
width = 1084;
},
{
layerId = "0D2E68F6-AD65-4FDC-99B3-7B414CE95F5B";
paths = (
{
closed = 1;
nodes = (
"778 0 LINE",
"698 366 LINE",
"376 366 LINE",
"296 0 LINE",
"48 0 LINE",
"386 1396 LINE",
"696 1396 LINE",
"1040 0 LINE"
);
},
{
closed = 1;
nodes = (
"648 600 LINE",
"538 1110 LINE",
"430 600 LINE"
);
}
);
width = 1086;
},
{
layerId = "BAA7A442-529C-4232-9150-0627B90683AA";
paths = (
{
closed = 1;
nodes = (
"932 0 LINE",
"876 488 LINE",
"422 488 LINE",
"162 0 LINE",
"42 0 LINE",
"787 1396 LINE",
"893 1396 LINE",
"1050 0 LINE"
);
},
{
closed = 1;
nodes = (
"869 598 LINE",
"802 1224 LINE",
"475 598 LINE"
);
}
);
width = 1090;
},
{
layerId = "EC4DDAD4-4840-4BAF-BE24-E50FF90D752F";
paths = (
{
closed = 1;
nodes = (
"778 0 LINE",
"776 366 LINE",
"454 366 LINE",
"296 0 LINE",
"48 0 LINE",
"683 1396 LINE",
"993 1396 LINE",
"1040 0 LINE"
);
},
{
closed = 1;
nodes = (
"776 600 LINE",
"774 1110 LINE",
"558 600 LINE"
);
}
);
width = 1086;
},
{
layerId = "350CE105-9128-4F96-9C2D-77D2DB4D6663";
paths = (
{
closed = 1;
nodes = (
"1006 0 LINE",
"929 560 LINE",
"399 560 LINE",
"84 0 LINE",
"40 0 LINE",
"827 1396 LINE",
"855 1396 LINE",
"1048 0 LINE"
);
},
{
closed = 1;
nodes = (
"924 598 LINE",
"826 1312 LINE",
"423 598 LINE"
);
}
);
width = 1084;
}
);
leftKerningGroup = A;
rightKerningGroup = A;
unicode = 0041;
},
{
glyphname = AE;
layers = (
{
layerId = master01;
paths = (
{
closed = 1;
nodes = (
"766 486 LINE",
"346 486 LINE",
"158 0 LINE",
"40 0 LINE",
"582 1396 LINE",
"1438 1396 LINE",
"1438 1290 LINE",
"880 1290 LINE",
"880 826 LINE",
"1262 826 LINE",
"1224 710 LINE",
"880 710 LINE",
"880 100 LINE",
"1432 100 LINE",
"1432 0 LINE",
"766 0 LINE"
);
},
{
closed = 1;
nodes = (
"766 598 LINE",
"766 1290 LINE",
"658 1290 LINE",
"388 598 LINE"
);
}
);
width = 1500;
},
{
layerId = "9D15C82E-7F80-48F0-B3D1-43822CDE4CEB";
paths = (
{
closed = 1;
nodes = (
"764 558 LINE",
"298 558 LINE",
"82 0 LINE",
"38 0 LINE",
"580 1396 LINE",
"1428 1396 LINE",
"1428 1356 LINE",
"804 1356 LINE",
"804 826 LINE",
"1260 826 LINE",
"1244 786 LINE",
"804 786 LINE",
"804 40 LINE",
"1428 40 LINE",
"1428 0 LINE",
"764 0 LINE"
);
},
{
closed = 1;
nodes = (
"764 598 LINE",
"764 1356 LINE",
"604 1356 LINE",
"312 598 LINE"
);
}
);
width = 1484;
},
{
layerId = "0D2E68F6-AD65-4FDC-99B3-7B414CE95F5B";
paths = (
{
closed = 1;
nodes = (
"774 386 LINE",
"444 386 LINE",
"300 0 LINE",
"42 0 LINE",
"584 1396 LINE",
"1442 1396 LINE",
"1442 1176 LINE",
"990 1176 LINE",
"990 826 LINE",
"1294 826 LINE",
"1226 612 LINE",
"990 612 LINE",
"990 200 LINE",
"1438 200 LINE",
"1438 0 LINE",
"774 0 LINE"
);
},
{
closed = 1;
nodes = (
"772 600 LINE",
"772 1176 LINE",
"732 1176 LINE",
"522 600 LINE"
);
}
);
width = 1512;
},
{
layerId = "BAA7A442-529C-4232-9150-0627B90683AA";
paths = (
{
closed = 1;
nodes = (
"869 486 LINE",
"449 486 LINE",
"158 0 LINE",
"40 0 LINE",
"879 1396 LINE",
"1735 1396 LINE",
"1712 1290 LINE",
"1154 1290 LINE",
"1056 826 LINE",
"1438 826 LINE",
"1375 710 LINE",
"1031 710 LINE",
"901 100 LINE",
"1453 100 LINE",
"1432 0 LINE",
"766 0 LINE"
);
},
{
closed = 1;
nodes = (
"893 598 LINE",
"1040 1290 LINE",
"932 1290 LINE",
"515 598 LINE"
);
}
);
width = 1500;
},
{
layerId = "EC4DDAD4-4840-4BAF-BE24-E50FF90D752F";
paths = (
{
closed = 1;
nodes = (
"856 386 LINE",
"526 386 LINE",
"300 0 LINE",
"42 0 LINE",
"881 1396 LINE",
"1739 1396 LINE",
"1692 1176 LINE",
"1240 1176 LINE",
"1166 826 LINE",
"1470 826 LINE",
"1356 612 LINE",
"1120 612 LINE",
"1033 200 LINE",
"1481 200 LINE",
"1438 0 LINE",
"774 0 LINE"
);
},
{
closed = 1;
nodes = (
"900 600 LINE",
"1022 1176 LINE",
"982 1176 LINE",
"650 600 LINE"
);
}
);
width = 1512;
},
{
layerId = "350CE105-9128-4F96-9C2D-77D2DB4D6663";
paths = (
{
closed = 1;
nodes = (
"883 558 LINE",
"417 558 LINE",
"82 0 LINE",
"38 0 LINE",
"877 1396 LINE",
"1725 1396 LINE",
"1716 1356 LINE",
"1092 1356 LINE",
"980 826 LINE",
"1436 826 LINE",
"1411 786 LINE",
"971 786 LINE",
"813 40 LINE",
"1437 40 LINE",
"1428 0 LINE",
"764 0 LINE"
);
},
{
closed = 1;
nodes = (
"891 598 LINE",
"1052 1356 LINE",
"892 1356 LINE",
"439 598 LINE"
);
}
);
width = 1484;
}
);
leftKerningGroup = A;
rightKerningGroup = E;
unicode = 00C6;
},
{
glyphname = B;
layers = (
{
layerId = master01;
paths = (
{
closed = 1;
nodes = (
"746 1396 OFFCURVE",
"876 1285 OFFCURVE",
"876 1056 CURVE SMOOTH",
"876 936 OFFCURVE",
"828 845 OFFCURVE",
"740 786 CURVE",
"740 778 LINE",
"857 727 OFFCURVE",
"948 608 OFFCURVE",
"948 416 CURVE SMOOTH",
"948 155 OFFCURVE",
"808 0 OFFCURVE",
"542 0 CURVE SMOOTH",
"82 0 LINE",
"82 1396 LINE",
"522 1396 LINE SMOOTH"
);
},
{
closed = 1;
nodes = (
"682 822 OFFCURVE",
"758 915 OFFCURVE",
"758 1056 CURVE SMOOTH",
"758 1213 OFFCURVE",
"674 1290 OFFCURVE",
"506 1290 CURVE SMOOTH",
"194 1290 LINE",
"194 822 LINE",
"520 822 LINE SMOOTH"
);
},
{
closed = 1;
nodes = (
"730 106 OFFCURVE",
"828 211 OFFCURVE",
"828 424 CURVE SMOOTH",
"828 580 OFFCURVE",
"737 712 OFFCURVE",
"570 712 CURVE SMOOTH",
"194 712 LINE",
"194 106 LINE",
"538 106 LINE SMOOTH"
);
}
);
width = 1006;
},
{
layerId = "9D15C82E-7F80-48F0-B3D1-43822CDE4CEB";
paths = (
{
closed = 1;
nodes = (
"737 1396 OFFCURVE",
"874 1287 OFFCURVE",
"874 1076 CURVE SMOOTH",
"874 965 OFFCURVE",
"806 845 OFFCURVE",
"698 806 CURVE",
"698 798 LINE",
"866 736 OFFCURVE",
"946 596 OFFCURVE",
"946 416 CURVE SMOOTH",
"946 166 OFFCURVE",
"804 0 OFFCURVE",
"538 0 CURVE SMOOTH",
"82 0 LINE",
"82 1396 LINE",
"518 1396 LINE SMOOTH"
);
},
{
closed = 1;
nodes = (
"732 822 OFFCURVE",
"836 932 OFFCURVE",
"836 1080 CURVE SMOOTH",
"836 1242 OFFCURVE",
"739 1358 OFFCURVE",
"510 1358 CURVE SMOOTH",
"120 1358 LINE",
"120 822 LINE",
"594 822 LINE SMOOTH"
);
},
{
closed = 1;
nodes = (
"781 38 OFFCURVE",
"908 186 OFFCURVE",
"908 416 CURVE SMOOTH",
"908 634 OFFCURVE",
"773 786 OFFCURVE",
"544 786 CURVE SMOOTH",
"120 786 LINE",
"120 38 LINE",
"540 38 LINE SMOOTH"
);
}
);
width = 1004;
},
{
layerId = "0D2E68F6-AD65-4FDC-99B3-7B414CE95F5B";
paths = (
{
closed = 1;
nodes = (
"722 1396 OFFCURVE",
"876 1266 OFFCURVE",
"876 1042 CURVE SMOOTH",
"876 919 OFFCURVE",
"830 829 OFFCURVE",
"742 768 CURVE",
"742 762 LINE",
"859 709 OFFCURVE",
"948 591 OFFCURVE",
"948 410 CURVE SMOOTH",
"948 162 OFFCURVE",
"797 0 OFFCURVE",
"520 0 CURVE SMOOTH",
"82 0 LINE",
"82 1396 LINE",
"490 1396 LINE SMOOTH"
);
},
{
closed = 1;
nodes = (
"554 826 OFFCURVE",
"620 872 OFFCURVE",
"620 1010 CURVE SMOOTH",
"620 1135 OFFCURVE",
"554 1176 OFFCURVE",
"418 1176 CURVE SMOOTH",
"302 1176 LINE",
"302 826 LINE",
"398 826 LINE SMOOTH"
);
},
{
closed = 1;
nodes = (
"559 202 OFFCURVE",
"696 241 OFFCURVE",
"696 414 CURVE SMOOTH",
"696 547 OFFCURVE",
"613 614 OFFCURVE",
"442 614 CURVE SMOOTH",
"302 614 LINE",
"302 202 LINE",
"462 202 LINE SMOOTH"
);
}
);
width = 1010;
},
{
layerId = "BAA7A442-529C-4232-9150-0627B90683AA";
paths = (
{
closed = 1;
nodes = (
"1028 1396 OFFCURVE",
"1146 1281 OFFCURVE",
"1098 1052 CURVE SMOOTH",
"1072 932 OFFCURVE",
"1008 845 OFFCURVE",
"907 786 CURVE",
"905 778 LINE",
"1012 727 OFFCURVE",
"1075 608 OFFCURVE",
"1034 416 CURVE SMOOTH",
"982 168 OFFCURVE",
"819 0 OFFCURVE",
"542 0 CURVE SMOOTH",
"82 0 LINE",
"379 1396 LINE",
"798 1396 LINE SMOOTH"
);
},
{
closed = 1;
nodes = (
"857 822 OFFCURVE",
"953 915 OFFCURVE",
"982 1056 CURVE SMOOTH",
"1016 1213 OFFCURVE",
"948 1290 OFFCURVE",
"780 1290 CURVE SMOOTH",
"468 1290 LINE",
"369 822 LINE",
"695 822 LINE SMOOTH"
);
},
{
closed = 1;
nodes = (
"752 106 OFFCURVE",
"871 211 OFFCURVE",
"916 424 CURVE SMOOTH",
"948 574 OFFCURVE",
"893 712 OFFCURVE",
"721 712 CURVE SMOOTH",
"345 712 LINE",
"217 106 LINE",
"561 106 LINE SMOOTH"
);
}
);
width = 1006;
},
{
layerId = "EC4DDAD4-4840-4BAF-BE24-E50FF90D752F";
paths = (
{
closed = 1;
nodes = (
"1006 1396 OFFCURVE",
"1142 1249 OFFCURVE",
"1094 1025 CURVE SMOOTH",
"1068 903 OFFCURVE",
"1006 829 OFFCURVE",
"905 768 CURVE",
"904 762 LINE",
"1010 709 OFFCURVE",
"1074 591 OFFCURVE",
"1035 410 CURVE SMOOTH",
"982 162 OFFCURVE",
"797 0 OFFCURVE",
"520 0 CURVE SMOOTH",
"82 0 LINE",
"379 1396 LINE",
"746 1396 LINE SMOOTH"
);
},
{
closed = 1;
nodes = (
"730 826 OFFCURVE",
"805 872 OFFCURVE",
"835 1010 CURVE SMOOTH",
"861 1135 OFFCURVE",
"804 1176 OFFCURVE",
"668 1176 CURVE SMOOTH",
"552 1176 LINE",
"478 826 LINE",
"574 826 LINE SMOOTH"
);
},
{
closed = 1;
nodes = (
"602 202 OFFCURVE",
"747 241 OFFCURVE",
"784 414 CURVE SMOOTH",
"812 547 OFFCURVE",
"743 614 OFFCURVE",
"573 614 CURVE SMOOTH",
"433 614 LINE",
"345 202 LINE",
"505 202 LINE SMOOTH"
);
}
);
width = 1010;
},
{
layerId = "350CE105-9128-4F96-9C2D-77D2DB4D6663";
paths = (
{
closed = 1;
nodes = (
"1033 1396 OFFCURVE",
"1146 1290 OFFCURVE",
"1103 1076 CURVE SMOOTH",
"1078 958 OFFCURVE",
"981 842 OFFCURVE",
"869 804 CURVE",
"868 798 LINE",
"1010 746 OFFCURVE",
"1075 608 OFFCURVE",
"1034 416 CURVE SMOOTH",
"982 168 OFFCURVE",
"819 0 OFFCURVE",
"542 0 CURVE SMOOTH",
"80 0 LINE",
"377 1396 LINE",
"814 1396 LINE SMOOTH"
);
},
{
closed = 1;
nodes = (
"896 822 OFFCURVE",
"1033 936 OFFCURVE",
"1064 1084 CURVE SMOOTH",
"1098 1248 OFFCURVE",
"1031 1358 OFFCURVE",
"802 1358 CURVE SMOOTH",
"409 1358 LINE",
"295 822 LINE",
"758 822 LINE SMOOTH"
);
},
{
closed = 1;
nodes = (
"787 38 OFFCURVE",
"941 181 OFFCURVE",
"990 410 CURVE SMOOTH",
"1039 639 OFFCURVE",
"940 786 OFFCURVE",
"711 786 CURVE SMOOTH",
"287 786 LINE",
"128 38 LINE",
"546 38 LINE SMOOTH"
);
}
);
width = 1004;
}
);
leftKerningGroup = H;
rightKerningGroup = B;
unicode = 0042;
},
{
glyphname = C;
layers = (
{
layerId = master01;
paths = (
{
closed = 1;
nodes = (
"631 1303 OFFCURVE",
"561 1316 OFFCURVE",
"492 1316 CURVE SMOOTH",
"297 1316 OFFCURVE",
"180 1235 OFFCURVE",
"180 1024 CURVE SMOOTH",
"180 370 LINE SMOOTH",
"180 161 OFFCURVE",
"275 80 OFFCURVE",
"476 80 CURVE SMOOTH",
"554 80 OFFCURVE",
"653 102 OFFCURVE",
"766 138 CURVE",
"790 46 LINE",
"677 2 OFFCURVE",
"569 -20 OFFCURVE",
"468 -20 CURVE SMOOTH",
"425 -20 OFFCURVE",
"328 -21 OFFCURVE",
"232 30 CURVE SMOOTH",
"133 83 OFFCURVE",
"68 198 OFFCURVE",
"68 366 CURVE SMOOTH",
"68 1016 LINE SMOOTH",
"68 1295 OFFCURVE",
"236 1416 OFFCURVE",
"456 1416 CURVE SMOOTH",
"560 1416 OFFCURVE",
"655 1394 OFFCURVE",
"740 1350 CURVE",
"706 1274 LINE"
);
}
);
width = 844;
},
{
layerId = "9D15C82E-7F80-48F0-B3D1-43822CDE4CEB";
paths = (
{
closed = 1;
nodes = (
"636 1362 OFFCURVE",
"545 1378 OFFCURVE",
"462 1378 CURVE SMOOTH",
"230 1378 OFFCURVE",
"106 1260 OFFCURVE",
"106 1024 CURVE SMOOTH",
"106 370 LINE",
"102 109 OFFCURVE",
"262 16 OFFCURVE",
"474 16 CURVE SMOOTH",
"553 16 OFFCURVE",
"666 36 OFFCURVE",
"778 82 CURVE",
"790 46 LINE",
"677 2 OFFCURVE",
"569 -20 OFFCURVE",
"466 -20 CURVE SMOOTH",
"426 -20 OFFCURVE",
"328 -21 OFFCURVE",
"232 30 CURVE SMOOTH",
"131 86 OFFCURVE",
"68 198 OFFCURVE",
"68 366 CURVE SMOOTH",
"68 1024 LINE SMOOTH",
"68 1316 OFFCURVE",
"256 1416 OFFCURVE",
"456 1416 CURVE SMOOTH",
"564 1416 OFFCURVE",
"659 1394 OFFCURVE",
"740 1350 CURVE",
"724 1316 LINE"
);
}
);
width = 840;
},
{
layerId = "0D2E68F6-AD65-4FDC-99B3-7B414CE95F5B";
paths = (
{
closed = 1;
nodes = (
"631 1185 OFFCURVE",
"557 1198 OFFCURVE",
"496 1198 CURVE SMOOTH",
"365 1198 OFFCURVE",
"292 1149 OFFCURVE",
"292 1024 CURVE SMOOTH",
"292 370 LINE SMOOTH",
"292 247 OFFCURVE",
"359 200 OFFCURVE",
"478 200 CURVE SMOOTH",
"599 200 OFFCURVE",
"738 254 OFFCURVE",
"760 254 CURVE",
"792 46 LINE",
"676 1 OFFCURVE",
"567 -23 OFFCURVE",
"466 -24 CURVE",
"359 -24 OFFCURVE",
"259 5 OFFCURVE",
"190 64 CURVE SMOOTH",
"118 128 OFFCURVE",
"72 227 OFFCURVE",
"72 366 CURVE SMOOTH",
"72 1018 LINE SMOOTH",
"72 1281 OFFCURVE",
"236 1420 OFFCURVE",
"456 1420 CURVE SMOOTH",
"552 1420 OFFCURVE",
"648 1397 OFFCURVE",
"744 1350 CURVE",
"684 1164 LINE"
);
}
);
width = 852;
},
{
layerId = "BAA7A442-529C-4232-9150-0627B90683AA";
paths = (
{
closed = 1;
nodes = (
"908 1303 OFFCURVE",
"841 1316 OFFCURVE",
"772 1316 CURVE SMOOTH",
"577 1316 OFFCURVE",
"442 1235 OFFCURVE",
"398 1024 CURVE SMOOTH",
"259 370 LINE SMOOTH",
"214 161 OFFCURVE",
"292 80 OFFCURVE",
"493 80 CURVE SMOOTH",
"571 80 OFFCURVE",
"675 102 OFFCURVE",
"795 138 CURVE",
"800 46 LINE",
"677 2 OFFCURVE",
"565 -20 OFFCURVE",
"464 -20 CURVE SMOOTH",
"421 -20 OFFCURVE",
"324 -21 OFFCURVE",
"238 30 CURVE SMOOTH",
"151 83 OFFCURVE",
"110 198 OFFCURVE",
"146 366 CURVE SMOOTH",
"284 1016 LINE SMOOTH",
"343 1295 OFFCURVE",
"537 1416 OFFCURVE",
"757 1416 CURVE SMOOTH",
"861 1416 OFFCURVE",
"951 1394 OFFCURVE",
"1027 1350 CURVE",
"977 1274 LINE"
);
}
);
width = 844;
},
{
layerId = "EC4DDAD4-4840-4BAF-BE24-E50FF90D752F";
paths = (
{
closed = 1;
nodes = (
"883 1185 OFFCURVE",
"812 1198 OFFCURVE",
"751 1198 CURVE SMOOTH",
"620 1198 OFFCURVE",
"536 1149 OFFCURVE",
"510 1024 CURVE SMOOTH",
"371 370 LINE SMOOTH",
"344 247 OFFCURVE",
"402 200 OFFCURVE",
"521 200 CURVE SMOOTH",
"641 200 OFFCURVE",
"793 254 OFFCURVE",
"814 254 CURVE",
"802 46 LINE",
"676 1 OFFCURVE",
"563 -23 OFFCURVE",
"461 -24 CURVE",
"354 -24 OFFCURVE",
"260 5 OFFCURVE",
"204 64 CURVE SMOOTH",
"145 128 OFFCURVE",
"120 227 OFFCURVE",
"150 366 CURVE SMOOTH",
"288 1018 LINE SMOOTH",
"344 1280 OFFCURVE",
"538 1420 OFFCURVE",
"758 1420 CURVE SMOOTH",
"854 1420 OFFCURVE",
"945 1397 OFFCURVE",
"1031 1350 CURVE",
"931 1164 LINE"
);
}
);
width = 852;
},
{
layerId = "350CE105-9128-4F96-9C2D-77D2DB4D6663";
paths = (
{
closed = 1;
nodes = (
"926 1360 OFFCURVE",
"838 1378 OFFCURVE",
"755 1378 CURVE SMOOTH",
"523 1378 OFFCURVE",
"371 1245 OFFCURVE",
"324 1024 CURVE SMOOTH",
"185 370 LINE",
"125 109 OFFCURVE",
"266 16 OFFCURVE",
"477 16 CURVE SMOOTH",
"557 16 OFFCURVE",
"669 38 OFFCURVE",
"795 82 CURVE",
"800 46 LINE",
"677 2 OFFCURVE",
"564 -20 OFFCURVE",
"462 -20 CURVE SMOOTH",
"422 -20 OFFCURVE",
"324 -21 OFFCURVE",
"238 30 CURVE SMOOTH",
"149 86 OFFCURVE",
"110 198 OFFCURVE",
"146 366 CURVE SMOOTH",
"286 1024 LINE SMOOTH",
"350 1326 OFFCURVE",
"557 1416 OFFCURVE",
"757 1416 CURVE SMOOTH",
"865 1416 OFFCURVE",
"955 1394 OFFCURVE",
"1027 1350 CURVE",
"1004 1316 LINE"
);
}
);
width = 840;
}
);
leftKerningGroup = O;
rightKerningGroup = C;
unicode = 0043;
},
{
glyphname = D;
layers = (
{
layerId = master01;
paths = (
{
closed = 1;
nodes = (
"759 1396 OFFCURVE",
"920 1218 OFFCURVE",
"920 946 CURVE SMOOTH",
"920 398 LINE SMOOTH",
"920 134 OFFCURVE",
"781 0 OFFCURVE",
"498 0 CURVE SMOOTH",
"82 0 LINE",
"82 1396 LINE",
"458 1396 LINE SMOOTH"
);
},
{
closed = 1;
nodes = (
"695 100 OFFCURVE",
"808 194 OFFCURVE",
"808 378 CURVE SMOOTH",
"808 976 LINE SMOOTH",
"808 1148 OFFCURVE",
"712 1296 OFFCURVE",
"478 1296 CURVE SMOOTH",
"194 1296 LINE",
"194 100 LINE",
"464 100 LINE SMOOTH"
);
}
);
width = 990;
},
{
layerId = "9D15C82E-7F80-48F0-B3D1-43822CDE4CEB";
paths = (
{
closed = 1;
nodes = (
"759 1396 OFFCURVE",
"920 1218 OFFCURVE",
"920 946 CURVE SMOOTH",
"920 398 LINE SMOOTH",
"920 134 OFFCURVE",
"781 0 OFFCURVE",
"498 0 CURVE SMOOTH",
"82 0 LINE",
"82 1396 LINE",
"458 1396 LINE SMOOTH"
);
},
{
closed = 1;
nodes = (
"733 40 OFFCURVE",
"882 125 OFFCURVE",
"882 426 CURVE SMOOTH",
"882 932 LINE SMOOTH",
"882 1185 OFFCURVE",
"748 1356 OFFCURVE",
"478 1356 CURVE SMOOTH",
"120 1356 LINE",
"120 40 LINE",
"478 40 LINE SMOOTH"
);
}
);
width = 988;
},
{
layerId = "0D2E68F6-AD65-4FDC-99B3-7B414CE95F5B";
paths = (
{
closed = 1;
nodes = (
"744 1400 OFFCURVE",
"922 1235 OFFCURVE",
"922 946 CURVE SMOOTH",
"922 412 LINE SMOOTH",
"922 148 OFFCURVE",
"781 0 OFFCURVE",
"498 0 CURVE SMOOTH",
"82 0 LINE",
"82 1400 LINE",
"458 1400 LINE SMOOTH"
);
},
{
closed = 1;
nodes = (
"692 202 OFFCURVE",
"702 313 OFFCURVE",
"702 392 CURVE SMOOTH",
"702 966 LINE SMOOTH",
"702 1109 OFFCURVE",
"631 1176 OFFCURVE",
"478 1176 CURVE SMOOTH",
"302 1176 LINE",
"302 202 LINE",
"468 202 LINE SMOOTH"
);
}
);
width = 994;
},
{
layerId = "BAA7A442-529C-4232-9150-0627B90683AA";
paths = (
{
closed = 1;
nodes = (
"1056 1396 OFFCURVE",
"1179 1218 OFFCURVE",
"1121 946 CURVE SMOOTH",
"1005 398 LINE SMOOTH",
"948 134 OFFCURVE",
"781 0 OFFCURVE",
"498 0 CURVE SMOOTH",
"82 0 LINE",
"379 1396 LINE",
"755 1396 LINE SMOOTH"
);
},
{
closed = 1;
nodes = (
"716 100 OFFCURVE",
"849 194 OFFCURVE",
"888 378 CURVE SMOOTH",
"1015 976 LINE SMOOTH",
"1052 1148 OFFCURVE",
"988 1296 OFFCURVE",
"753 1296 CURVE SMOOTH",
"469 1296 LINE",
"215 100 LINE",
"485 100 LINE SMOOTH"
);
}
);
width = 990;
},
{
layerId = "EC4DDAD4-4840-4BAF-BE24-E50FF90D752F";
paths = (
{
closed = 1;
nodes = (
"1046 1400 OFFCURVE",
"1183 1230 OFFCURVE",
"1123 946 CURVE SMOOTH",
"1010 412 LINE SMOOTH",
"953 148 OFFCURVE",
"781 0 OFFCURVE",
"498 0 CURVE SMOOTH",
"82 0 LINE",
"380 1400 LINE",
"756 1400 LINE SMOOTH"
);
},
{
closed = 1;
nodes = (
"735 202 OFFCURVE",
"768 313 OFFCURVE",
"785 392 CURVE SMOOTH",
"907 966 LINE SMOOTH",
"938 1109 OFFCURVE",
"881 1176 OFFCURVE",
"728 1176 CURVE SMOOTH",
"552 1176 LINE",
"345 202 LINE",
"511 202 LINE SMOOTH"
);
}
);
width = 994;
},
{
layerId = "350CE105-9128-4F96-9C2D-77D2DB4D6663";
paths = (
{
closed = 1;
nodes = (
"1056 1396 OFFCURVE",
"1179 1218 OFFCURVE",
"1121 946 CURVE SMOOTH",
"1005 398 LINE SMOOTH",
"948 134 OFFCURVE",
"781 0 OFFCURVE",
"498 0 CURVE SMOOTH",
"78 0 LINE",
"375 1396 LINE",
"755 1396 LINE SMOOTH"
);
},
{
closed = 1;
nodes = (
"742 40 OFFCURVE",
"909 125 OFFCURVE",
"973 426 CURVE SMOOTH",
"1080 932 LINE SMOOTH",
"1134 1185 OFFCURVE",
"1037 1356 OFFCURVE",
"766 1356 CURVE SMOOTH",
"408 1356 LINE",
"129 40 LINE",
"487 40 LINE SMOOTH"
);
}
);
width = 988;
}
);
leftKerningGroup = H;
rightKerningGroup = O;
unicode = 0044;
},
{
glyphname = Eth;
layers = (
{
components = (
{
name = D;
}
);
layerId = master01;
paths = (
{
closed = 1;
nodes = (
"134 822 LINE",
"574 822 LINE",
"538 712 LINE",
"134 712 LINE"
);
}
);
width = 990;
},
{
components = (
{
name = D;
}
);
layerId = "9D15C82E-7F80-48F0-B3D1-43822CDE4CEB";
paths = (
{
closed = 1;
nodes = (
"100 822 LINE",
"574 822 LINE",
"562 786 LINE",
"100 786 LINE"
);
}
);
width = 988;
},
{
components = (
{
name = D;
}
);
layerId = "0D2E68F6-AD65-4FDC-99B3-7B414CE95F5B";
paths = (
{
closed = 1;
nodes = (
"242 826 LINE",
"576 826 LINE",
"514 616 LINE",
"242 616 LINE"
);
}
);
width = 994;
},
{
components = (
{
name = D;
}
);
layerId = "BAA7A442-529C-4232-9150-0627B90683AA";
paths = (
{
closed = 1;
nodes = (
"309 822 LINE",
"749 822 LINE",
"689 712 LINE",
"285 712 LINE"
);
}
);
width = 990;
},
{
components = (
{
name = D;
}
);
layerId = "EC4DDAD4-4840-4BAF-BE24-E50FF90D752F";
paths = (
{
closed = 1;
nodes = (
"418 826 LINE",
"752 826 LINE",
"645 616 LINE",
"373 616 LINE"
);
}
);
width = 994;
},
{
components = (
{
name = D;
}
);
layerId = "350CE105-9128-4F96-9C2D-77D2DB4D6663";
paths = (
{
closed = 1;
nodes = (
"275 822 LINE",
"749 822 LINE",
"729 786 LINE",
"267 786 LINE"
);
}
);
width = 988;
}
);
leftKerningGroup = H;
rightKerningGroup = O;
unicode = 00D0;
},
{
glyphname = E;
layers = (
{
layerId = master01;
paths = (
{
closed = 1;
nodes = (
"82 1396 LINE",
"748 1396 LINE",
"748 1292 LINE",
"194 1292 LINE",
"194 822 LINE",
"574 822 LINE",
"538 712 LINE",
"194 712 LINE",
"194 100 LINE",
"744 100 LINE",
"744 0 LINE",
"82 0 LINE"
);
}
);
width = 810;
},
{
layerId = "9D15C82E-7F80-48F0-B3D1-43822CDE4CEB";
paths = (
{
closed = 1;
nodes = (
"82 1396 LINE",
"748 1396 LINE",
"748 1358 LINE",
"120 1358 LINE",
"120 822 LINE",
"574 822 LINE",
"562 786 LINE",
"120 786 LINE",
"120 38 LINE",
"744 38 LINE",
"744 0 LINE",
"82 0 LINE"
);
}
);
width = 804;
},
{
layerId = "0D2E68F6-AD65-4FDC-99B3-7B414CE95F5B";
paths = (
{
closed = 1;
nodes = (
"82 1396 LINE",
"750 1396 LINE",
"750 1176 LINE",
"302 1176 LINE",
"302 826 LINE",
"576 826 LINE",
"514 616 LINE",
"302 616 LINE",
"302 200 LINE",
"746 200 LINE",
"746 0 LINE",
"82 0 LINE"
);
}
);
width = 820;
},
{
layerId = "BAA7A442-529C-4232-9150-0627B90683AA";
paths = (
{
closed = 1;
nodes = (
"379 1396 LINE",
"1045 1396 LINE",
"1023 1292 LINE",
"469 1292 LINE",
"369 822 LINE",
"749 822 LINE",
"696 712 LINE",
"345 712 LINE",
"215 100 LINE",
"765 100 LINE",
"744 0 LINE",
"82 0 LINE"
);
}
);
width = 810;
},
{
layerId = "EC4DDAD4-4840-4BAF-BE24-E50FF90D752F";
paths = (
{
closed = 1;
nodes = (
"379 1396 LINE",
"1047 1396 LINE",
"1000 1176 LINE",
"552 1176 LINE",
"478 826 LINE",
"752 826 LINE",
"662 616 LINE",
"433 616 LINE",
"345 200 LINE",
"789 200 LINE",
"746 0 LINE",
"82 0 LINE"
);
}
);
width = 820;
},
{
layerId = "350CE105-9128-4F96-9C2D-77D2DB4D6663";
paths = (
{
closed = 1;
nodes = (
"375 1396 LINE",
"1045 1396 LINE",
"1037 1358 LINE",
"409 1358 LINE",
"295 822 LINE",
"749 822 LINE",
"732 786 LINE",
"287 786 LINE",
"128 38 LINE",
"752 38 LINE",
"744 0 LINE",
"78 0 LINE"
);
}
);
width = 804;
}
);
leftKerningGroup = H;
rightKerningGroup = E;
unicode = 0045;
},
{
glyphname = F;
layers = (
{
layerId = master01;
paths = (
{
closed = 1;
nodes = (
"748 1290 LINE",
"194 1290 LINE",
"194 822 LINE",
"576 822 LINE",
"530 712 LINE",
"194 712 LINE",
"194 0 LINE",
"82 0 LINE",
"82 1396 LINE",
"748 1396 LINE"
);
}
);
width = 780;
},
{
layerId = "9D15C82E-7F80-48F0-B3D1-43822CDE4CEB";
paths = (
{
closed = 1;
nodes = (
"748 1356 LINE",
"122 1356 LINE",
"122 822 LINE",
"576 822 LINE",
"562 786 LINE",
"122 786 LINE",
"122 0 LINE",
"82 0 LINE",
"82 1396 LINE",
"748 1396 LINE"
);
}
);
width = 774;
},
{
layerId = "0D2E68F6-AD65-4FDC-99B3-7B414CE95F5B";
paths = (
{
closed = 1;
nodes = (
"750 1176 LINE",
"302 1176 LINE",
"302 826 LINE",
"576 826 LINE",
"506 616 LINE",
"302 616 LINE",
"302 0 LINE",
"82 0 LINE",
"82 1396 LINE",
"750 1396 LINE"
);
}
);
width = 788;
},
{
layerId = "BAA7A442-529C-4232-9150-0627B90683AA";
paths = (
{
closed = 1;
nodes = (
"1022 1290 LINE",
"468 1290 LINE",
"369 822 LINE",
"751 822 LINE",
"702 712 LINE",
"345 712 LINE",
"194 0 LINE",
"82 0 LINE",
"379 1396 LINE",
"1045 1396 LINE"
);
}
);
width = 780;
},
{
layerId = "EC4DDAD4-4840-4BAF-BE24-E50FF90D752F";
paths = (
{
closed = 1;
nodes = (
"1000 1176 LINE",
"552 1176 LINE",
"478 826 LINE",
"752 826 LINE",
"662 616 LINE",
"433 616 LINE",
"302 0 LINE",
"82 0 LINE",
"379 1396 LINE",
"1047 1396 LINE"
);
}
);
width = 788;
},
{
layerId = "350CE105-9128-4F96-9C2D-77D2DB4D6663";
paths = (
{
closed = 1;
nodes = (
"1036 1356 LINE",
"410 1356 LINE",
"297 822 LINE",
"751 822 LINE",
"736 786 LINE",
"289 786 LINE",
"122 0 LINE",
"82 0 LINE",
"379 1396 LINE",
"1045 1396 LINE"
);
}
);
width = 774;
}
);
leftKerningGroup = H;
rightKerningGroup = F;
unicode = 0046;
},
{
glyphname = G;
layers = (
{
layerId = master01;
paths = (
{
closed = 1;
nodes = (
"631 1301 OFFCURVE",
"561 1314 OFFCURVE",
"494 1314 CURVE SMOOTH",
"296 1314 OFFCURVE",
"180 1228 OFFCURVE",
"180 1020 CURVE SMOOTH",
"180 372 LINE SMOOTH",
"180 190 OFFCURVE",
"317 88 OFFCURVE",
"490 88 CURVE SMOOTH",
"662 88 OFFCURVE",
"784 196 OFFCURVE",
"784 372 CURVE SMOOTH",
"784 488 LINE",
"526 488 LINE",
"486 598 LINE",
"890 598 LINE",
"890 0 LINE",
"788 0 LINE",
"780 82 LINE",
"707 13 OFFCURVE",
"618 -20 OFFCURVE",
"494 -20 CURVE SMOOTH",
"264 -20 OFFCURVE",
"68 116 OFFCURVE",
"68 376 CURVE SMOOTH",
"68 1004 LINE SMOOTH",
"68 1260 OFFCURVE",
"204 1414 OFFCURVE",
"456 1414 CURVE SMOOTH",
"560 1414 OFFCURVE",
"655 1392 OFFCURVE",
"740 1348 CURVE",
"706 1272 LINE"
);
}
);
width = 954;
},
{
layerId = "9D15C82E-7F80-48F0-B3D1-43822CDE4CEB";
paths = (
{
closed = 1;
nodes = (
"630 1360 OFFCURVE",
"537 1378 OFFCURVE",
"460 1378 CURVE SMOOTH",
"208 1378 OFFCURVE",
"106 1232 OFFCURVE",
"106 990 CURVE SMOOTH",
"106 372 LINE SMOOTH",
"106 141 OFFCURVE",
"277 18 OFFCURVE",
"496 18 CURVE SMOOTH",
"718 18 OFFCURVE",
"850 139 OFFCURVE",
"850 364 CURVE SMOOTH",
"850 560 LINE",
"500 560 LINE",
"484 598 LINE",
"888 598 LINE",
"888 0 LINE",
"850 0 LINE",
"850 176 LINE",
"790 54 OFFCURVE",
"666 -20 OFFCURVE",
"490 -20 CURVE SMOOTH",
"262 -20 OFFCURVE",
"66 116 OFFCURVE",
"66 376 CURVE SMOOTH",
"66 1004 LINE SMOOTH",
"66 1260 OFFCURVE",
"202 1414 OFFCURVE",
"454 1414 CURVE SMOOTH",
"558 1414 OFFCURVE",
"653 1392 OFFCURVE",
"738 1348 CURVE",
"724 1314 LINE"
);
}
);
width = 950;
},
{
layerId = "0D2E68F6-AD65-4FDC-99B3-7B414CE95F5B";
paths = (
{
closed = 1;
nodes = (
"614 1173 OFFCURVE",
"552 1188 OFFCURVE",
"496 1188 CURVE SMOOTH",
"376 1188 OFFCURVE",
"292 1158 OFFCURVE",
"292 1020 CURVE SMOOTH",
"292 374 LINE SMOOTH",
"292 246 OFFCURVE",
"361 184 OFFCURVE",
"492 184 CURVE SMOOTH",
"600 184 OFFCURVE",
"674 268 OFFCURVE",
"674 372 CURVE SMOOTH",
"674 390 LINE",
"560 390 LINE",
"490 600 LINE",
"894 600 LINE",
"894 0 LINE",
"742 0 LINE",
"732 56 LINE",
"663 0 OFFCURVE",
"542 -18 OFFCURVE",
"494 -20 CURVE SMOOTH",
"266 -26 OFFCURVE",
"72 108 OFFCURVE",
"72 378 CURVE SMOOTH",
"72 1004 LINE SMOOTH",
"72 1284 OFFCURVE",
"220 1416 OFFCURVE",
"484 1416 CURVE",
"579 1412 OFFCURVE",
"665 1390 OFFCURVE",
"744 1350 CURVE",
"678 1152 LINE"
);
}
);
width = 960;
},
{
layerId = "BAA7A442-529C-4232-9150-0627B90683AA";
paths = (
{
closed = 1;
nodes = (
"908 1301 OFFCURVE",
"840 1314 OFFCURVE",
"773 1314 CURVE SMOOTH",
"575 1314 OFFCURVE",
"441 1228 OFFCURVE",
"397 1020 CURVE SMOOTH",
"259 372 LINE SMOOTH",
"220 190 OFFCURVE",
"335 88 OFFCURVE",
"509 88 CURVE SMOOTH",
"681 88 OFFCURVE",
"826 196 OFFCURVE",
"863 372 CURVE SMOOTH",
"888 488 LINE",
"630 488 LINE",
"613 598 LINE",
"1017 598 LINE",
"890 0 LINE",
"788 0 LINE",
"797 82 LINE",
"710 13 OFFCURVE",
"614 -20 OFFCURVE",
"490 -20 CURVE SMOOTH",
"260 -20 OFFCURVE",
"93 116 OFFCURVE",
"148 376 CURVE SMOOTH",
"281 1004 LINE SMOOTH",
"336 1260 OFFCURVE",
"505 1414 OFFCURVE",
"757 1414 CURVE SMOOTH",
"861 1414 OFFCURVE",
"951 1392 OFFCURVE",
"1027 1348 CURVE",
"976 1272 LINE"
);
}
);
width = 954;
},
{
layerId = "EC4DDAD4-4840-4BAF-BE24-E50FF90D752F";
paths = (
{
closed = 1;
nodes = (
"881 1197 OFFCURVE",
"823 1212 OFFCURVE",
"767 1212 CURVE SMOOTH",
"632 1212 OFFCURVE",
"537 1164 OFFCURVE",
"506 1012 CURVE SMOOTH",
"372 374 LINE SMOOTH",
"345 246 OFFCURVE",
"381 184 OFFCURVE",
"512 184 CURVE SMOOTH",
"627 184 OFFCURVE",
"728 256 OFFCURVE",
"753 372 CURVE SMOOTH",
"757 390 LINE",
"643 390 LINE",
"618 600 LINE",
"1022 600 LINE",
"894 0 LINE",
"742 0 LINE",
"744 56 LINE",
"663 0 OFFCURVE",
"538 -18 OFFCURVE",
"490 -20 CURVE SMOOTH",
"260 -26 OFFCURVE",
"95 108 OFFCURVE",
"152 378 CURVE SMOOTH",
"285 1004 LINE SMOOTH",
"345 1284 OFFCURVE",
"521 1416 OFFCURVE",
"785 1416 CURVE SMOOTH",
"879 1416 OFFCURVE",
"961 1390 OFFCURVE",
"1031 1350 CURVE",
"941 1176 LINE"
);
}
);
width = 960;
},
{
layerId = "350CE105-9128-4F96-9C2D-77D2DB4D6663";
paths = (
{
closed = 1;
nodes = (
"928 1358 OFFCURVE",
"830 1378 OFFCURVE",
"753 1378 CURVE SMOOTH",
"503 1378 OFFCURVE",
"367 1230 OFFCURVE",
"316 990 CURVE SMOOTH",
"185 372 LINE SMOOTH",
"136 141 OFFCURVE",
"262 18 OFFCURVE",
"500 18 CURVE SMOOTH",
"722 18 OFFCURVE",
"880 139 OFFCURVE",
"927 364 CURVE SMOOTH",
"969 560 LINE",
"619 560 LINE",
"611 598 LINE",
"1015 598 LINE",
"888 0 LINE",
"850 0 LINE",
"887 176 LINE",
"800 45 OFFCURVE",
"662 -20 OFFCURVE",
"486 -20 CURVE SMOOTH",
"258 -20 OFFCURVE",
"91 116 OFFCURVE",
"146 376 CURVE SMOOTH",
"279 1004 LINE SMOOTH",
"334 1260 OFFCURVE",
"503 1414 OFFCURVE",
"755 1414 CURVE SMOOTH",
"859 1414 OFFCURVE",
"949 1392 OFFCURVE",
"1025 1348 CURVE",
"1003 1314 LINE"
);
}
);
width = 950;
}
);
leftKerningGroup = O;
rightKerningGroup = G;
unicode = 0047;
},
{
glyphname = Hbar;
layers = (
{
components = (
{
name = Eta;
}
);
layerId = master01;
paths = (
{
closed = 1;
nodes = (
"-6 996 LINE",
"-6 1104 LINE",
"1020 1104 LINE",
"1020 996 LINE"
);
}
);
width = 1026;
},
{
components = (
{
name = Eta;
}
);
layerId = "9D15C82E-7F80-48F0-B3D1-43822CDE4CEB";
paths = (
{
closed = 1;
nodes = (
"12 996 LINE",
"12 1036 LINE",
"1006 1036 LINE",
"1006 996 LINE"
);
}
);
width = 1026;
},
{
components = (
{
name = Eta;
}
);
layerId = "0D2E68F6-AD65-4FDC-99B3-7B414CE95F5B";
paths = (
{
closed = 1;
nodes = (
"-2 998 LINE",
"-2 1176 LINE",
"1026 1176 LINE",
"1026 998 LINE"
);
}
);
width = 1028;
},
{
components = (
{
name = Eta;
}
);
layerId = "BAA7A442-529C-4232-9150-0627B90683AA";
paths = (
{
closed = 1;
nodes = (
"206 996 LINE",
"229 1104 LINE",
"1255 1104 LINE",
"1232 996 LINE"
);
}
);
width = 1026;
},
{
components = (
{
name = Eta;
}
);
layerId = "EC4DDAD4-4840-4BAF-BE24-E50FF90D752F";
paths = (
{
closed = 1;
nodes = (
"210 998 LINE",
"248 1176 LINE",
"1276 1176 LINE",
"1238 998 LINE"
);
}
);
width = 1028;
},
{
components = (
{
name = Eta;
}
);
layerId = "350CE105-9128-4F96-9C2D-77D2DB4D6663";
paths = (
{
closed = 1;
nodes = (
"224 996 LINE",
"232 1036 LINE",
"1226 1036 LINE",
"1218 996 LINE"
);
}
);
width = 1026;
}
);
leftKerningGroup = H;
rightKerningGroup = H;
unicode = 0126;
},
{
glyphname = I;
layers = (
{
layerId = master01;
paths = (
{
closed = 1;
nodes = (
"40 1396 LINE",
"286 1396 LINE",
"286 0 LINE",
"176 0 LINE",
"176 1294 LINE",
"40 1298 LINE"
);
}
);
width = 372;
},
{
layerId = "9D15C82E-7F80-48F0-B3D1-43822CDE4CEB";
paths = (
{
closed = 1;
nodes = (
"30 1396 LINE",
"238 1396 LINE",
"238 0 LINE",
"202 0 LINE",
"202 1352 LINE",
"30 1358 LINE"
);
}
);
width = 324;
},
{
layerId = "0D2E68F6-AD65-4FDC-99B3-7B414CE95F5B";
paths = (
{
closed = 1;
nodes = (
"46 1396 LINE",
"392 1396 LINE",
"392 0 LINE",
"172 0 LINE",
"172 1182 LINE",
"46 1186 LINE"
);
}
);
width = 478;
},
{
layerId = "BAA7A442-529C-4232-9150-0627B90683AA";
paths = (
{
closed = 1;
nodes = (
"337 1396 LINE",
"583 1396 LINE",
"286 0 LINE",
"176 0 LINE",
"451 1294 LINE",
"316 1298 LINE"
);
}
);
width = 372;
},
{
layerId = "EC4DDAD4-4840-4BAF-BE24-E50FF90D752F";
paths = (
{
closed = 1;
nodes = (
"343 1396 LINE",
"689 1396 LINE",
"392 0 LINE",
"172 0 LINE",
"423 1182 LINE",
"298 1186 LINE"
);
}
);
width = 478;
},
{
layerId = "350CE105-9128-4F96-9C2D-77D2DB4D6663";
paths = (
{
closed = 1;
nodes = (
"327 1396 LINE",
"535 1396 LINE",
"238 0 LINE",
"202 0 LINE",
"489 1352 LINE",
"319 1358 LINE"
);
}
);
width = 324;
}
);
leftKerningGroup = I;
rightKerningGroup = H;
unicode = 0049;
},
{
glyphname = IJ;
layers = (
{
layerId = master01;
paths = (
{
closed = 1;
nodes = (
"1010 370 LINE SMOOTH",
"1010 115 OFFCURVE",
"840 -22 OFFCURVE",
"594 -22 CURVE SMOOTH",
"345 -22 OFFCURVE",
"174 111 OFFCURVE",
"174 370 CURVE SMOOTH",
"174 444 LINE",
"284 444 LINE",
"284 372 LINE SMOOTH",
"284 181 OFFCURVE",
"410 84 OFFCURVE",
"592 84 CURVE SMOOTH",
"776 84 OFFCURVE",
"900 181 OFFCURVE",
"900 372 CURVE SMOOTH",
"900 1294 LINE",
"764 1298 LINE",
"764 1396 LINE",
"1010 1396 LINE"
);
},
{
closed = 1;
nodes = (
"284 548 LINE",
"174 548 LINE",
"174 1294 LINE",
"38 1298 LINE",
"38 1396 LINE",
"284 1396 LINE"
);
}
);
width = 1098;
},
{
layerId = "9D15C82E-7F80-48F0-B3D1-43822CDE4CEB";
paths = (
{
closed = 1;
nodes = (
"1038 370 LINE SMOOTH",
"1038 115 OFFCURVE",
"868 -22 OFFCURVE",
"622 -22 CURVE SMOOTH",
"372 -22 OFFCURVE",
"202 110 OFFCURVE",
"202 370 CURVE SMOOTH",
"202 468 LINE",
"238 468 LINE",
"238 368 LINE SMOOTH",
"238 128 OFFCURVE",
"411 14 OFFCURVE",
"622 14 CURVE SMOOTH",
"848 14 OFFCURVE",
"1000 133 OFFCURVE",
"1000 368 CURVE SMOOTH",
"1000 1354 LINE",
"830 1358 LINE",
"830 1396 LINE",
"1038 1396 LINE"
);
},
{
closed = 1;
nodes = (
"238 524 LINE",
"202 524 LINE",
"202 1352 LINE",
"30 1358 LINE",
"30 1396 LINE",
"238 1396 LINE"
);
}
);
width = 1116;
},
{
layerId = "0D2E68F6-AD65-4FDC-99B3-7B414CE95F5B";
paths = (
{
closed = 1;
nodes = (
"1014 380 LINE SMOOTH",
"1014 124 OFFCURVE",
"843 -22 OFFCURVE",
"596 -22 CURVE SMOOTH",
"350 -22 OFFCURVE",
"174 113 OFFCURVE",
"174 370 CURVE SMOOTH",
"174 446 LINE",
"394 446 LINE",
"394 408 LINE SMOOTH",
"394 277 OFFCURVE",
"464 202 OFFCURVE",
"594 202 CURVE SMOOTH",
"720 202 OFFCURVE",
"794 289 OFFCURVE",
"794 412 CURVE SMOOTH",
"794 1184 LINE",
"676 1186 LINE",
"676 1396 LINE",
"1014 1396 LINE"
);
},
{
closed = 1;
nodes = (
"394 640 LINE",
"174 640 LINE",
"174 1182 LINE",
"46 1186 LINE",
"46 1396 LINE",
"394 1396 LINE"
);
}
);
width = 1074;
},
{
layerId = "BAA7A442-529C-4232-9150-0627B90683AA";
paths = (
{
closed = 1;
nodes = (
"1089 370 LINE SMOOTH",
"1036 120 OFFCURVE",
"840 -22 OFFCURVE",
"589 -22 CURVE SMOOTH",
"354 -22 OFFCURVE",
"198 114 OFFCURVE",
"253 370 CURVE SMOOTH",
"268 444 LINE",
"378 444 LINE",
"363 372 LINE SMOOTH",
"323 183 OFFCURVE",
"420 80 OFFCURVE",
"604 80 CURVE SMOOTH",
"792 80 OFFCURVE",
"939 184 OFFCURVE",
"979 372 CURVE SMOOTH",
"1175 1294 LINE",
"1040 1298 LINE",
"1061 1396 LINE",
"1307 1396 LINE"
);
},
{
closed = 1;
nodes = (
"400 548 LINE",
"290 548 LINE",
"449 1294 LINE",
"314 1298 LINE",
"335 1396 LINE",
"581 1396 LINE"
);
}
);
width = 1098;
},
{
layerId = "EC4DDAD4-4840-4BAF-BE24-E50FF90D752F";
paths = (
{
closed = 1;
nodes = (
"1093 370 LINE SMOOTH",
"1039 119 OFFCURVE",
"844 -22 OFFCURVE",
"591 -22 CURVE SMOOTH",
"364 -22 OFFCURVE",
"198 115 OFFCURVE",
"253 370 CURVE SMOOTH",
"269 446 LINE",
"489 446 LINE",
"481 408 LINE SMOOTH",
"453 280 OFFCURVE",
"504 202 OFFCURVE",
"637 202 CURVE SMOOTH",
"764 202 OFFCURVE",
"856 290 OFFCURVE",
"882 412 CURVE SMOOTH",
"1046 1184 LINE",
"928 1186 LINE",
"973 1396 LINE",
"1311 1396 LINE"
);
},
{
closed = 1;
nodes = (
"530 640 LINE",
"310 640 LINE",
"425 1182 LINE",
"298 1186 LINE",
"343 1396 LINE",
"691 1396 LINE"
);
}
);
width = 1074;
},
{
layerId = "350CE105-9128-4F96-9C2D-77D2DB4D6663";
paths = (
{
closed = 1;
nodes = (
"1117 370 LINE SMOOTH",
"1064 120 OFFCURVE",
"869 -22 OFFCURVE",
"617 -22 CURVE SMOOTH",
"365 -22 OFFCURVE",
"226 113 OFFCURVE",
"281 370 CURVE SMOOTH",
"301 468 LINE",
"337 468 LINE",
"316 368 LINE SMOOTH",
"263 126 OFFCURVE",
"392 14 OFFCURVE",
"624 14 CURVE SMOOTH",
"848 14 OFFCURVE",
"1029 138 OFFCURVE",
"1078 368 CURVE SMOOTH",
"1288 1354 LINE",
"1119 1358 LINE",
"1127 1396 LINE",
"1335 1396 LINE"
);
},
{
closed = 1;
nodes = (
"349 524 LINE",
"313 524 LINE",
"489 1352 LINE",
"319 1358 LINE",
"327 1396 LINE",
"535 1396 LINE"
);
}
);
width = 1116;
}
);
unicode = 0132;
},
{
glyphname = J;
layers = (
{
layerId = master01;
paths = (
{
closed = 1;
nodes = (
"330 74 OFFCURVE",
"264 -74 OFFCURVE",
"80 -74 CURVE",
"54 0 LINE",
"142 0 OFFCURVE",
"216 69 OFFCURVE",
"216 226 CURVE SMOOTH",
"216 1294 LINE",
"84 1298 LINE",
"84 1396 LINE",
"330 1396 LINE",
"330 236 LINE SMOOTH"
);
}
);
width = 412;
},
{
layerId = "9D15C82E-7F80-48F0-B3D1-43822CDE4CEB";
paths = (
{
closed = 1;
nodes = (
"272 86 OFFCURVE",
"240 -44 OFFCURVE",
"64 -74 CURVE",
"52 -38 LINE",
"172 -19 OFFCURVE",
"236 71 OFFCURVE",
"236 236 CURVE SMOOTH",
"236 1352 LINE",
"66 1358 LINE",
"66 1396 LINE",
"272 1396 LINE",
"272 244 LINE SMOOTH"
);
}
);
width = 354;
},
{
layerId = "0D2E68F6-AD65-4FDC-99B3-7B414CE95F5B";
paths = (
{
closed = 1;
nodes = (
"480 52 OFFCURVE",
"344 -66 OFFCURVE",
"126 -74 CURVE",
"54 114 LINE",
"195 114 OFFCURVE",
"266 181 OFFCURVE",
"266 312 CURVE SMOOTH",
"266 1182 LINE",
"144 1186 LINE",
"144 1396 LINE",
"480 1396 LINE",
"480 278 LINE SMOOTH"
);
}
);
width = 562;
},
{
layerId = "BAA7A442-529C-4232-9150-0627B90683AA";
paths = (
{
closed = 1;
nodes = (
"346 72 OFFCURVE",
"248 -74 OFFCURVE",
"64 -74 CURVE",
"54 0 LINE",
"142 0 OFFCURVE",
"231 69 OFFCURVE",
"264 226 CURVE SMOOTH",
"491 1294 LINE",
"360 1298 LINE",
"381 1396 LINE",
"627 1396 LINE",
"380 236 LINE SMOOTH"
);
}
);
width = 412;
},
{
layerId = "EC4DDAD4-4840-4BAF-BE24-E50FF90D752F";
paths = (
{
closed = 1;
nodes = (
"492 56 OFFCURVE",
"332 -66 OFFCURVE",
"110 -74 CURVE",
"78 114 LINE",
"220 114 OFFCURVE",
"305 181 OFFCURVE",
"332 312 CURVE SMOOTH",
"517 1182 LINE",
"396 1186 LINE",
"441 1396 LINE",
"777 1396 LINE",
"539 278 LINE SMOOTH"
);
}
);
width = 562;
},
{
layerId = "350CE105-9128-4F96-9C2D-77D2DB4D6663";
paths = (
{
closed = 1;
nodes = (
"290 80 OFFCURVE",
"226 -44 OFFCURVE",
"48 -74 CURVE",
"44 -38 LINE",
"168 -19 OFFCURVE",
"251 71 OFFCURVE",
"286 236 CURVE SMOOTH",
"523 1352 LINE",
"355 1358 LINE",
"363 1396 LINE",
"569 1396 LINE",
"324 244 LINE SMOOTH"
);
}
);
width = 354;
}
);
leftKerningGroup = J;
rightKerningGroup = J;
unicode = 004A;
},
{
glyphname = K;
layers = (
{
layerId = master01;
paths = (
{
closed = 1;
nodes = (
"640 1396 LINE",
"770 1396 LINE",
"362 794 LINE",
"874 0 LINE",
"740 0 LINE",
"288 688 LINE",
"194 536 LINE",
"194 0 LINE",
"82 0 LINE",
"82 1396 LINE",
"194 1396 LINE",
"194 732 LINE"
);
}
);
width = 914;
},
{
layerId = "9D15C82E-7F80-48F0-B3D1-43822CDE4CEB";
paths = (
{
closed = 1;
nodes = (
"726 1396 LINE",
"770 1396 LINE",
"338 834 LINE",
"874 0 LINE",
"832 0 LINE",
"312 804 LINE",
"120 558 LINE",
"120 0 LINE",
"82 0 LINE",
"82 1396 LINE",
"120 1396 LINE",
"120 614 LINE"
);
}
);
width = 914;
},
{
layerId = "0D2E68F6-AD65-4FDC-99B3-7B414CE95F5B";
paths = (
{
closed = 1;
nodes = (
"640 1400 LINE",
"904 1400 LINE",
"506 816 LINE",
"984 0 LINE",
"708 0 LINE",
"372 616 LINE",
"318 528 LINE",
"318 0 LINE",
"82 0 LINE",
"82 1400 LINE",
"318 1400 LINE",
"318 906 LINE"
);
}
);
width = 1028;
},
{
layerId = "BAA7A442-529C-4232-9150-0627B90683AA";
paths = (
{
closed = 1;
nodes = (
"937 1396 LINE",
"1067 1396 LINE",
"531 794 LINE",
"874 0 LINE",
"740 0 LINE",
"434 688 LINE",
"308 536 LINE",
"194 0 LINE",
"82 0 LINE",
"379 1396 LINE",
"491 1396 LINE",
"350 732 LINE"
);
}
);
width = 914;
},
{
layerId = "EC4DDAD4-4840-4BAF-BE24-E50FF90D752F";
paths = (
{
closed = 1;
nodes = (
"938 1400 LINE",
"1202 1400 LINE",
"679 816 LINE",
"984 0 LINE",
"708 0 LINE",
"503 616 LINE",
"430 528 LINE",
"318 0 LINE",
"82 0 LINE",
"380 1400 LINE",
"616 1400 LINE",
"511 906 LINE"
);
}
);
width = 1028;
},
{
layerId = "350CE105-9128-4F96-9C2D-77D2DB4D6663";
paths = (
{
closed = 1;
nodes = (
"1014 1396 LINE",
"1067 1396 LINE",
"515 834 LINE",
"874 0 LINE",
"832 0 LINE",
"483 804 LINE",
"239 558 LINE",
"120 0 LINE",
"82 0 LINE",
"379 1396 LINE",
"417 1396 LINE",
"254 624 LINE"
);
}
);
width = 914;
}
);
leftKerningGroup = H;
rightKerningGroup = K;
unicode = 004B;
},
{
glyphname = L;
layers = (
{
layerId = master01;
paths = (
{
closed = 1;
nodes = (
"82 1396 LINE",
"194 1396 LINE",
"194 100 LINE",
"802 100 LINE",
"802 0 LINE",
"82 0 LINE"
);
}
);
width = 846;
},
{
layerId = "9D15C82E-7F80-48F0-B3D1-43822CDE4CEB";
paths = (
{
closed = 1;
nodes = (
"82 1396 LINE",
"120 1396 LINE",
"120 40 LINE",
"802 40 LINE",
"802 0 LINE",
"82 0 LINE"
);
}
);
width = 838;
},
{
layerId = "0D2E68F6-AD65-4FDC-99B3-7B414CE95F5B";
paths = (
{
closed = 1;
nodes = (
"82 1396 LINE",
"302 1396 LINE",
"302 202 LINE",
"804 202 LINE",
"804 0 LINE",
"82 0 LINE"
);
}
);
width = 856;
},
{
layerId = "BAA7A442-529C-4232-9150-0627B90683AA";
paths = (
{
closed = 1;
nodes = (
"379 1396 LINE",
"491 1396 LINE",
"215 100 LINE",
"823 100 LINE",
"802 0 LINE",
"82 0 LINE"
);
}
);
width = 846;
},
{
layerId = "EC4DDAD4-4840-4BAF-BE24-E50FF90D752F";
paths = (
{
closed = 1;
nodes = (
"379 1396 LINE",
"599 1396 LINE",
"345 202 LINE",
"847 202 LINE",
"804 0 LINE",
"82 0 LINE"
);
}
);
width = 856;
},
{
layerId = "350CE105-9128-4F96-9C2D-77D2DB4D6663";
paths = (
{
closed = 1;
nodes = (
"379 1396 LINE",
"417 1396 LINE",
"129 40 LINE",
"811 40 LINE",
"802 0 LINE",
"82 0 LINE"
);
}
);
width = 838;
}
);
leftKerningGroup = H;
rightKerningGroup = L;
unicode = 004C;
},
{
glyphname = Lslash;
layers = (
{
layerId = master01;
paths = (
{
closed = 1;
nodes = (
"252 692 LINE",
"80 616 LINE",
"36 716 LINE",
"252 812 LINE",
"252 1396 LINE",
"364 1396 LINE",
"364 862 LINE",
"618 976 LINE",
"664 878 LINE",
"364 744 LINE",
"364 100 LINE",
"974 100 LINE",
"974 0 LINE",
"252 0 LINE"
);
}
);
width = 1018;
},
{
layerId = "9D15C82E-7F80-48F0-B3D1-43822CDE4CEB";
paths = (
{
closed = 1;
nodes = (
"250 772 LINE",
"50 682 LINE",
"34 716 LINE",
"250 812 LINE",
"250 1396 LINE",
"290 1396 LINE",
"290 830 LINE",
"614 976 LINE",
"630 944 LINE",
"290 790 LINE",
"290 40 LINE",
"972 40 LINE",
"972 0 LINE",
"250 0 LINE"
);
}
);
width = 1008;
},
{
layerId = "0D2E68F6-AD65-4FDC-99B3-7B414CE95F5B";
paths = (
{
closed = 1;
nodes = (
"258 618 LINE",
"114 554 LINE",
"42 718 LINE",
"258 814 LINE",
"258 1396 LINE",
"476 1396 LINE",
"476 910 LINE",
"622 976 LINE",
"696 818 LINE",
"476 718 LINE",
"476 202 LINE",
"978 202 LINE",
"978 0 LINE",
"258 0 LINE"
);
}
);
width = 1032;
},
{
layerId = "BAA7A442-529C-4232-9150-0627B90683AA";
paths = (
{
closed = 1;
nodes = (
"399 692 LINE",
"211 616 LINE",
"188 716 LINE",
"425 812 LINE",
"549 1396 LINE",
"661 1396 LINE",
"547 862 LINE",
"825 976 LINE",
"851 878 LINE",
"522 744 LINE",
"385 100 LINE",
"995 100 LINE",
"974 0 LINE",
"252 0 LINE"
);
}
);
width = 1018;
},
{
layerId = "EC4DDAD4-4840-4BAF-BE24-E50FF90D752F";
paths = (
{
closed = 1;
nodes = (
"389 618 LINE",
"232 554 LINE",
"195 718 LINE",
"431 814 LINE",
"555 1396 LINE",
"773 1396 LINE",
"669 910 LINE",
"829 976 LINE",
"870 818 LINE",
"629 718 LINE",
"519 202 LINE",
"1021 202 LINE",
"978 0 LINE",
"258 0 LINE"
);
}
);
width = 1032;
},
{
layerId = "350CE105-9128-4F96-9C2D-77D2DB4D6663";
paths = (
{
closed = 1;
nodes = (
"414 772 LINE",
"195 682 LINE",
"186 716 LINE",
"423 812 LINE",
"547 1396 LINE",
"587 1396 LINE",
"466 830 LINE",
"821 976 LINE",
"831 944 LINE",
"458 790 LINE",
"299 40 LINE",
"981 40 LINE",
"972 0 LINE",
"250 0 LINE"
);
}
);
width = 1008;
}
);
leftKerningGroup = H;
rightKerningGroup = L;
unicode = 0141;
},
{
glyphname = M;
layers = (
{
layerId = master01;
paths = (
{
closed = 1;
nodes = (
"614 172 LINE",
"1040 1396 LINE",
"1152 1396 LINE",
"1152 0 LINE",
"1040 0 LINE",
"1040 1066 LINE",
"676 0 LINE",
"554 0 LINE",
"194 1066 LINE",
"194 0 LINE",
"82 0 LINE",
"82 1396 LINE",
"194 1396 LINE"
);
}
);
width = 1238;
},
{
layerId = "9D15C82E-7F80-48F0-B3D1-43822CDE4CEB";
paths = (
{
closed = 1;
nodes = (
"616 60 LINE",
"1116 1396 LINE",
"1152 1396 LINE",
"1152 0 LINE",
"1116 0 LINE",
"1116 1292 LINE",
"632 0 LINE",
"596 0 LINE",
"118 1292 LINE",
"118 0 LINE",
"82 0 LINE",
"82 1396 LINE",
"118 1396 LINE"
);
}
);
width = 1238;
},
{
layerId = "0D2E68F6-AD65-4FDC-99B3-7B414CE95F5B";
paths = (
{
closed = 1;
nodes = (
"616 414 LINE",
"934 1396 LINE",
"1154 1396 LINE",
"1154 0 LINE",
"934 0 LINE",
"934 740 LINE",
"700 0 LINE",
"534 0 LINE",
"302 738 LINE",
"302 0 LINE",
"82 0 LINE",
"82 1396 LINE",
"302 1396 LINE"
);
}
);
width = 1240;
},
{
layerId = "BAA7A442-529C-4232-9150-0627B90683AA";
paths = (
{
closed = 1;
nodes = (
"651 172 LINE",
"1337 1396 LINE",
"1449 1396 LINE",
"1152 0 LINE",
"1040 0 LINE",
"1267 1066 LINE",
"676 0 LINE",
"554 0 LINE",
"421 1066 LINE",
"194 0 LINE",
"82 0 LINE",
"379 1396 LINE",
"491 1396 LINE"
);
}
);
width = 1238;
},
{
layerId = "EC4DDAD4-4840-4BAF-BE24-E50FF90D752F";
paths = (
{
closed = 1;
nodes = (
"704 414 LINE",
"1231 1396 LINE",
"1451 1396 LINE",
"1154 0 LINE",
"934 0 LINE",
"1091 740 LINE",
"700 0 LINE",
"534 0 LINE",
"459 738 LINE",
"302 0 LINE",
"82 0 LINE",
"379 1396 LINE",
"599 1396 LINE"
);
}
);
width = 1240;
},
{
layerId = "350CE105-9128-4F96-9C2D-77D2DB4D6663";
paths = (
{
closed = 1;
nodes = (
"626 70 LINE",
"1408 1396 LINE",
"1449 1396 LINE",
"1152 0 LINE",
"1114 0 LINE",
"1386 1284 LINE",
"632 0 LINE",
"596 0 LINE",
"393 1292 LINE",
"118 0 LINE",
"78 0 LINE",
"375 1396 LINE",
"415 1396 LINE"
);
}
);
width = 1238;
}
);
leftKerningGroup = H;
rightKerningGroup = H;
unicode = 004D;
},
{
glyphname = N;
layers = (
{
layerId = master01;
paths = (
{
closed = 1;
nodes = (
"1064 0 LINE",
"952 0 LINE",
"194 1190 LINE",
"194 0 LINE",
"82 0 LINE",
"82 1396 LINE",
"194 1396 LINE",
"952 204 LINE",
"952 1396 LINE",
"1064 1396 LINE"
);
}
);
width = 1150;
},
{
layerId = "9D15C82E-7F80-48F0-B3D1-43822CDE4CEB";
paths = (
{
closed = 1;
nodes = (
"1064 0 LINE",
"1030 0 LINE",
"118 1336 LINE",
"118 0 LINE",
"82 0 LINE",
"82 1396 LINE",
"118 1396 LINE",
"1030 64 LINE",
"1030 1396 LINE",
"1064 1396 LINE"
);
}
);
width = 1150;
},
{
layerId = "0D2E68F6-AD65-4FDC-99B3-7B414CE95F5B";
paths = (
{
closed = 1;
nodes = (
"1066 0 LINE",
"844 0 LINE",
"302 944 LINE",
"302 0 LINE",
"82 0 LINE",
"82 1396 LINE",
"302 1396 LINE",
"844 420 LINE",
"844 1396 LINE",
"1066 1396 LINE"
);
}
);
width = 1152;
},
{
layerId = "BAA7A442-529C-4232-9150-0627B90683AA";
paths = (
{
closed = 1;
nodes = (
"1064 0 LINE",
"952 0 LINE",
"447 1190 LINE",
"194 0 LINE",
"82 0 LINE",
"379 1396 LINE",
"491 1396 LINE",
"995 204 LINE",
"1249 1396 LINE",
"1361 1396 LINE"
);
}
);
width = 1150;
},
{
layerId = "EC4DDAD4-4840-4BAF-BE24-E50FF90D752F";
paths = (
{
closed = 1;
nodes = (
"1066 0 LINE",
"844 0 LINE",
"503 944 LINE",
"302 0 LINE",
"82 0 LINE",
"379 1396 LINE",
"599 1396 LINE",
"933 420 LINE",
"1141 1396 LINE",
"1363 1396 LINE"
);
}
);
width = 1152;
},
{
layerId = "350CE105-9128-4F96-9C2D-77D2DB4D6663";
paths = (
{
closed = 1;
nodes = (
"1064 0 LINE",
"1030 0 LINE",
"404 1328 LINE",
"122 0 LINE",
"82 0 LINE",
"379 1396 LINE",
"415 1396 LINE",
"1040 72 LINE",
"1323 1396 LINE",
"1361 1396 LINE"
);
}
);
width = 1150;
}
);
leftKerningGroup = H;
rightKerningGroup = H;
unicode = 004E;
},
{
glyphname = Eng;
layers = (
{
layerId = master01;
paths = (
{
closed = 1;
nodes = (
"1066 -215 OFFCURVE",
"1047 -279 OFFCURVE",
"1002 -330 CURVE SMOOTH",
"967 -367 OFFCURVE",
"921 -395 OFFCURVE",
"854 -416 CURVE",
"824 -330 LINE",
"864 -314 OFFCURVE",
"895 -289 OFFCURVE",
"916 -260 CURVE SMOOTH",
"943 -223 OFFCURVE",
"954 -177 OFFCURVE",
"954 -124 CURVE SMOOTH",
"954 2 LINE",
"194 1190 LINE",
"194 0 LINE",
"82 0 LINE",
"82 1396 LINE",
"196 1396 LINE",
"954 206 LINE",
"954 1396 LINE",
"1066 1396 LINE",
"1066 -124 LINE SMOOTH"
);
}
);
width = 1152;
},
{
layerId = "9D15C82E-7F80-48F0-B3D1-43822CDE4CEB";
paths = (
{
closed = 1;
nodes = (
"1066 -227 OFFCURVE",
"1045 -297 OFFCURVE",
"992 -348 CURVE SMOOTH",
"960 -380 OFFCURVE",
"913 -403 OFFCURVE",
"852 -424 CURVE",
"842 -390 LINE",
"903 -366 OFFCURVE",
"923 -355 OFFCURVE",
"966 -320 CURVE SMOOTH",
"1009 -283 OFFCURVE",
"1032 -223 OFFCURVE",
"1032 -132 CURVE SMOOTH",
"1032 2 LINE",
"122 1336 LINE",
"122 0 LINE",
"82 0 LINE",
"82 1396 LINE",
"120 1396 LINE",
"1032 66 LINE",
"1032 1396 LINE",
"1066 1396 LINE",
"1066 -134 LINE SMOOTH"
);
}
);
width = 1152;
},
{
layerId = "0D2E68F6-AD65-4FDC-99B3-7B414CE95F5B";
paths = (
{
closed = 1;
nodes = (
"1068 -233 OFFCURVE",
"1029 -299 OFFCURVE",
"976 -352 CURVE",
"917 -403 OFFCURVE",
"822 -426 OFFCURVE",
"766 -426 CURVE",
"706 -248 LINE",
"751 -237 OFFCURVE",
"781 -231 OFFCURVE",
"808 -202 CURVE",
"832 -181 OFFCURVE",
"848 -147 OFFCURVE",
"848 -96 CURVE SMOOTH",
"848 0 LINE",
"302 944 LINE",
"302 0 LINE",
"82 0 LINE",
"82 1396 LINE",
"304 1396 LINE",
"848 460 LINE",
"848 1396 LINE",
"1068 1396 LINE",
"1068 -118 LINE SMOOTH"
);
}
);
width = 1154;
},
{
layerId = "BAA7A442-529C-4232-9150-0627B90683AA";
paths = (
{
closed = 1;
nodes = (
"1020 -215 OFFCURVE",
"988 -279 OFFCURVE",
"932 -330 CURVE SMOOTH",
"889 -367 OFFCURVE",
"837 -395 OFFCURVE",
"766 -416 CURVE",
"754 -330 LINE",
"797 -314 OFFCURVE",
"833 -289 OFFCURVE",
"861 -260 CURVE SMOOTH",
"895 -223 OFFCURVE",
"916 -177 OFFCURVE",
"928 -124 CURVE SMOOTH",
"954 2 LINE",
"447 1190 LINE",
"194 0 LINE",
"82 0 LINE",
"379 1396 LINE",
"493 1396 LINE",
"998 206 LINE",
"1251 1396 LINE",
"1363 1396 LINE",
"1040 -124 LINE SMOOTH"
);
}
);
width = 1152;
},
{
layerId = "EC4DDAD4-4840-4BAF-BE24-E50FF90D752F";
paths = (
{
closed = 1;
nodes = (
"1019 -233 OFFCURVE",
"966 -299 OFFCURVE",
"901 -352 CURVE",
"832 -403 OFFCURVE",
"731 -426 OFFCURVE",
"675 -426 CURVE",
"653 -248 LINE",
"701 -237 OFFCURVE",
"732 -231 OFFCURVE",
"765 -202 CURVE",
"794 -181 OFFCURVE",
"817 -147 OFFCURVE",
"828 -96 CURVE SMOOTH",
"848 0 LINE",
"503 944 LINE",
"302 0 LINE",
"82 0 LINE",
"379 1396 LINE",
"601 1396 LINE",
"946 460 LINE",
"1145 1396 LINE",
"1365 1396 LINE",
"1043 -118 LINE SMOOTH"
);
}
);
width = 1154;
},
{
layerId = "350CE105-9128-4F96-9C2D-77D2DB4D6663";
paths = (
{
closed = 1;
nodes = (
"1018 -227 OFFCURVE",
"982 -297 OFFCURVE",
"918 -348 CURVE SMOOTH",
"879 -380 OFFCURVE",
"828 -403 OFFCURVE",
"762 -424 CURVE",
"759 -390 LINE",
"826 -366 OFFCURVE",
"848 -355 OFFCURVE",
"898 -320 CURVE SMOOTH",
"949 -283 OFFCURVE",
"985 -223 OFFCURVE",
"1004 -132 CURVE SMOOTH",
"1032 2 LINE",
"406 1336 LINE",
"122 0 LINE",
"82 0 LINE",
"379 1396 LINE",
"417 1396 LINE",
"1046 66 LINE",
"1329 1396 LINE",
"1363 1396 LINE",
"1038 -134 LINE SMOOTH"
);
}
);
width = 1152;
}
);
leftKerningGroup = H;
rightKerningGroup = H;
unicode = 014A;
},
{
glyphname = O;
layers = (
{
layerId = master01;
paths = (
{
closed = 1;
nodes = (
"68 1284 OFFCURVE",
"228 1428 OFFCURVE",
"492 1428 CURVE SMOOTH",
"756 1428 OFFCURVE",
"908 1271 OFFCURVE",
"908 1010 CURVE SMOOTH",
"908 370 LINE SMOOTH",
"908 128 OFFCURVE",
"737 -22 OFFCURVE",
"490 -22 CURVE SMOOTH",
"254 -22 OFFCURVE",
"68 112 OFFCURVE",
"68 370 CURVE SMOOTH",
"68 1012 LINE SMOOTH"
);
},
{
closed = 1;
nodes = (
"180 180 OFFCURVE",
"311 84 OFFCURVE",
"486 84 CURVE SMOOTH",
"669 84 OFFCURVE",
"798 176 OFFCURVE",
"798 372 CURVE SMOOTH",
"798 1030 LINE SMOOTH",
"798 1225 OFFCURVE",
"675 1322 OFFCURVE",
"486 1322 CURVE SMOOTH",
"302 1322 OFFCURVE",
"180 1225 OFFCURVE",
"180 1030 CURVE SMOOTH",
"180 372 LINE SMOOTH"
);
}
);
width = 980;
},
{
layerId = "9D15C82E-7F80-48F0-B3D1-43822CDE4CEB";
paths = (
{
closed = 1;
nodes = (
"66 1272 OFFCURVE",
"224 1428 OFFCURVE",
"488 1428 CURVE SMOOTH",
"749 1428 OFFCURVE",
"902 1271 OFFCURVE",
"902 1010 CURVE SMOOTH",
"902 370 LINE SMOOTH",
"902 126 OFFCURVE",
"736 -22 OFFCURVE",
"486 -22 CURVE SMOOTH",
"253 -22 OFFCURVE",
"66 112 OFFCURVE",
"66 370 CURVE SMOOTH",
"66 1012 LINE SMOOTH"
);
},
{
closed = 1;
nodes = (
"104 132 OFFCURVE",
"274 16 OFFCURVE",
"486 16 CURVE SMOOTH",
"702 16 OFFCURVE",
"866 132 OFFCURVE",
"866 368 CURVE SMOOTH",
"866 1016 LINE SMOOTH",
"866 1242 OFFCURVE",
"738 1388 OFFCURVE",
"488 1388 CURVE SMOOTH",
"234 1388 OFFCURVE",
"104 1241 OFFCURVE",
"104 1012 CURVE SMOOTH",
"104 368 LINE SMOOTH"
);
}
);
width = 972;
},
{
layerId = "0D2E68F6-AD65-4FDC-99B3-7B414CE95F5B";
paths = (
{
closed = 1;
nodes = (
"72 1284 OFFCURVE",
"232 1430 OFFCURVE",
"496 1430 CURVE SMOOTH",
"760 1430 OFFCURVE",
"912 1271 OFFCURVE",
"912 1010 CURVE SMOOTH",
"912 370 LINE SMOOTH",
"912 126 OFFCURVE",
"746 -22 OFFCURVE",
"494 -22 CURVE SMOOTH",
"258 -22 OFFCURVE",
"72 112 OFFCURVE",
"72 370 CURVE SMOOTH",
"72 1012 LINE SMOOTH"
);
},
{
closed = 1;
nodes = (
"292 281 OFFCURVE",
"359 202 OFFCURVE",
"492 202 CURVE SMOOTH",
"618 202 OFFCURVE",
"692 286 OFFCURVE",
"692 412 CURVE SMOOTH",
"692 938 LINE SMOOTH",
"692 1109 OFFCURVE",
"647 1196 OFFCURVE",
"492 1196 CURVE SMOOTH",
"353 1196 OFFCURVE",
"292 1113 OFFCURVE",
"292 940 CURVE SMOOTH",
"292 408 LINE SMOOTH"
);
}
);
width = 986;
},
{
layerId = "BAA7A442-529C-4232-9150-0627B90683AA";
paths = (
{
closed = 1;
nodes = (
"341 1284 OFFCURVE",
"532 1428 OFFCURVE",
"796 1428 CURVE SMOOTH",
"1060 1428 OFFCURVE",
"1178 1271 OFFCURVE",
"1123 1010 CURVE SMOOTH",
"987 370 LINE SMOOTH",
"935 129 OFFCURVE",
"732 -22 OFFCURVE",
"485 -22 CURVE SMOOTH",
"249 -22 OFFCURVE",
"92 112 OFFCURVE",
"147 370 CURVE SMOOTH",
"283 1012 LINE SMOOTH"
);
},
{
closed = 1;
nodes = (
"218 180 OFFCURVE",
"329 84 OFFCURVE",
"504 84 CURVE SMOOTH",
"687 84 OFFCURVE",
"835 176 OFFCURVE",
"877 372 CURVE SMOOTH",
"1017 1030 LINE SMOOTH",
"1058 1225 OFFCURVE",
"956 1322 OFFCURVE",
"767 1322 CURVE SMOOTH",
"583 1322 OFFCURVE",
"440 1225 OFFCURVE",
"399 1030 CURVE SMOOTH",
"259 372 LINE SMOOTH"
);
}
);
width = 980;
},
{
layerId = "EC4DDAD4-4840-4BAF-BE24-E50FF90D752F";
paths = (
{
closed = 1;
nodes = (
"345 1284 OFFCURVE",
"536 1430 OFFCURVE",
"800 1430 CURVE SMOOTH",
"1064 1430 OFFCURVE",
"1182 1271 OFFCURVE",
"1127 1010 CURVE SMOOTH",
"991 370 LINE SMOOTH",
"939 126 OFFCURVE",
"741 -22 OFFCURVE",
"489 -22 CURVE SMOOTH",
"253 -22 OFFCURVE",
"96 112 OFFCURVE",
"151 370 CURVE SMOOTH",
"287 1012 LINE SMOOTH"
);
},
{
closed = 1;
nodes = (
"352 281 OFFCURVE",
"402 202 OFFCURVE",
"535 202 CURVE SMOOTH",
"661 202 OFFCURVE",
"753 286 OFFCURVE",
"780 412 CURVE SMOOTH",
"891 938 LINE SMOOTH",
"928 1109 OFFCURVE",
"901 1196 OFFCURVE",
"746 1196 CURVE SMOOTH",
"608 1196 OFFCURVE",
"529 1113 OFFCURVE",
"492 940 CURVE SMOOTH",
"379 408 LINE SMOOTH"
);
}
);
width = 986;
},
{
layerId = "350CE105-9128-4F96-9C2D-77D2DB4D6663";
paths = (
{
closed = 1;
nodes = (
"339 1284 OFFCURVE",
"526 1428 OFFCURVE",
"790 1428 CURVE SMOOTH",
"1048 1428 OFFCURVE",
"1174 1275 OFFCURVE",
"1118 1014 CURVE SMOOTH",
"981 370 LINE SMOOTH",
"928 126 OFFCURVE",
"732 -22 OFFCURVE",
"481 -22 CURVE SMOOTH",
"248 -22 OFFCURVE",
"90 112 OFFCURVE",
"145 370 CURVE SMOOTH",
"281 1012 LINE SMOOTH"
);
},
{
closed = 1;
nodes = (
"138 156 OFFCURVE",
"252 16 OFFCURVE",
"489 16 CURVE SMOOTH",
"688 16 OFFCURVE",
"889 139 OFFCURVE",
"940 374 CURVE SMOOTH",
"1078 1016 LINE SMOOTH",
"1128 1248 OFFCURVE",
"1033 1388 OFFCURVE",
"780 1388 CURVE SMOOTH",
"529 1388 OFFCURVE",
"371 1242 OFFCURVE",
"321 1012 CURVE SMOOTH",
"184 370 LINE SMOOTH"
);
}
);
width = 972;
}
);
leftKerningGroup = O;
rightKerningGroup = O;
unicode = 004F;
},
{
glyphname = Oslash;
layers = (
{
components = (
{
name = O;
}
);
layerId = master01;
paths = (
{
closed = 1;
nodes = (
"820 1630 LINE",
"932 1630 LINE",
"294 -226 LINE",
"172 -226 LINE"
);
}
);
width = 980;
},
{
components = (
{
name = O;
}
);
layerId = "9D15C82E-7F80-48F0-B3D1-43822CDE4CEB";
paths = (
{
closed = 1;
nodes = (
"852 1630 LINE",
"894 1630 LINE",
"248 -226 LINE",
"208 -226 LINE"
);
}
);
width = 972;
},
{
components = (
{
name = O;
}
);
layerId = "0D2E68F6-AD65-4FDC-99B3-7B414CE95F5B";
paths = (
{
closed = 1;
nodes = (
"648 1440 LINE",
"848 1440 LINE",
"324 -36 LINE",
"132 -36 LINE"
);
}
);
width = 986;
},
{
components = (
{
name = O;
}
);
layerId = "BAA7A442-529C-4232-9150-0627B90683AA";
paths = (
{
closed = 1;
nodes = (
"1166 1630 LINE",
"1278 1630 LINE",
"246 -226 LINE",
"124 -226 LINE"
);
}
);
width = 980;
},
{
components = (
{
name = O;
}
);
layerId = "EC4DDAD4-4840-4BAF-BE24-E50FF90D752F";
paths = (
{
closed = 1;
nodes = (
"954 1440 LINE",
"1154 1440 LINE",
"316 -36 LINE",
"124 -36 LINE"
);
}
);
width = 986;
},
{
components = (
{
name = O;
}
);
layerId = "350CE105-9128-4F96-9C2D-77D2DB4D6663";
paths = (
{
closed = 1;
nodes = (
"1198 1630 LINE",
"1240 1630 LINE",
"200 -226 LINE",
"160 -226 LINE"
);
}
);
width = 972;
}
);
leftKerningGroup = O;
rightKerningGroup = O;
unicode = 00D8;
},
{
glyphname = OE;
layers = (
{
layerId = master01;
paths = (
{
closed = 1;
nodes = (
"794 86 LINE",
"720 16 OFFCURVE",
"613 -22 OFFCURVE",
"490 -22 CURVE SMOOTH",
"254 -22 OFFCURVE",
"68 112 OFFCURVE",
"68 370 CURVE SMOOTH",
"68 1012 LINE SMOOTH",
"68 1284 OFFCURVE",
"228 1428 OFFCURVE",
"492 1428 CURVE SMOOTH",
"620 1428 OFFCURVE",
"725 1389 OFFCURVE",
"794 1320 CURVE",
"794 1396 LINE",
"1462 1396 LINE",
"1462 1292 LINE",
"908 1292 LINE",
"908 822 LINE",
"1288 822 LINE",
"1250 712 LINE",
"908 712 LINE",
"908 100 LINE",
"1458 100 LINE",
"1458 0 LINE",
"794 0 LINE"
);
},
{
closed = 1;
nodes = (
"180 180 OFFCURVE",
"311 84 OFFCURVE",
"486 84 CURVE SMOOTH",
"655 84 OFFCURVE",
"778 162 OFFCURVE",
"794 328 CURVE",
"794 1072 LINE",
"778 1237 OFFCURVE",
"659 1322 OFFCURVE",
"486 1322 CURVE SMOOTH",
"302 1322 OFFCURVE",
"180 1225 OFFCURVE",
"180 1030 CURVE SMOOTH",
"180 372 LINE SMOOTH"
);
}
);
width = 1524;
},
{
layerId = "9D15C82E-7F80-48F0-B3D1-43822CDE4CEB";
paths = (
{
closed = 1;
nodes = (
"866 190 LINE",
"801 57 OFFCURVE",
"666 -22 OFFCURVE",
"486 -22 CURVE SMOOTH",
"253 -22 OFFCURVE",
"66 112 OFFCURVE",
"66 370 CURVE SMOOTH",
"66 1012 LINE SMOOTH",
"66 1284 OFFCURVE",
"226 1428 OFFCURVE",
"490 1428 CURVE SMOOTH",
"674 1428 OFFCURVE",
"805 1347 OFFCURVE",
"866 1208 CURVE",
"866 1396 LINE",
"1532 1396 LINE",
"1532 1358 LINE",
"902 1358 LINE",
"902 822 LINE",
"1358 822 LINE",
"1344 786 LINE",
"902 786 LINE",
"902 38 LINE",
"1528 38 LINE",
"1528 0 LINE",
"866 0 LINE"
);
},
{
closed = 1;
nodes = (
"104 154 OFFCURVE",
"274 16 OFFCURVE",
"486 16 CURVE SMOOTH",
"702 16 OFFCURVE",
"866 132 OFFCURVE",
"866 368 CURVE SMOOTH",
"866 1034 LINE",
"858 1255 OFFCURVE",
"729 1386 OFFCURVE",
"484 1386 CURVE SMOOTH",
"233 1386 OFFCURVE",
"104 1241 OFFCURVE",
"104 1012 CURVE SMOOTH",
"104 368 LINE SMOOTH"
);
}
);
width = 1588;
},
{
layerId = "0D2E68F6-AD65-4FDC-99B3-7B414CE95F5B";
paths = (
{
closed = 1;
nodes = (
"692 56 LINE",
"668 -1 OFFCURVE",
"560 -24 OFFCURVE",
"488 -24 CURVE SMOOTH",
"250 -24 OFFCURVE",
"72 110 OFFCURVE",
"72 368 CURVE SMOOTH",
"72 1010 LINE SMOOTH",
"72 1285 OFFCURVE",
"236 1428 OFFCURVE",
"472 1428 CURVE SMOOTH",
"546 1428 OFFCURVE",
"660 1395 OFFCURVE",
"692 1350 CURVE",
"692 1396 LINE",
"1360 1396 LINE",
"1360 1176 LINE",
"912 1176 LINE",
"912 826 LINE",
"1186 826 LINE",
"1122 616 LINE",
"912 616 LINE",
"912 200 LINE",
"1356 200 LINE",
"1356 0 LINE",
"692 0 LINE"
);
},
{
closed = 1;
nodes = (
"292 279 OFFCURVE",
"364 200 OFFCURVE",
"492 200 CURVE SMOOTH",
"616 200 OFFCURVE",
"692 284 OFFCURVE",
"692 410 CURVE SMOOTH",
"692 936 LINE SMOOTH",
"692 1107 OFFCURVE",
"624 1190 OFFCURVE",
"492 1190 CURVE SMOOTH",
"364 1190 OFFCURVE",
"292 1108 OFFCURVE",
"292 938 CURVE SMOOTH",
"292 408 LINE SMOOTH"
);
}
);
width = 1430;
},
{
layerId = "BAA7A442-529C-4232-9150-0627B90683AA";
paths = (
{
closed = 1;
nodes = (
"812 86 LINE",
"724 16 OFFCURVE",
"608 -22 OFFCURVE",
"485 -22 CURVE SMOOTH",
"249 -22 OFFCURVE",
"92 112 OFFCURVE",
"147 370 CURVE SMOOTH",
"283 1012 LINE SMOOTH",
"341 1284 OFFCURVE",
"532 1428 OFFCURVE",
"796 1428 CURVE SMOOTH",
"924 1428 OFFCURVE",
"1020 1389 OFFCURVE",
"1075 1320 CURVE",
"1091 1396 LINE",
"1759 1396 LINE",
"1737 1292 LINE",
"1183 1292 LINE",
"1083 822 LINE",
"1463 822 LINE",
"1401 712 LINE",
"1059 712 LINE",
"929 100 LINE",
"1479 100 LINE",
"1458 0 LINE",
"794 0 LINE"
);
},
{
closed = 1;
nodes = (
"218 180 OFFCURVE",
"329 84 OFFCURVE",
"504 84 CURVE SMOOTH",
"673 84 OFFCURVE",
"812 162 OFFCURVE",
"864 328 CURVE",
"1022 1072 LINE",
"1041 1237 OFFCURVE",
"940 1322 OFFCURVE",
"767 1322 CURVE SMOOTH",
"583 1322 OFFCURVE",
"440 1225 OFFCURVE",
"399 1030 CURVE SMOOTH",
"259 372 LINE SMOOTH"
);
}
);
width = 1524;
},
{
layerId = "EC4DDAD4-4840-4BAF-BE24-E50FF90D752F";
paths = (
{
closed = 1;
nodes = (
"704 56 LINE",
"668 0 OFFCURVE",
"554 -24 OFFCURVE",
"483 -24 CURVE SMOOTH",
"245 -24 OFFCURVE",
"95 110 OFFCURVE",
"150 368 CURVE SMOOTH",
"287 1010 LINE SMOOTH",
"345 1285 OFFCURVE",
"530 1428 OFFCURVE",
"794 1428 CURVE SMOOTH",
"868 1428 OFFCURVE",
"957 1395 OFFCURVE",
"979 1350 CURVE",
"989 1396 LINE",
"1657 1396 LINE",
"1610 1176 LINE",
"1162 1176 LINE",
"1088 826 LINE",
"1362 826 LINE",
"1253 616 LINE",
"1043 616 LINE",
"955 200 LINE",
"1399 200 LINE",
"1356 0 LINE",
"692 0 LINE"
);
},
{
closed = 1;
nodes = (
"351 279 OFFCURVE",
"397 200 OFFCURVE",
"535 200 CURVE SMOOTH",
"659 200 OFFCURVE",
"752 284 OFFCURVE",
"779 410 CURVE SMOOTH",
"891 936 LINE SMOOTH",
"927 1107 OFFCURVE",
"900 1190 OFFCURVE",
"745 1190 CURVE SMOOTH",
"598 1190 OFFCURVE",
"528 1111 OFFCURVE",
"491 938 CURVE SMOOTH",
"379 408 LINE SMOOTH"
);
}
);
width = 1430;
},
{
layerId = "350CE105-9128-4F96-9C2D-77D2DB4D6663";
paths = (
{
closed = 1;
nodes = (
"906 190 LINE",
"814 57 OFFCURVE",
"661 -22 OFFCURVE",
"481 -22 CURVE SMOOTH",
"248 -22 OFFCURVE",
"90 112 OFFCURVE",
"145 370 CURVE SMOOTH",
"281 1012 LINE SMOOTH",
"339 1284 OFFCURVE",
"530 1428 OFFCURVE",
"794 1428 CURVE SMOOTH",
"978 1428 OFFCURVE",
"1091 1347 OFFCURVE",
"1123 1208 CURVE",
"1163 1396 LINE",
"1829 1396 LINE",
"1821 1358 LINE",
"1191 1358 LINE",
"1077 822 LINE",
"1533 822 LINE",
"1511 786 LINE",
"1069 786 LINE",
"910 38 LINE",
"1536 38 LINE",
"1528 0 LINE",
"866 0 LINE"
);
},
{
closed = 1;
nodes = (
"137 154 OFFCURVE",
"277 16 OFFCURVE",
"489 16 CURVE SMOOTH",
"705 16 OFFCURVE",
"894 133 OFFCURVE",
"944 368 CURVE SMOOTH",
"1086 1034 LINE",
"1125 1255 OFFCURVE",
"1024 1386 OFFCURVE",
"779 1386 CURVE SMOOTH",
"528 1386 OFFCURVE",
"368 1241 OFFCURVE",
"319 1012 CURVE SMOOTH",
"182 368 LINE SMOOTH"
);
}
);
width = 1588;
}
);
leftKerningGroup = O;
rightKerningGroup = E;
unicode = 0152;
},
{
glyphname = P;
layers = (
{
layerId = master01;
paths = (
{
closed = 1;
nodes = (
"806 1396 OFFCURVE",
"948 1286 OFFCURVE",
"948 944 CURVE SMOOTH",
"948 613 OFFCURVE",
"817 488 OFFCURVE",
"552 488 CURVE SMOOTH",
"458 488 OFFCURVE",
"320 488 OFFCURVE",
"194 488 CURVE",
"194 0 LINE",
"82 0 LINE",
"82 1396 LINE",
"552 1396 LINE SMOOTH"
);
},
{
closed = 1;
nodes = (
"341 598 OFFCURVE",
"474 598 OFFCURVE",
"562 598 CURVE SMOOTH",
"713 598 OFFCURVE",
"836 639 OFFCURVE",
"836 944 CURVE SMOOTH",
"836 1227 OFFCURVE",
"718 1290 OFFCURVE",
"562 1290 CURVE SMOOTH",
"194 1290 LINE",
"194 598 LINE"
);
}
);
width = 1008;
},
{
layerId = "9D15C82E-7F80-48F0-B3D1-43822CDE4CEB";
paths = (
{
closed = 1;
nodes = (
"833 1396 OFFCURVE",
"948 1242 OFFCURVE",
"948 984 CURVE SMOOTH",
"948 707 OFFCURVE",
"835 560 OFFCURVE",
"566 560 CURVE SMOOTH",
"448 560 OFFCURVE",
"278 560 OFFCURVE",
"120 560 CURVE",
"120 0 LINE",
"82 0 LINE",
"82 1396 LINE",
"580 1396 LINE SMOOTH"
);
},
{
closed = 1;
nodes = (
"295 598 OFFCURVE",
"457 598 OFFCURVE",
"564 598 CURVE SMOOTH",
"807 598 OFFCURVE",
"910 734 OFFCURVE",
"910 984 CURVE SMOOTH",
"910 1219 OFFCURVE",
"813 1356 OFFCURVE",
"582 1356 CURVE SMOOTH",
"120 1356 LINE",
"120 598 LINE"
);
}
);
width = 1004;
},
{
layerId = "0D2E68F6-AD65-4FDC-99B3-7B414CE95F5B";
paths = (
{
closed = 1;
nodes = (
"726 1396 OFFCURVE",
"952 1297 OFFCURVE",
"952 902 CURVE SMOOTH",
"952 469 OFFCURVE",
"731 390 OFFCURVE",
"516 390 CURVE SMOOTH",
"509 390 OFFCURVE",
"299 390 OFFCURVE",
"302 390 CURVE",
"302 0 LINE",
"82 0 LINE",
"82 1396 LINE",
"516 1396 LINE SMOOTH"
);
},
{
closed = 1;
nodes = (
"297 600 OFFCURVE",
"431 600 OFFCURVE",
"434 600 CURVE",
"641 600 OFFCURVE",
"730 634 OFFCURVE",
"730 902 CURVE SMOOTH",
"730 1155 OFFCURVE",
"639 1176 OFFCURVE",
"434 1176 CURVE SMOOTH",
"302 1176 LINE",
"302 600 LINE"
);
}
);
width = 1014;
},
{
layerId = "BAA7A442-529C-4232-9150-0627B90683AA";
paths = (
{
closed = 1;
nodes = (
"1102 1396 OFFCURVE",
"1221 1286 OFFCURVE",
"1149 944 CURVE SMOOTH",
"1078 613 OFFCURVE",
"921 488 OFFCURVE",
"656 488 CURVE SMOOTH",
"561 488 OFFCURVE",
"424 488 OFFCURVE",
"298 488 CURVE",
"194 0 LINE",
"82 0 LINE",
"379 1396 LINE",
"849 1396 LINE SMOOTH"
);
},
{
closed = 1;
nodes = (
"468 598 OFFCURVE",
"601 598 OFFCURVE",
"689 598 CURVE SMOOTH",
"841 598 OFFCURVE",
"972 639 OFFCURVE",
"1037 944 CURVE SMOOTH",
"1097 1227 OFFCURVE",
"992 1290 OFFCURVE",
"836 1290 CURVE SMOOTH",
"468 1290 LINE",
"321 598 LINE"
);
}
);
width = 1008;
},
{
layerId = "EC4DDAD4-4840-4BAF-BE24-E50FF90D752F";
paths = (
{
closed = 1;
nodes = (
"1022 1396 OFFCURVE",
"1228 1297 OFFCURVE",
"1144 902 CURVE SMOOTH",
"1052 470 OFFCURVE",
"814 390 OFFCURVE",
"599 390 CURVE SMOOTH",
"592 390 OFFCURVE",
"382 390 OFFCURVE",
"385 390 CURVE",
"302 0 LINE",
"82 0 LINE",
"379 1396 LINE",
"813 1396 LINE SMOOTH"
);
},
{
closed = 1;
nodes = (
"424 600 OFFCURVE",
"558 600 OFFCURVE",
"562 600 CURVE",
"769 600 OFFCURVE",
"865 634 OFFCURVE",
"922 902 CURVE SMOOTH",
"975 1155 OFFCURVE",
"889 1176 OFFCURVE",
"684 1176 CURVE SMOOTH",
"552 1176 LINE",
"430 600 LINE"
);
}
);
width = 1014;
},
{
layerId = "350CE105-9128-4F96-9C2D-77D2DB4D6663";
paths = (
{
closed = 1;
nodes = (
"1110 1396 OFFCURVE",
"1212 1242 OFFCURVE",
"1157 984 CURVE SMOOTH",
"1098 707 OFFCURVE",
"954 560 OFFCURVE",
"685 560 CURVE SMOOTH",
"567 560 OFFCURVE",
"397 560 OFFCURVE",
"239 560 CURVE",
"120 0 LINE",
"82 0 LINE",
"379 1396 LINE",
"857 1396 LINE SMOOTH"
);
},
{
closed = 1;
nodes = (
"422 598 OFFCURVE",
"584 598 OFFCURVE",
"691 598 CURVE SMOOTH",
"934 598 OFFCURVE",
"1066 734 OFFCURVE",
"1119 984 CURVE SMOOTH",
"1169 1219 OFFCURVE",
"1082 1356 OFFCURVE",
"850 1356 CURVE SMOOTH",
"408 1356 LINE",
"247 598 LINE"
);
}
);
width = 1004;
}
);
leftKerningGroup = H;
rightKerningGroup = P;
unicode = 0050;
},
{
glyphname = Thorn;
layers = (
{
layerId = master01;
paths = (
{
closed = 1;
nodes = (
"800 383 OFFCURVE",
"715 281 OFFCURVE",
"576 236 CURVE SMOOTH",
"469 201 OFFCURVE",
"319 204 OFFCURVE",
"194 236 CURVE",
"194 0 LINE",
"82 0 LINE",
"82 1396 LINE",
"194 1396 LINE",
"194 1198 LINE",
"301 1243 OFFCURVE",
"425 1261 OFFCURVE",
"526 1240 CURVE SMOOTH",
"710 1200 OFFCURVE",
"800 1046 OFFCURVE",
"800 870 CURVE SMOOTH",
"800 578 LINE SMOOTH"
);
},
{
closed = 1;
nodes = (
"428 1162 OFFCURVE",
"283 1137 OFFCURVE",
"194 1094 CURVE",
"194 338 LINE",
"237 333 OFFCURVE",
"436 289 OFFCURVE",
"552 336 CURVE SMOOTH",
"656 376 OFFCURVE",
"692 469 OFFCURVE",
"692 602 CURVE SMOOTH",
"692 840 LINE SMOOTH",
"692 968 OFFCURVE",
"644 1102 OFFCURVE",
"506 1140 CURVE SMOOTH"
);
}
);
width = 860;
},
{
layerId = "9D15C82E-7F80-48F0-B3D1-43822CDE4CEB";
paths = (
{
closed = 1;
nodes = (
"736 383 OFFCURVE",
"647 281 OFFCURVE",
"514 236 CURVE",
"402 201 OFFCURVE",
"248 203 OFFCURVE",
"120 238 CURVE",
"120 0 LINE",
"82 0 LINE",
"82 1396 LINE",
"120 1396 LINE",
"120 1194 LINE",
"229 1242 OFFCURVE",
"355 1261 OFFCURVE",
"462 1240 CURVE SMOOTH",
"642 1202 OFFCURVE",
"736 1044 OFFCURVE",
"736 870 CURVE SMOOTH",
"736 578 LINE SMOOTH"
);
},
{
closed = 1;
nodes = (
"351 1223 OFFCURVE",
"231 1207 OFFCURVE",
"120 1148 CURVE",
"120 274 LINE",
"171 263 OFFCURVE",
"355 225 OFFCURVE",
"508 274 CURVE SMOOTH",
"652 322 OFFCURVE",
"698 430 OFFCURVE",
"698 582 CURVE SMOOTH",
"698 858 LINE SMOOTH",
"698 1026 OFFCURVE",
"622 1164 OFFCURVE",
"448 1204 CURVE SMOOTH"
);
}
);
width = 794;
},
{
layerId = "0D2E68F6-AD65-4FDC-99B3-7B414CE95F5B";
paths = (
{
closed = 1;
nodes = (
"868 385 OFFCURVE",
"783 281 OFFCURVE",
"642 236 CURVE SMOOTH",
"538 201 OFFCURVE",
"419 205 OFFCURVE",
"302 226 CURVE",
"302 0 LINE",
"82 0 LINE",
"82 1396 LINE",
"302 1396 LINE",
"302 1216 LINE",
"366 1237 OFFCURVE",
"431 1252 OFFCURVE",
"498 1252 CURVE SMOOTH",
"734 1252 OFFCURVE",
"868 1090 OFFCURVE",
"868 870 CURVE SMOOTH",
"868 580 LINE SMOOTH"
);
},
{
closed = 1;
nodes = (
"421 1064 OFFCURVE",
"352 1047 OFFCURVE",
"302 1028 CURVE",
"302 412 LINE",
"377 396 OFFCURVE",
"474 394 OFFCURVE",
"546 416 CURVE SMOOTH",
"626 440 OFFCURVE",
"652 498 OFFCURVE",
"652 580 CURVE SMOOTH",
"650 896 LINE SMOOTH",
"650 1000 OFFCURVE",
"580 1064 OFFCURVE",
"474 1064 CURVE SMOOTH"
);
}
);
width = 930;
},
{
layerId = "BAA7A442-529C-4232-9150-0627B90683AA";
paths = (
{
closed = 1;
nodes = (
"880 384 OFFCURVE",
"774 281 OFFCURVE",
"626 236 CURVE SMOOTH",
"512 201 OFFCURVE",
"363 204 OFFCURVE",
"244 236 CURVE",
"194 0 LINE",
"82 0 LINE",
"379 1396 LINE",
"491 1396 LINE",
"449 1198 LINE",
"565 1243 OFFCURVE",
"693 1261 OFFCURVE",
"790 1240 CURVE SMOOTH",
"974 1198 OFFCURVE",
"1018 1034 OFFCURVE",
"985 870 CURVE SMOOTH",
"923 578 LINE SMOOTH"
);
},
{
closed = 1;
nodes = (
"674 1162 OFFCURVE",
"524 1137 OFFCURVE",
"427 1094 CURVE",
"266 338 LINE",
"307 333 OFFCURVE",
"497 289 OFFCURVE",
"623 336 CURVE SMOOTH",
"736 376 OFFCURVE",
"792 469 OFFCURVE",
"820 602 CURVE SMOOTH",
"871 840 LINE SMOOTH",
"896 956 OFFCURVE",
"884 1100 OFFCURVE",
"748 1140 CURVE SMOOTH"
);
}
);
width = 860;
},
{
layerId = "EC4DDAD4-4840-4BAF-BE24-E50FF90D752F";
paths = (
{
closed = 1;
nodes = (
"952 386 OFFCURVE",
"843 281 OFFCURVE",
"692 236 CURVE SMOOTH",
"581 201 OFFCURVE",
"463 205 OFFCURVE",
"350 226 CURVE",
"302 0 LINE",
"82 0 LINE",
"379 1396 LINE",
"599 1396 LINE",
"560 1216 LINE",
"629 1237 OFFCURVE",
"697 1252 OFFCURVE",
"764 1252 CURVE SMOOTH",
"1006 1252 OFFCURVE",
"1096 1084 OFFCURVE",
"1053 870 CURVE SMOOTH",
"991 580 LINE SMOOTH"
);
},
{
closed = 1;
nodes = (
"647 1064 OFFCURVE",
"575 1047 OFFCURVE",
"521 1028 CURVE",
"390 412 LINE",
"461 396 OFFCURVE",
"557 394 OFFCURVE",
"634 416 CURVE SMOOTH",
"720 440 OFFCURVE",
"758 497 OFFCURVE",
"775 580 CURVE SMOOTH",
"840 896 LINE SMOOTH",
"862 998 OFFCURVE",
"808 1064 OFFCURVE",
"700 1064 CURVE SMOOTH"
);
}
);
width = 930;
},
{
layerId = "350CE105-9128-4F96-9C2D-77D2DB4D6663";
paths = (
{
closed = 1;
nodes = (
"816 384 OFFCURVE",
"707 281 OFFCURVE",
"564 236 CURVE",
"445 201 OFFCURVE",
"291 203 OFFCURVE",
"171 238 CURVE",
"120 0 LINE",
"82 0 LINE",
"379 1396 LINE",
"417 1396 LINE",
"374 1194 LINE",
"493 1242 OFFCURVE",
"623 1261 OFFCURVE",
"726 1240 CURVE SMOOTH",
"916 1198 OFFCURVE",
"954 1034 OFFCURVE",
"921 870 CURVE SMOOTH",
"859 578 LINE SMOOTH"
);
},
{
closed = 1;
nodes = (
"610 1224 OFFCURVE",
"487 1207 OFFCURVE",
"364 1148 CURVE",
"178 274 LINE",
"227 263 OFFCURVE",
"403 225 OFFCURVE",
"566 274 CURVE SMOOTH",
"720 322 OFFCURVE",
"789 430 OFFCURVE",
"822 582 CURVE SMOOTH",
"880 858 LINE SMOOTH",
"914 1014 OFFCURVE",
"880 1162 OFFCURVE",
"704 1204 CURVE SMOOTH"
);
}
);
width = 794;
}
);
leftKerningGroup = H;
rightKerningGroup = P;
unicode = 00DE;
},
{
glyphname = Q;
layers = (
{
components = (
{
name = O;
}
);
layerId = master01;
paths = (
{
closed = 1;
nodes = (
"540 -65 OFFCURVE",
"630 -122 OFFCURVE",
"790 -122 CURVE",
"778 -214 LINE",
"546 -214 OFFCURVE",
"428 -123 OFFCURVE",
"428 102 CURVE SMOOTH",
"428 346 LINE",
"540 346 LINE",
"540 100 LINE SMOOTH"
);
}
);
width = 980;
},
{
components = (
{
name = O;
}
);
layerId = "9D15C82E-7F80-48F0-B3D1-43822CDE4CEB";
paths = (
{
closed = 1;
nodes = (
"498 -79 OFFCURVE",
"590 -152 OFFCURVE",
"782 -152 CURVE",
"778 -192 LINE",
"562 -192 OFFCURVE",
"458 -103 OFFCURVE",
"458 86 CURVE SMOOTH",
"458 346 LINE",
"498 346 LINE",
"498 86 LINE SMOOTH"
);
}
);
width = 972;
},
{
components = (
{
name = O;
}
);
layerId = "0D2E68F6-AD65-4FDC-99B3-7B414CE95F5B";
paths = (
{
closed = 1;
nodes = (
"590 2 OFFCURVE",
"619 -44 OFFCURVE",
"808 -44 CURVE",
"780 -234 LINE",
"461 -234 OFFCURVE",
"394 -99 OFFCURVE",
"394 62 CURVE SMOOTH",
"394 346 LINE",
"590 346 LINE",
"590 90 LINE SMOOTH"
);
}
);
width = 986;
},
{
components = (
{
name = O;
}
);
layerId = "BAA7A442-529C-4232-9150-0627B90683AA";
paths = (
{
closed = 1;
nodes = (
"526 -65 OFFCURVE",
"604 -122 OFFCURVE",
"764 -122 CURVE",
"733 -214 LINE",
"500 -214 OFFCURVE",
"402 -123 OFFCURVE",
"450 102 CURVE SMOOTH",
"502 346 LINE",
"614 346 LINE",
"561 100 LINE SMOOTH"
);
}
);
width = 980;
},
{
components = (
{
name = O;
}
);
layerId = "EC4DDAD4-4840-4BAF-BE24-E50FF90D752F";
paths = (
{
closed = 1;
nodes = (
"590 2 OFFCURVE",
"609 -44 OFFCURVE",
"799 -44 CURVE",
"730 -234 LINE",
"411 -234 OFFCURVE",
"373 -99 OFFCURVE",
"407 62 CURVE SMOOTH",
"468 346 LINE",
"664 346 LINE",
"609 90 LINE SMOOTH"
);
}
);
width = 986;
},
{
components = (
{
name = O;
}
);
layerId = "350CE105-9128-4F96-9C2D-77D2DB4D6663";
paths = (
{
closed = 1;
nodes = (
"483 -79 OFFCURVE",
"548 -152 OFFCURVE",
"750 -152 CURVE",
"737 -192 LINE",
"521 -192 OFFCURVE",
"436 -103 OFFCURVE",
"476 86 CURVE SMOOTH",
"532 346 LINE",
"574 346 LINE",
"518 86 LINE SMOOTH"
);
}
);
width = 972;
}
);
leftKerningGroup = O;
rightKerningGroup = O;
unicode = 0051;
},
{
glyphname = R;
layers = (
{
layerId = master01;
paths = (
{
closed = 1;
nodes = (
"806 1396 OFFCURVE",
"948 1286 OFFCURVE",
"948 944 CURVE SMOOTH",
"948 717 OFFCURVE",
"889 589 OFFCURVE",
"764 528 CURVE",
"956 0 LINE",
"844 0 LINE",
"662 498 LINE",
"630 490 OFFCURVE",
"592 488 OFFCURVE",
"552 488 CURVE SMOOTH",
"194 488 LINE",
"194 0 LINE",
"82 0 LINE",
"82 1396 LINE",
"552 1396 LINE SMOOTH"
);
},
{
closed = 1;
nodes = (
"713 598 OFFCURVE",
"836 639 OFFCURVE",
"836 944 CURVE SMOOTH",
"836 1227 OFFCURVE",
"718 1290 OFFCURVE",
"562 1290 CURVE SMOOTH",
"194 1290 LINE",
"194 598 LINE",
"562 598 LINE SMOOTH"
);
}
);
width = 1016;
},
{
layerId = "9D15C82E-7F80-48F0-B3D1-43822CDE4CEB";
paths = (
{
closed = 1;
nodes = (
"833 1396 OFFCURVE",
"948 1242 OFFCURVE",
"948 984 CURVE SMOOTH",
"948 749 OFFCURVE",
"865 607 OFFCURVE",
"676 570 CURVE",
"948 0 LINE",
"908 0 LINE",
"638 566 LINE",
"614 563 OFFCURVE",
"590 560 OFFCURVE",
"566 560 CURVE SMOOTH",
"120 560 LINE",
"120 0 LINE",
"82 0 LINE",
"82 1396 LINE",
"580 1396 LINE SMOOTH"
);
},
{
closed = 1;
nodes = (
"807 598 OFFCURVE",
"910 734 OFFCURVE",
"910 984 CURVE SMOOTH",
"910 1219 OFFCURVE",
"813 1356 OFFCURVE",
"582 1356 CURVE SMOOTH",
"120 1356 LINE",
"120 598 LINE",
"564 598 LINE SMOOTH"
);
}
);
width = 1014;
},
{
layerId = "0D2E68F6-AD65-4FDC-99B3-7B414CE95F5B";
paths = (
{
closed = 1;
nodes = (
"726 1396 OFFCURVE",
"952 1297 OFFCURVE",
"952 902 CURVE SMOOTH",
"952 667 OFFCURVE",
"886 533 OFFCURVE",
"790 464 CURVE",
"960 0 LINE",
"726 0 LINE",
"588 392 LINE",
"564 389 OFFCURVE",
"540 390 OFFCURVE",
"516 390 CURVE SMOOTH",
"302 390 LINE",
"302 0 LINE",
"82 0 LINE",
"82 1396 LINE",
"516 1396 LINE SMOOTH"
);
},
{
closed = 1;
nodes = (
"641 600 OFFCURVE",
"730 634 OFFCURVE",
"730 902 CURVE SMOOTH",
"730 1155 OFFCURVE",
"639 1176 OFFCURVE",
"434 1176 CURVE SMOOTH",
"302 1176 LINE",
"302 600 LINE",
"434 600 LINE SMOOTH"
);
}
);
width = 1022;
},
{
layerId = "BAA7A442-529C-4232-9150-0627B90683AA";
paths = (
{
closed = 1;
nodes = (
"1103 1396 OFFCURVE",
"1221 1286 OFFCURVE",
"1149 944 CURVE SMOOTH",
"1101 717 OFFCURVE",
"1015 589 OFFCURVE",
"876 528 CURVE",
"956 0 LINE",
"844 0 LINE",
"768 498 LINE",
"734 490 OFFCURVE",
"696 488 OFFCURVE",
"656 488 CURVE SMOOTH",
"298 488 LINE",
"194 0 LINE",
"82 0 LINE",
"379 1396 LINE",
"849 1396 LINE SMOOTH"
);
},
{
closed = 1;
nodes = (
"840 598 OFFCURVE",
"972 639 OFFCURVE",
"1037 944 CURVE SMOOTH",
"1097 1227 OFFCURVE",
"992 1290 OFFCURVE",
"836 1290 CURVE SMOOTH",
"468 1290 LINE",
"321 598 LINE",
"689 598 LINE SMOOTH"
);
}
);
width = 1016;
},
{
layerId = "EC4DDAD4-4840-4BAF-BE24-E50FF90D752F";
paths = (
{
closed = 1;
nodes = (
"1022 1396 OFFCURVE",
"1228 1297 OFFCURVE",
"1144 902 CURVE SMOOTH",
"1094 667 OFFCURVE",
"999 533 OFFCURVE",
"889 464 CURVE",
"960 0 LINE",
"726 0 LINE",
"671 392 LINE",
"647 389 OFFCURVE",
"623 390 OFFCURVE",
"599 390 CURVE SMOOTH",
"385 390 LINE",
"302 0 LINE",
"82 0 LINE",
"379 1396 LINE",
"813 1396 LINE SMOOTH"
);
},
{
closed = 1;
nodes = (
"769 600 OFFCURVE",
"865 634 OFFCURVE",
"922 902 CURVE SMOOTH",
"976 1155 OFFCURVE",
"889 1176 OFFCURVE",
"684 1176 CURVE SMOOTH",
"552 1176 LINE",
"430 600 LINE",
"562 600 LINE SMOOTH"
);
}
);
width = 1022;
},
{
layerId = "350CE105-9128-4F96-9C2D-77D2DB4D6663";
paths = (
{
closed = 1;
nodes = (
"1130 1396 OFFCURVE",
"1212 1242 OFFCURVE",
"1157 984 CURVE SMOOTH",
"1107 749 OFFCURVE",
"994 607 OFFCURVE",
"797 570 CURVE",
"948 0 LINE",
"908 0 LINE",
"758 566 LINE",
"734 563 OFFCURVE",
"709 560 OFFCURVE",
"685 560 CURVE SMOOTH",
"239 560 LINE",
"120 0 LINE",
"82 0 LINE",
"379 1396 LINE",
"877 1396 LINE SMOOTH"
);
},
{
closed = 1;
nodes = (
"934 598 OFFCURVE",
"1066 734 OFFCURVE",
"1119 984 CURVE SMOOTH",
"1169 1219 OFFCURVE",
"1102 1356 OFFCURVE",
"870 1356 CURVE SMOOTH",
"408 1356 LINE",
"247 598 LINE",
"691 598 LINE SMOOTH"
);
}
);
width = 1014;
}
);
leftKerningGroup = H;
rightKerningGroup = R;
unicode = 0052;
},
{
glyphname = S;
layers = (
{
layerId = master01;
paths = (
{
closed = 1;
nodes = (
"756 1282 OFFCURVE",
"662 1306 OFFCURVE",
"568 1306 CURVE SMOOTH",
"424 1306 OFFCURVE",
"236 1260 OFFCURVE",
"236 1082 CURVE SMOOTH",
"236 738 OFFCURVE",
"996 850 OFFCURVE",
"996 358 CURVE SMOOTH",
"996 92 OFFCURVE",
"760 -24 OFFCURVE",
"524 -24 CURVE SMOOTH",
"336 -24 OFFCURVE",
"174 40 OFFCURVE",
"50 184 CURVE",
"120 254 LINE",
"204 142 OFFCURVE",
"380 84 OFFCURVE",
"516 84 CURVE SMOOTH",
"704 84 OFFCURVE",
"876 162 OFFCURVE",
"876 374 CURVE SMOOTH",
"876 736 OFFCURVE",
"120 654 OFFCURVE",
"120 1072 CURVE SMOOTH",
"120 1324 OFFCURVE",
"350 1414 OFFCURVE",
"566 1414 CURVE SMOOTH",
"672 1414 OFFCURVE",
"778 1390 OFFCURVE",
"872 1340 CURVE",
"838 1236 LINE"
);
}
);
width = 1056;
},
{
layerId = "9D15C82E-7F80-48F0-B3D1-43822CDE4CEB";
paths = (
{
closed = 1;
nodes = (
"768 1356 OFFCURVE",
"648 1382 OFFCURVE",
"546 1382 CURVE SMOOTH",
"372 1382 OFFCURVE",
"154 1298 OFFCURVE",
"154 1094 CURVE SMOOTH",
"154 690 OFFCURVE",
"990 830 OFFCURVE",
"990 334 CURVE SMOOTH",
"990 78 OFFCURVE",
"744 -24 OFFCURVE",
"522 -24 CURVE SMOOTH",
"340 -24 OFFCURVE",
"148 44 OFFCURVE",
"42 198 CURVE",
"68 218 LINE",
"176 78 OFFCURVE",
"348 14 OFFCURVE",
"520 14 CURVE SMOOTH",
"724 14 OFFCURVE",
"952 100 OFFCURVE",
"952 338 CURVE SMOOTH",
"952 796 OFFCURVE",
"116 658 OFFCURVE",
"116 1094 CURVE SMOOTH",
"116 1326 OFFCURVE",
"354 1416 OFFCURVE",
"552 1416 CURVE SMOOTH",
"662 1416 OFFCURVE",
"772 1390 OFFCURVE",
"868 1340 CURVE",
"854 1302 LINE"
);
}
);
width = 1046;
},
{
layerId = "0D2E68F6-AD65-4FDC-99B3-7B414CE95F5B";
paths = (
{
closed = 1;
nodes = (
"754 1186 OFFCURVE",
"666 1212 OFFCURVE",
"576 1212 CURVE SMOOTH",
"490 1212 OFFCURVE",
"350 1180 OFFCURVE",
"350 1070 CURVE SMOOTH",
"350 846 OFFCURVE",
"1030 856 OFFCURVE",
"1030 396 CURVE SMOOTH",
"1030 100 OFFCURVE",
"794 -24 OFFCURVE",
"528 -24 CURVE SMOOTH",
"356 -24 OFFCURVE",
"180 44 OFFCURVE",
"66 176 CURVE",
"188 324 LINE",
"276 232 OFFCURVE",
"406 184 OFFCURVE",
"532 184 CURVE SMOOTH",
"660 184 OFFCURVE",
"792 250 OFFCURVE",
"792 394 CURVE SMOOTH",
"792 682 OFFCURVE",
"124 652 OFFCURVE",
"124 1068 CURVE SMOOTH",
"124 1322 OFFCURVE",
"360 1416 OFFCURVE",
"580 1416 CURVE SMOOTH",
"690 1416 OFFCURVE",
"802 1394 OFFCURVE",
"900 1342 CURVE",
"834 1148 LINE"
);
}
);
width = 1088;
},
{
layerId = "BAA7A442-529C-4232-9150-0627B90683AA";
paths = (
{
closed = 1;
nodes = (
"1029 1282 OFFCURVE",
"940 1306 OFFCURVE",
"846 1306 CURVE SMOOTH",
"712 1306 OFFCURVE",
"505 1266 OFFCURVE",
"469 1094 CURVE SMOOTH",
"390 724 OFFCURVE",
"1178 858 OFFCURVE",
"1072 358 CURVE SMOOTH",
"1016 92 OFFCURVE",
"755 -24 OFFCURVE",
"519 -24 CURVE SMOOTH",
"333 -24 OFFCURVE",
"181 42 OFFCURVE",
"89 184 CURVE",
"174 254 LINE",
"234 142 OFFCURVE",
"398 84 OFFCURVE",
"534 84 CURVE SMOOTH",
"722 84 OFFCURVE",
"910 162 OFFCURVE",
"956 374 CURVE SMOOTH",
"1033 740 OFFCURVE",
"255 644 OFFCURVE",
"351 1094 CURVE SMOOTH",
"403 1340 OFFCURVE",
"663 1414 OFFCURVE",
"867 1414 CURVE SMOOTH",
"973 1414 OFFCURVE",
"1074 1390 OFFCURVE",
"1157 1340 CURVE",
"1101 1236 LINE"
);
}
);
width = 1056;
},
{
layerId = "EC4DDAD4-4840-4BAF-BE24-E50FF90D752F";
paths = (
{
closed = 1;
nodes = (
"1006 1186 OFFCURVE",
"924 1212 OFFCURVE",
"834 1212 CURVE SMOOTH",
"746 1212 OFFCURVE",
"601 1180 OFFCURVE",
"577 1070 CURVE SMOOTH",
"527 832 OFFCURVE",
"1215 868 OFFCURVE",
"1114 396 CURVE SMOOTH",
"1052 102 OFFCURVE",
"801 -24 OFFCURVE",
"533 -24 CURVE SMOOTH",
"359 -24 OFFCURVE",
"191 50 OFFCURVE",
"100 178 CURVE",
"244 318 LINE",
"318 226 OFFCURVE",
"441 184 OFFCURVE",
"571 184 CURVE SMOOTH",
"701 184 OFFCURVE",
"843 258 OFFCURVE",
"873 400 CURVE SMOOTH",
"935 692 OFFCURVE",
"259 634 OFFCURVE",
"355 1086 CURVE SMOOTH",
"408 1334 OFFCURVE",
"661 1416 OFFCURVE",
"871 1416 CURVE SMOOTH",
"983 1416 OFFCURVE",
"1097 1396 OFFCURVE",
"1185 1342 CURVE",
"1078 1148 LINE"
);
}
);
width = 1088;
},
{
layerId = "350CE105-9128-4F96-9C2D-77D2DB4D6663";
paths = (
{
closed = 1;
nodes = (
"1058 1356 OFFCURVE",
"946 1382 OFFCURVE",
"848 1382 CURVE SMOOTH",
"674 1382 OFFCURVE",
"432 1308 OFFCURVE",
"388 1100 CURVE SMOOTH",
"302 696 OFFCURVE",
"1163 814 OFFCURVE",
"1064 346 CURVE SMOOTH",
"1007 78 OFFCURVE",
"741 -24 OFFCURVE",
"509 -24 CURVE SMOOTH",
"331 -24 OFFCURVE",
"156 46 OFFCURVE",
"84 198 CURVE",
"114 218 LINE",
"191 80 OFFCURVE",
"347 14 OFFCURVE",
"517 14 CURVE SMOOTH",
"723 14 OFFCURVE",
"974 102 OFFCURVE",
"1025 344 CURVE SMOOTH",
"1119 786 OFFCURVE",
"254 660 OFFCURVE",
"348 1102 CURVE SMOOTH",
"398 1338 OFFCURVE",
"657 1416 OFFCURVE",
"853 1416 CURVE SMOOTH",
"963 1416 OFFCURVE",
"1068 1390 OFFCURVE",
"1153 1340 CURVE",
"1131 1302 LINE"
);
}
);
width = 1046;
}
);
leftKerningGroup = S;
rightKerningGroup = S;
unicode = 0053;
userData = {
com.typemytype.robofont.guides = (
{
angle = 90;
isGlobal = 0;
magnetic = 5;
x = 56;
y = 0;
},
{
angle = 0;
isGlobal = 0;
magnetic = 5;
x = 0;
y = 586;
}
);
};
},
{
glyphname = T;
layers = (
{
layerId = master01;
paths = (
{
closed = 1;
nodes = (
"464 0 LINE",
"354 0 LINE",
"354 1296 LINE",
"14 1296 LINE",
"14 1396 LINE",
"816 1396 LINE",
"816 1296 LINE",
"464 1296 LINE"
);
}
);
width = 832;
},
{
layerId = "9D15C82E-7F80-48F0-B3D1-43822CDE4CEB";
paths = (
{
closed = 1;
nodes = (
"420 0 LINE",
"384 0 LINE",
"384 1356 LINE",
"4 1356 LINE",
"4 1396 LINE",
"808 1396 LINE",
"808 1356 LINE",
"420 1356 LINE"
);
}
);
width = 816;
},
{
layerId = "0D2E68F6-AD65-4FDC-99B3-7B414CE95F5B";
paths = (
{
closed = 1;
nodes = (
"536 0 LINE",
"316 0 LINE",
"316 1174 LINE",
"26 1174 LINE",
"26 1396 LINE",
"832 1396 LINE",
"832 1174 LINE",
"536 1174 LINE"
);
}
);
width = 862;
},
{
layerId = "BAA7A442-529C-4232-9150-0627B90683AA";
paths = (
{
closed = 1;
nodes = (
"464 0 LINE",
"354 0 LINE",
"630 1296 LINE",
"290 1296 LINE",
"311 1396 LINE",
"1113 1396 LINE",
"1092 1296 LINE",
"740 1296 LINE"
);
}
);
width = 832;
},
{
layerId = "EC4DDAD4-4840-4BAF-BE24-E50FF90D752F";
paths = (
{
closed = 1;
nodes = (
"536 0 LINE",
"316 0 LINE",
"566 1174 LINE",
"276 1174 LINE",
"323 1396 LINE",
"1129 1396 LINE",
"1082 1174 LINE",
"786 1174 LINE"
);
}
);
width = 862;
},
{
layerId = "350CE105-9128-4F96-9C2D-77D2DB4D6663";
paths = (
{
closed = 1;
nodes = (
"420 0 LINE",
"384 0 LINE",
"670 1356 LINE",
"292 1356 LINE",
"301 1396 LINE",
"1105 1396 LINE",
"1096 1356 LINE",
"708 1356 LINE"
);
}
);
width = 816;
}
);
leftKerningGroup = T;
rightKerningGroup = T;
unicode = 0054;
},
{
glyphname = Tbar;
layers = (
{
layerId = master01;
paths = (
{
closed = 1;
nodes = (
"856 756 LINE",
"856 644 LINE",
"58 644 LINE",
"58 756 LINE"
);
},
{
closed = 1;
nodes = (
"508 0 LINE",
"398 0 LINE",
"398 1296 LINE",
"58 1296 LINE",
"58 1396 LINE",
"860 1396 LINE",
"860 1296 LINE",
"508 1296 LINE"
);
}
);
width = 926;
},
{
layerId = "9D15C82E-7F80-48F0-B3D1-43822CDE4CEB";
paths = (
{
closed = 1;
nodes = (
"850 756 LINE",
"850 718 LINE",
"50 718 LINE",
"50 756 LINE"
);
},
{
closed = 1;
nodes = (
"466 0 LINE",
"430 0 LINE",
"428 1356 LINE",
"50 1356 LINE",
"50 1396 LINE",
"854 1396 LINE",
"854 1356 LINE",
"466 1356 LINE"
);
}
);
width = 914;
},
{
layerId = "0D2E68F6-AD65-4FDC-99B3-7B414CE95F5B";
paths = (
{
closed = 1;
nodes = (
"866 826 LINE",
"866 646 LINE",
"64 646 LINE",
"64 826 LINE"
);
},
{
closed = 1;
nodes = (
"570 0 LINE",
"350 0 LINE",
"350 1174 LINE",
"60 1174 LINE",
"60 1396 LINE",
"866 1396 LINE",
"866 1174 LINE",
"570 1174 LINE"
);
}
);
width = 940;
},
{
layerId = "BAA7A442-529C-4232-9150-0627B90683AA";
paths = (
{
closed = 1;
nodes = (
"1017 756 LINE",
"993 644 LINE",
"195 644 LINE",
"219 756 LINE"
);
},
{
closed = 1;
nodes = (
"508 0 LINE",
"398 0 LINE",
"673 1296 LINE",
"333 1296 LINE",
"355 1396 LINE",
"1157 1396 LINE",
"1135 1296 LINE",
"783 1296 LINE"
);
}
);
width = 926;
},
{
layerId = "EC4DDAD4-4840-4BAF-BE24-E50FF90D752F";
paths = (
{
closed = 1;
nodes = (
"1042 826 LINE",
"1003 646 LINE",
"201 646 LINE",
"240 826 LINE"
);
},
{
closed = 1;
nodes = (
"570 0 LINE",
"350 0 LINE",
"600 1174 LINE",
"310 1174 LINE",
"357 1396 LINE",
"1163 1396 LINE",
"1116 1174 LINE",
"820 1174 LINE"
);
}
);
width = 940;
},
{
layerId = "350CE105-9128-4F96-9C2D-77D2DB4D6663";
paths = (
{
closed = 1;
nodes = (
"1011 756 LINE",
"1003 718 LINE",
"203 718 LINE",
"211 756 LINE"
);
},
{
closed = 1;
nodes = (
"466 0 LINE",
"430 0 LINE",
"716 1356 LINE",
"338 1356 LINE",
"347 1396 LINE",
"1151 1396 LINE",
"1142 1356 LINE",
"754 1356 LINE"
);
}
);
width = 914;
}
);
leftKerningGroup = T;
rightKerningGroup = T;
unicode = 0166;
},
{
glyphname = U;
layers = (
{
layerId = master01;
paths = (
{
closed = 1;
nodes = (
"912 235 OFFCURVE",
"871 136 OFFCURVE",
"788 72 CURVE SMOOTH",
"708 9 OFFCURVE",
"611 -22 OFFCURVE",
"496 -22 CURVE SMOOTH",
"380 -22 OFFCURVE",
"281 9 OFFCURVE",
"198 72 CURVE",
"117 137 OFFCURVE",
"76 237 OFFCURVE",
"76 370 CURVE SMOOTH",
"76 1396 LINE",
"186 1396 LINE",
"186 372 LINE SMOOTH",
"186 272 OFFCURVE",
"218 197 OFFCURVE",
"282 148 CURVE SMOOTH",
"335 105 OFFCURVE",
"406 84 OFFCURVE",
"494 84 CURVE SMOOTH",
"590 84 OFFCURVE",
"671 109 OFFCURVE",
"724 162 CURVE SMOOTH",
"772 213 OFFCURVE",
"802 281 OFFCURVE",
"802 372 CURVE SMOOTH",
"802 1396 LINE",
"912 1396 LINE",
"912 370 LINE SMOOTH"
);
}
);
width = 992;
},
{
layerId = "9D15C82E-7F80-48F0-B3D1-43822CDE4CEB";
paths = (
{
closed = 1;
nodes = (
"912 235 OFFCURVE",
"871 136 OFFCURVE",
"788 72 CURVE SMOOTH",
"708 9 OFFCURVE",
"611 -22 OFFCURVE",
"496 -22 CURVE SMOOTH",
"380 -22 OFFCURVE",
"281 9 OFFCURVE",
"198 72 CURVE SMOOTH",
"117 136 OFFCURVE",
"76 235 OFFCURVE",
"76 370 CURVE SMOOTH",
"76 1396 LINE",
"112 1396 LINE",
"112 368 LINE SMOOTH",
"112 251 OFFCURVE",
"149 163 OFFCURVE",
"224 104 CURVE SMOOTH",
"299 45 OFFCURVE",
"389 16 OFFCURVE",
"496 16 CURVE SMOOTH",
"600 16 OFFCURVE",
"692 44 OFFCURVE",
"764 100 CURVE SMOOTH",
"839 156 OFFCURVE",
"874 245 OFFCURVE",
"874 368 CURVE SMOOTH",
"874 1396 LINE",
"912 1396 LINE",
"912 370 LINE SMOOTH"
);
}
);
width = 992;
},
{
layerId = "0D2E68F6-AD65-4FDC-99B3-7B414CE95F5B";
paths = (
{
closed = 1;
nodes = (
"918 235 OFFCURVE",
"877 136 OFFCURVE",
"794 72 CURVE SMOOTH",
"713 9 OFFCURVE",
"615 -22 OFFCURVE",
"500 -22 CURVE SMOOTH",
"387 -22 OFFCURVE",
"287 9 OFFCURVE",
"202 72 CURVE",
"119 139 OFFCURVE",
"78 238 OFFCURVE",
"78 370 CURVE SMOOTH",
"78 1396 LINE",
"298 1396 LINE",
"298 408 LINE SMOOTH",
"298 335 OFFCURVE",
"319 280 OFFCURVE",
"362 244 CURVE SMOOTH",
"393 216 OFFCURVE",
"438 202 OFFCURVE",
"498 202 CURVE SMOOTH",
"557 202 OFFCURVE",
"603 219 OFFCURVE",
"638 254 CURVE SMOOTH",
"675 289 OFFCURVE",
"698 345 OFFCURVE",
"698 412 CURVE SMOOTH",
"698 1396 LINE",
"918 1396 LINE",
"918 370 LINE SMOOTH"
);
}
);
width = 998;
},
{
layerId = "BAA7A442-529C-4232-9150-0627B90683AA";
paths = (
{
closed = 1;
nodes = (
"962 235 OFFCURVE",
"900 136 OFFCURVE",
"803 72 CURVE SMOOTH",
"710 9 OFFCURVE",
"606 -22 OFFCURVE",
"491 -22 CURVE SMOOTH",
"375 -22 OFFCURVE",
"283 9 OFFCURVE",
"213 72 CURVE",
"146 137 OFFCURVE",
"126 237 OFFCURVE",
"155 370 CURVE SMOOTH",
"373 1396 LINE",
"483 1396 LINE",
"265 372 LINE SMOOTH",
"244 272 OFFCURVE",
"260 197 OFFCURVE",
"313 148 CURVE SMOOTH",
"358 105 OFFCURVE",
"424 84 OFFCURVE",
"512 84 CURVE SMOOTH",
"608 84 OFFCURVE",
"694 109 OFFCURVE",
"758 162 CURVE SMOOTH",
"817 213 OFFCURVE",
"862 281 OFFCURVE",
"881 372 CURVE SMOOTH",
"1099 1396 LINE",
"1209 1396 LINE",
"991 370 LINE SMOOTH"
);
}
);
width = 992;
},
{
layerId = "EC4DDAD4-4840-4BAF-BE24-E50FF90D752F";
paths = (
{
closed = 1;
nodes = (
"968 235 OFFCURVE",
"906 136 OFFCURVE",
"809 72 CURVE SMOOTH",
"715 9 OFFCURVE",
"610 -22 OFFCURVE",
"495 -22 CURVE SMOOTH",
"382 -22 OFFCURVE",
"289 9 OFFCURVE",
"217 72 CURVE",
"149 139 OFFCURVE",
"129 238 OFFCURVE",
"157 370 CURVE SMOOTH",
"375 1396 LINE",
"595 1396 LINE",
"385 408 LINE SMOOTH",
"369 335 OFFCURVE",
"379 280 OFFCURVE",
"414 244 CURVE SMOOTH",
"439 216 OFFCURVE",
"481 202 OFFCURVE",
"541 202 CURVE SMOOTH",
"600 202 OFFCURVE",
"650 219 OFFCURVE",
"692 254 CURVE SMOOTH",
"737 289 OFFCURVE",
"771 345 OFFCURVE",
"786 412 CURVE SMOOTH",
"995 1396 LINE",
"1215 1396 LINE",
"997 370 LINE SMOOTH"
);
}
);
width = 998;
},
{
layerId = "350CE105-9128-4F96-9C2D-77D2DB4D6663";
paths = (
{
closed = 1;
nodes = (
"962 235 OFFCURVE",
"900 136 OFFCURVE",
"803 72 CURVE SMOOTH",
"710 9 OFFCURVE",
"606 -22 OFFCURVE",
"491 -22 CURVE SMOOTH",
"375 -22 OFFCURVE",
"283 9 OFFCURVE",
"213 72 CURVE SMOOTH",
"146 136 OFFCURVE",
"126 235 OFFCURVE",
"155 370 CURVE SMOOTH",
"373 1396 LINE",
"409 1396 LINE",
"190 368 LINE SMOOTH",
"165 251 OFFCURVE",
"184 163 OFFCURVE",
"246 104 CURVE SMOOTH",
"308 45 OFFCURVE",
"393 16 OFFCURVE",
"499 16 CURVE SMOOTH",
"603 16 OFFCURVE",
"701 44 OFFCURVE",
"785 100 CURVE SMOOTH",
"872 156 OFFCURVE",
"926 245 OFFCURVE",
"952 368 CURVE SMOOTH",
"1171 1396 LINE",
"1209 1396 LINE",
"991 370 LINE SMOOTH"
);
}
);
width = 992;
}
);
leftKerningGroup = U;
rightKerningGroup = U;
unicode = 0055;
},
{
glyphname = V;
layers = (
{
layerId = master01;
paths = (
{
closed = 1;
nodes = (
"150 1396 LINE",
"506 138 LINE",
"864 1396 LINE",
"982 1396 LINE",
"584 0 LINE",
"430 0 LINE",
"30 1396 LINE"
);
}
);
width = 1018;
},
{
layerId = "9D15C82E-7F80-48F0-B3D1-43822CDE4CEB";
paths = (
{
closed = 1;
nodes = (
"64 1396 LINE",
"504 52 LINE",
"942 1396 LINE",
"980 1396 LINE",
"528 0 LINE",
"484 0 LINE",
"26 1396 LINE"
);
}
);
width = 1012;
},
{
layerId = "0D2E68F6-AD65-4FDC-99B3-7B414CE95F5B";
paths = (
{
closed = 1;
nodes = (
"282 1396 LINE",
"512 432 LINE",
"736 1396 LINE",
"990 1396 LINE",
"640 0 LINE",
"384 0 LINE",
"34 1396 LINE"
);
}
);
width = 1028;
},
{
layerId = "BAA7A442-529C-4232-9150-0627B90683AA";
paths = (
{
closed = 1;
nodes = (
"447 1396 LINE",
"535 138 LINE",
"1161 1396 LINE",
"1279 1396 LINE",
"584 0 LINE",
"430 0 LINE",
"327 1396 LINE"
);
}
);
width = 1018;
},
{
layerId = "EC4DDAD4-4840-4BAF-BE24-E50FF90D752F";
paths = (
{
closed = 1;
nodes = (
"579 1396 LINE",
"604 432 LINE",
"1033 1396 LINE",
"1287 1396 LINE",
"640 0 LINE",
"384 0 LINE",
"331 1396 LINE"
);
}
);
width = 1028;
},
{
layerId = "350CE105-9128-4F96-9C2D-77D2DB4D6663";
paths = (
{
closed = 1;
nodes = (
"361 1396 LINE",
"515 52 LINE",
"1239 1396 LINE",
"1277 1396 LINE",
"528 0 LINE",
"484 0 LINE",
"323 1396 LINE"
);
}
);
width = 1012;
}
);
leftKerningGroup = V;
rightKerningGroup = V;
unicode = 0056;
},
{
glyphname = W;
layers = (
{
layerId = master01;
paths = (
{
closed = 1;
nodes = (
"1022 138 LINE",
"1304 1396 LINE",
"1422 1396 LINE",
"1096 0 LINE",
"928 0 LINE",
"732 1194 LINE",
"534 0 LINE",
"364 0 LINE",
"34 1396 LINE",
"156 1396 LINE",
"438 138 LINE",
"652 1396 LINE",
"808 1396 LINE"
);
}
);
width = 1462;
},
{
layerId = "9D15C82E-7F80-48F0-B3D1-43822CDE4CEB";
paths = (
{
closed = 1;
nodes = (
"1038 70 LINE",
"1374 1396 LINE",
"1418 1396 LINE",
"1058 0 LINE",
"1016 0 LINE",
"726 1302 LINE",
"436 0 LINE",
"394 0 LINE",
"30 1396 LINE",
"72 1396 LINE",
"414 72 LINE",
"704 1396 LINE",
"746 1396 LINE"
);
}
);
width = 1454;
},
{
layerId = "0D2E68F6-AD65-4FDC-99B3-7B414CE95F5B";
paths = (
{
closed = 1;
nodes = (
"1030 504 LINE",
"1180 1396 LINE",
"1434 1396 LINE",
"1164 0 LINE",
"916 0 LINE",
"738 706 LINE",
"564 0 LINE",
"308 0 LINE",
"40 1396 LINE",
"282 1396 LINE",
"448 504 LINE",
"660 1396 LINE",
"818 1396 LINE"
);
}
);
width = 1480;
},
{
layerId = "BAA7A442-529C-4232-9150-0627B90683AA";
paths = (
{
closed = 1;
nodes = (
"1068 184 LINE",
"1600 1396 LINE",
"1718 1396 LINE",
"1096 0 LINE",
"956 0 LINE",
"956 1148 LINE",
"514 0 LINE",
"348 0 LINE",
"348 1396 LINE",
"460 1396 LINE",
"460 138 LINE",
"928 1396 LINE",
"1068 1396 LINE"
);
}
);
width = 1462;
},
{
layerId = "EC4DDAD4-4840-4BAF-BE24-E50FF90D752F";
paths = (
{
closed = 1;
nodes = (
"1118 504 LINE",
"1476 1396 LINE",
"1730 1396 LINE",
"1164 0 LINE",
"916 0 LINE",
"888 706 LINE",
"564 0 LINE",
"304 0 LINE",
"304 1396 LINE",
"552 1396 LINE",
"552 484 LINE",
"956 1396 LINE",
"1118 1396 LINE"
);
}
);
width = 1480;
},
{
layerId = "350CE105-9128-4F96-9C2D-77D2DB4D6663";
paths = (
{
closed = 1;
nodes = (
"1048 70 LINE",
"1671 1396 LINE",
"1715 1396 LINE",
"1058 0 LINE",
"1009 0 LINE",
"1010 1310 LINE",
"436 0 LINE",
"394 0 LINE",
"327 1396 LINE",
"369 1396 LINE",
"430 84 LINE",
"1001 1396 LINE",
"1048 1396 LINE"
);
}
);
width = 1454;
}
);
leftKerningGroup = V;
rightKerningGroup = V;
unicode = 0057;
userData = {
com.typemytype.robofont.guides = (
{
angle = 102;
isGlobal = 0;
magnetic = 5;
x = 128;
y = 0;
}
);
};
},
{
glyphname = Y_upper_alt;
layers = (
{
layerId = master01;
paths = (
{
closed = 1;
nodes = (
"538 0 LINE",
"426 0 LINE",
"426 678 LINE",
"12 1396 LINE",
"138 1396 LINE",
"480 810 LINE",
"826 1396 LINE",
"954 1396 LINE",
"538 682 LINE"
);
}
);
width = 970;
},
{
layerId = "9D15C82E-7F80-48F0-B3D1-43822CDE4CEB";
paths = (
{
closed = 1;
nodes = (
"496 0 LINE",
"460 0 LINE",
"460 682 LINE",
"10 1396 LINE",
"56 1396 LINE",
"478 722 LINE",
"904 1396 LINE",
"950 1396 LINE",
"496 682 LINE"
);
}
);
width = 964;
},
{
layerId = "0D2E68F6-AD65-4FDC-99B3-7B414CE95F5B";
paths = (
{
closed = 1;
nodes = (
"602 0 LINE",
"378 0 LINE",
"378 630 LINE",
"20 1396 LINE",
"252 1396 LINE",
"490 866 LINE",
"728 1396 LINE",
"962 1396 LINE",
"602 630 LINE"
);
}
);
width = 986;
},
{
layerId = "BAA7A442-529C-4232-9150-0627B90683AA";
paths = (
{
closed = 1;
nodes = (
"538 0 LINE",
"426 0 LINE",
"570 678 LINE",
"309 1396 LINE",
"435 1396 LINE",
"652 810 LINE",
"1123 1396 LINE",
"1251 1396 LINE",
"683 682 LINE"
);
}
);
width = 970;
},
{
layerId = "EC4DDAD4-4840-4BAF-BE24-E50FF90D752F";
paths = (
{
closed = 1;
nodes = (
"602 0 LINE",
"378 0 LINE",
"512 630 LINE",
"317 1396 LINE",
"549 1396 LINE",
"674 866 LINE",
"1025 1396 LINE",
"1259 1396 LINE",
"736 630 LINE"
);
}
);
width = 986;
},
{
layerId = "350CE105-9128-4F96-9C2D-77D2DB4D6663";
paths = (
{
closed = 1;
nodes = (
"496 0 LINE",
"460 0 LINE",
"605 682 LINE",
"307 1396 LINE",
"353 1396 LINE",
"631 722 LINE",
"1201 1396 LINE",
"1247 1396 LINE",
"641 682 LINE"
);
}
);
width = 964;
}
);
leftKerningGroup = Y2;
rightKerningGroup = Y2;
unicode = 9997;
},
{
glyphname = Z;
layers = (
{
layerId = master01;
paths = (
{
closed = 1;
nodes = (
"1018 1296 LINE",
"198 102 LINE",
"1028 102 LINE",
"1028 0 LINE",
"58 0 LINE",
"58 100 LINE",
"874 1294 LINE",
"82 1294 LINE",
"82 1396 LINE",
"1018 1396 LINE"
);
}
);
width = 1090;
},
{
layerId = "9D15C82E-7F80-48F0-B3D1-43822CDE4CEB";
paths = (
{
closed = 1;
nodes = (
"1012 1358 LINE",
"100 38 LINE",
"1024 38 LINE",
"1024 0 LINE",
"54 0 LINE",
"54 38 LINE",
"964 1358 LINE",
"80 1358 LINE",
"78 1396 LINE",
"1012 1396 LINE"
);
}
);
width = 1078;
},
{
layerId = "0D2E68F6-AD65-4FDC-99B3-7B414CE95F5B";
paths = (
{
closed = 1;
nodes = (
"1028 1176 LINE",
"340 210 LINE",
"1040 210 LINE",
"1040 0 LINE",
"64 0 LINE",
"64 202 LINE",
"750 1176 LINE",
"92 1176 LINE",
"92 1396 LINE",
"1028 1396 LINE"
);
}
);
width = 1112;
},
{
layerId = "BAA7A442-529C-4232-9150-0627B90683AA";
paths = (
{
closed = 1;
nodes = (
"1293 1296 LINE",
"220 102 LINE",
"1050 102 LINE",
"1028 0 LINE",
"58 0 LINE",
"79 100 LINE",
"1149 1294 LINE",
"357 1294 LINE",
"379 1396 LINE",
"1315 1396 LINE"
);
}
);
width = 1090;
},
{
layerId = "EC4DDAD4-4840-4BAF-BE24-E50FF90D752F";
paths = (
{
closed = 1;
nodes = (
"1278 1176 LINE",
"385 210 LINE",
"1085 210 LINE",
"1040 0 LINE",
"64 0 LINE",
"107 202 LINE",
"1000 1176 LINE",
"342 1176 LINE",
"389 1396 LINE",
"1325 1396 LINE"
);
}
);
width = 1112;
},
{
layerId = "350CE105-9128-4F96-9C2D-77D2DB4D6663";
paths = (
{
closed = 1;
nodes = (
"1301 1358 LINE",
"108 38 LINE",
"1032 38 LINE",
"1024 0 LINE",
"54 0 LINE",
"62 38 LINE",
"1253 1358 LINE",
"369 1358 LINE",
"375 1396 LINE",
"1309 1396 LINE"
);
}
);
width = 1078;
}
);
leftKerningGroup = Z;
rightKerningGroup = Z;
unicode = 005A;
},
{
glyphname = a;
layers = (
{
layerId = master01;
paths = (
{
closed = 1;
nodes = (
"708 807 OFFCURVE",
"667 863 OFFCURVE",
"592 898 CURVE SMOOTH",
"541 922 OFFCURVE",
"475 928 OFFCURVE",
"400 928 CURVE",
"404 1014 LINE",
"497 1014 OFFCURVE",
"595 1008 OFFCURVE",
"678 960 CURVE SMOOTH",
"815 881 OFFCURVE",
"820 716 OFFCURVE",
"820 574 CURVE SMOOTH",
"820 0 LINE",
"824 0 OFFCURVE",
"601 -18 OFFCURVE",
"504 -20 CURVE SMOOTH",
"249 -28 OFFCURVE",
"52 42 OFFCURVE",
"52 336 CURVE SMOOTH",
"52 502 LINE SMOOTH",
"52 726 OFFCURVE",
"198 804 OFFCURVE",
"358 804 CURVE SMOOTH",
"489 804 OFFCURVE",
"615 751 OFFCURVE",
"708 698 CURVE"
);
},
{
closed = 1;
nodes = (
"602 659 OFFCURVE",
"474 708 OFFCURVE",
"348 708 CURVE SMOOTH",
"278 708 OFFCURVE",
"162 679 OFFCURVE",
"162 498 CURVE SMOOTH",
"162 350 LINE SMOOTH",
"162 160 OFFCURVE",
"229 64 OFFCURVE",
"496 76 CURVE SMOOTH",
"627 82 OFFCURVE",
"708 93 OFFCURVE",
"708 92 CURVE",
"708 604 LINE"
);
}
);
width = 892;
},
{
layerId = "9D15C82E-7F80-48F0-B3D1-43822CDE4CEB";
paths = (
{
closed = 1;
nodes = (
"780 783 OFFCURVE",
"742 863 OFFCURVE",
"670 914 CURVE SMOOTH",
"611 954 OFFCURVE",
"536 976 OFFCURVE",
"400 976 CURVE",
"402 1014 LINE",
"533 1014 OFFCURVE",
"628 989 OFFCURVE",
"696 940 CURVE SMOOTH",
"778 880 OFFCURVE",
"818 790 OFFCURVE",
"818 670 CURVE SMOOTH",
"818 0 LINE",
"824 0 OFFCURVE",
"534 -20 OFFCURVE",
"458 -20 CURVE SMOOTH",
"170 -20 OFFCURVE",
"50 100 OFFCURVE",
"50 336 CURVE SMOOTH",
"50 502 LINE SMOOTH",
"50 630 OFFCURVE",
"103 806 OFFCURVE",
"372 806 CURVE SMOOTH",
"519 806 OFFCURVE",
"660 749 OFFCURVE",
"780 690 CURVE"
);
},
{
closed = 1;
nodes = (
"637 717 OFFCURVE",
"517 768 OFFCURVE",
"370 768 CURVE SMOOTH",
"164 768 OFFCURVE",
"86 646 OFFCURVE",
"86 498 CURVE SMOOTH",
"86 324 LINE SMOOTH",
"86 179 OFFCURVE",
"146 16 OFFCURVE",
"458 16 CURVE SMOOTH",
"546 16 OFFCURVE",
"785 36 OFFCURVE",
"780 36 CURVE",
"780 644 LINE"
);
}
);
width = 888;
},
{
layerId = "0D2E68F6-AD65-4FDC-99B3-7B414CE95F5B";
paths = (
{
closed = 1;
nodes = (
"608 753 OFFCURVE",
"594 791 OFFCURVE",
"570 812 CURVE SMOOTH",
"535 844 OFFCURVE",
"479 866 OFFCURVE",
"394 866 CURVE",
"412 1016 LINE",
"519 1016 OFFCURVE",
"646 1008 OFFCURVE",
"734 928 CURVE SMOOTH",
"782 885 OFFCURVE",
"828 796 OFFCURVE",
"828 612 CURVE SMOOTH",
"828 0 LINE",
"718 -16 OFFCURVE",
"602 -22 OFFCURVE",
"468 -22 CURVE SMOOTH",
"241 -22 OFFCURVE",
"58 56 OFFCURVE",
"58 310 CURVE SMOOTH",
"58 504 LINE SMOOTH",
"58 707 OFFCURVE",
"182 800 OFFCURVE",
"328 800 CURVE SMOOTH",
"429 800 OFFCURVE",
"549 753 OFFCURVE",
"608 668 CURVE"
);
},
{
closed = 1;
nodes = (
"585 519 OFFCURVE",
"482 574 OFFCURVE",
"390 574 CURVE SMOOTH",
"330 574 OFFCURVE",
"280 551 OFFCURVE",
"280 476 CURVE SMOOTH",
"280 346 LINE SMOOTH",
"280 247 OFFCURVE",
"304 180 OFFCURVE",
"486 180 CURVE SMOOTH",
"519 180 OFFCURVE",
"609 189 OFFCURVE",
"608 188 CURVE",
"608 504 LINE"
);
}
);
width = 900;
},
{
layerId = "BAA7A442-529C-4232-9150-0627B90683AA";
paths = (
{
closed = 1;
nodes = (
"880 807 OFFCURVE",
"850 863 OFFCURVE",
"783 898 CURVE SMOOTH",
"737 922 OFFCURVE",
"672 928 OFFCURVE",
"597 928 CURVE",
"620 1014 LINE",
"713 1014 OFFCURVE",
"810 1008 OFFCURVE",
"882 960 CURVE SMOOTH",
"1008 878 OFFCURVE",
"968 698 OFFCURVE",
"942 574 CURVE SMOOTH",
"820 0 LINE",
"824 0 OFFCURVE",
"598 -18 OFFCURVE",
"500 -20 CURVE SMOOTH",
"244 -28 OFFCURVE",
"64 41 OFFCURVE",
"123 336 CURVE SMOOTH",
"159 502 LINE SMOOTH",
"204 726 OFFCURVE",
"369 804 OFFCURVE",
"529 804 CURVE SMOOTH",
"660 804 OFFCURVE",
"774 751 OFFCURVE",
"856 698 CURVE"
);
},
{
closed = 1;
nodes = (
"742 659 OFFCURVE",
"624 708 OFFCURVE",
"498 708 CURVE SMOOTH",
"428 708 OFFCURVE",
"307 678 OFFCURVE",
"268 498 CURVE SMOOTH",
"236 350 LINE SMOOTH",
"195 160 OFFCURVE",
"243 64 OFFCURVE",
"512 76 CURVE SMOOTH",
"644 82 OFFCURVE",
"727 93 OFFCURVE",
"728 92 CURVE",
"836 604 LINE"
);
}
);
width = 892;
},
{
layerId = "EC4DDAD4-4840-4BAF-BE24-E50FF90D752F";
paths = (
{
closed = 1;
nodes = (
"768 753 OFFCURVE",
"762 791 OFFCURVE",
"743 812 CURVE SMOOTH",
"715 844 OFFCURVE",
"663 866 OFFCURVE",
"578 866 CURVE",
"628 1016 LINE",
"731 1016 OFFCURVE",
"858 1011 OFFCURVE",
"931 928 CURVE SMOOTH",
"970 885 OFFCURVE",
"997 796 OFFCURVE",
"958 612 CURVE SMOOTH",
"828 0 LINE",
"715 -16 OFFCURVE",
"597 -22 OFFCURVE",
"463 -22 CURVE SMOOTH",
"237 -22 OFFCURVE",
"69 58 OFFCURVE",
"124 310 CURVE SMOOTH",
"165 504 LINE SMOOTH",
"210 706 OFFCURVE",
"352 800 OFFCURVE",
"498 800 CURVE SMOOTH",
"592 800 OFFCURVE",
"707 757 OFFCURVE",
"750 668 CURVE"
);
},
{
closed = 1;
nodes = (
"695 519 OFFCURVE",
"604 574 OFFCURVE",
"512 574 CURVE SMOOTH",
"452 574 OFFCURVE",
"398 552 OFFCURVE",
"381 476 CURVE SMOOTH",
"354 346 LINE SMOOTH",
"332 246 OFFCURVE",
"343 180 OFFCURVE",
"524 180 CURVE SMOOTH",
"557 180 OFFCURVE",
"649 189 OFFCURVE",
"648 188 CURVE",
"715 504 LINE"
);
}
);
width = 900;
},
{
layerId = "350CE105-9128-4F96-9C2D-77D2DB4D6663";
paths = (
{
closed = 1;
nodes = (
"947 783 OFFCURVE",
"926 863 OFFCURVE",
"864 914 CURVE SMOOTH",
"814 954 OFFCURVE",
"743 976 OFFCURVE",
"607 976 CURVE",
"618 1014 LINE",
"748 1014 OFFCURVE",
"839 989 OFFCURVE",
"896 940 CURVE SMOOTH",
"965 880 OFFCURVE",
"985 790 OFFCURVE",
"960 670 CURVE SMOOTH",
"818 0 LINE",
"825 0 OFFCURVE",
"529 -20 OFFCURVE",
"454 -20 CURVE SMOOTH",
"166 -20 OFFCURVE",
"74 100 OFFCURVE",
"121 336 CURVE SMOOTH",
"157 502 LINE SMOOTH",
"182 630 OFFCURVE",
"274 806 OFFCURVE",
"543 806 CURVE SMOOTH",
"690 806 OFFCURVE",
"819 749 OFFCURVE",
"927 690 CURVE"
);
},
{
closed = 1;
nodes = (
"790 717 OFFCURVE",
"680 766 OFFCURVE",
"533 766 CURVE SMOOTH",
"327 766 OFFCURVE",
"224 646 OFFCURVE",
"192 498 CURVE SMOOTH",
"155 324 LINE SMOOTH",
"123 180 OFFCURVE",
"148 16 OFFCURVE",
"461 16 CURVE SMOOTH",
"549 16 OFFCURVE",
"793 36 OFFCURVE",
"788 36 CURVE",
"917 644 LINE"
);
}
);
width = 888;
}
);
leftKerningGroup = a;
rightKerningGroup = m;
unicode = 0061;
},
{
glyphname = ae;
layers = (
{
layerId = master01;
paths = (
{
closed = 1;
nodes = (
"826 76 OFFCURVE",
"985 72 OFFCURVE",
"1048 72 CURVE SMOOTH",
"1155 72 OFFCURVE",
"1239 103 OFFCURVE",
"1338 156 CURVE",
"1382 70 LINE",
"1283 9 OFFCURVE",
"1159 -21 OFFCURVE",
"1058 -24 CURVE",
"999 -24 OFFCURVE",
"897 -23 OFFCURVE",
"820 28 CURVE",
"820 0 LINE",
"795 -6 OFFCURVE",
"457 -20 OFFCURVE",
"412 -20 CURVE",
"205 -8 OFFCURVE",
"52 79 OFFCURVE",
"52 336 CURVE SMOOTH",
"52 502 LINE SMOOTH",
"52 726 OFFCURVE",
"198 804 OFFCURVE",
"358 804 CURVE SMOOTH",
"489 804 OFFCURVE",
"615 751 OFFCURVE",
"708 698 CURVE",
"708 885 OFFCURVE",
"581 928 OFFCURVE",
"400 928 CURVE",
"403 957 OFFCURVE",
"401 987 OFFCURVE",
"404 1014 CURVE",
"530 1014 OFFCURVE",
"695 996 OFFCURVE",
"766 874 CURVE",
"833 967 OFFCURVE",
"938 1016 OFFCURVE",
"1082 1016 CURVE SMOOTH",
"1298 1016 OFFCURVE",
"1434 899 OFFCURVE",
"1434 682 CURVE SMOOTH",
"1434 422 LINE",
"826 390 LINE",
"826 266 LINE SMOOTH"
);
},
{
closed = 1;
nodes = (
"602 659 OFFCURVE",
"474 708 OFFCURVE",
"348 708 CURVE SMOOTH",
"278 708 OFFCURVE",
"162 679 OFFCURVE",
"162 498 CURVE SMOOTH",
"162 350 LINE SMOOTH",
"162 160 OFFCURVE",
"229 65 OFFCURVE",
"496 76 CURVE",
"626 84 OFFCURVE",
"708 93 OFFCURVE",
"708 92 CURVE",
"708 604 LINE"
);
},
{
closed = 1;
nodes = (
"1320 877 OFFCURVE",
"1163 922 OFFCURVE",
"1078 922 CURVE SMOOTH",
"904 922 OFFCURVE",
"826 829 OFFCURVE",
"826 616 CURVE SMOOTH",
"826 500 LINE",
"1320 522 LINE",
"1320 696 LINE SMOOTH"
);
}
);
width = 1494;
},
{
layerId = "9D15C82E-7F80-48F0-B3D1-43822CDE4CEB";
paths = (
{
closed = 1;
nodes = (
"828 82 OFFCURVE",
"958 14 OFFCURVE",
"1134 14 CURVE SMOOTH",
"1243 14 OFFCURVE",
"1327 40 OFFCURVE",
"1442 104 CURVE",
"1460 70 LINE",
"1359 9 OFFCURVE",
"1250 -24 OFFCURVE",
"1138 -24 CURVE SMOOTH",
"975 -24 OFFCURVE",
"866 27 OFFCURVE",
"818 128 CURVE",
"818 0 LINE",
"821 0 OFFCURVE",
"535 -20 OFFCURVE",
"458 -20 CURVE",
"170 -20 OFFCURVE",
"50 100 OFFCURVE",
"50 336 CURVE SMOOTH",
"50 502 LINE SMOOTH",
"50 630 OFFCURVE",
"103 806 OFFCURVE",
"372 806 CURVE SMOOTH",
"519 806 OFFCURVE",
"660 749 OFFCURVE",
"780 690 CURVE",
"780 852 OFFCURVE",
"688 976 OFFCURVE",
"400 976 CURVE",
"400 989 OFFCURVE",
"402 1003 OFFCURVE",
"402 1014 CURVE",
"633 1014 OFFCURVE",
"764 930 OFFCURVE",
"804 782 CURVE",
"844 931 OFFCURVE",
"979 1016 OFFCURVE",
"1158 1016 CURVE SMOOTH",
"1378 1016 OFFCURVE",
"1510 897 OFFCURVE",
"1510 682 CURVE SMOOTH",
"1510 492 LINE",
"828 458 LINE",
"828 264 LINE SMOOTH"
);
},
{
closed = 1;
nodes = (
"637 717 OFFCURVE",
"517 766 OFFCURVE",
"370 766 CURVE SMOOTH",
"164 766 OFFCURVE",
"86 646 OFFCURVE",
"86 498 CURVE SMOOTH",
"86 324 LINE SMOOTH",
"86 179 OFFCURVE",
"146 11 OFFCURVE",
"458 16 CURVE",
"546 16 OFFCURVE",
"785 36 OFFCURVE",
"780 36 CURVE",
"780 644 LINE"
);
},
{
closed = 1;
nodes = (
"1470 924 OFFCURVE",
"1293 982 OFFCURVE",
"1152 982 CURVE SMOOTH",
"1017 982 OFFCURVE",
"828 925 OFFCURVE",
"828 664 CURVE SMOOTH",
"828 496 LINE",
"1470 528 LINE",
"1470 684 LINE SMOOTH"
);
}
);
width = 1568;
},
{
layerId = "0D2E68F6-AD65-4FDC-99B3-7B414CE95F5B";
paths = (
{
closed = 1;
nodes = (
"836 234 OFFCURVE",
"872 182 OFFCURVE",
"950 182 CURVE SMOOTH",
"1019 182 OFFCURVE",
"1117 219 OFFCURVE",
"1202 262 CURVE",
"1282 72 LINE",
"1191 13 OFFCURVE",
"1094 -24 OFFCURVE",
"974 -24 CURVE SMOOTH",
"907 -24 OFFCURVE",
"831 -1 OFFCURVE",
"802 26 CURVE",
"802 -4 LINE",
"699 -17 OFFCURVE",
"589 -22 OFFCURVE",
"468 -22 CURVE SMOOTH",
"242 -22 OFFCURVE",
"68 56 OFFCURVE",
"56 310 CURVE",
"56 504 LINE SMOOTH",
"56 707 OFFCURVE",
"180 800 OFFCURVE",
"326 800 CURVE SMOOTH",
"427 800 OFFCURVE",
"547 753 OFFCURVE",
"606 668 CURVE",
"606 818 OFFCURVE",
"548 862 OFFCURVE",
"392 866 CURVE",
"400 919 OFFCURVE",
"405 965 OFFCURVE",
"410 1016 CURVE",
"511 1016 OFFCURVE",
"633 1009 OFFCURVE",
"720 938 CURVE",
"797 994 OFFCURVE",
"881 1020 OFFCURVE",
"980 1020 CURVE SMOOTH",
"1176 1020 OFFCURVE",
"1332 901 OFFCURVE",
"1332 686 CURVE SMOOTH",
"1332 374 LINE",
"836 348 LINE",
"836 300 LINE SMOOTH"
);
},
{
closed = 1;
nodes = (
"583 519 OFFCURVE",
"484 574 OFFCURVE",
"388 574 CURVE SMOOTH",
"328 574 OFFCURVE",
"278 551 OFFCURVE",
"278 476 CURVE SMOOTH",
"278 346 LINE SMOOTH",
"278 247 OFFCURVE",
"305 180 OFFCURVE",
"486 180 CURVE",
"517 179 OFFCURVE",
"607 189 OFFCURVE",
"606 188 CURVE",
"606 504 LINE"
);
},
{
closed = 1;
nodes = (
"1112 734 OFFCURVE",
"1088 810 OFFCURVE",
"978 810 CURVE",
"880 805 OFFCURVE",
"836 760 OFFCURVE",
"836 652 CURVE SMOOTH",
"836 550 LINE",
"1112 568 LINE",
"1112 646 LINE SMOOTH"
);
}
);
width = 1396;
},
{
layerId = "BAA7A442-529C-4232-9150-0627B90683AA";
paths = (
{
closed = 1;
nodes = (
"842 76 OFFCURVE",
"1000 72 OFFCURVE",
"1063 72 CURVE SMOOTH",
"1170 72 OFFCURVE",
"1261 103 OFFCURVE",
"1371 156 CURVE",
"1397 70 LINE",
"1285 9 OFFCURVE",
"1155 -21 OFFCURVE",
"1053 -24 CURVE",
"995 -24 OFFCURVE",
"891 -21 OFFCURVE",
"826 28 CURVE",
"820 0 LINE",
"794 -6 OFFCURVE",
"452 -20 OFFCURVE",
"408 -20 CURVE",
"204 -8 OFFCURVE",
"69 79 OFFCURVE",
"123 336 CURVE SMOOTH",
"159 502 LINE SMOOTH",
"206 726 OFFCURVE",
"369 804 OFFCURVE",
"529 804 CURVE SMOOTH",
"660 804 OFFCURVE",
"774 751 OFFCURVE",
"856 698 CURVE",
"896 885 OFFCURVE",
"778 928 OFFCURVE",
"597 928 CURVE",
"606 957 OFFCURVE",
"611 987 OFFCURVE",
"620 1014 CURVE",
"745 1014 OFFCURVE",
"907 996 OFFCURVE",
"952 874 CURVE",
"1038 967 OFFCURVE",
"1154 1016 OFFCURVE",
"1298 1016 CURVE SMOOTH",
"1514 1016 OFFCURVE",
"1625 899 OFFCURVE",
"1579 682 CURVE SMOOTH",
"1524 422 LINE",
"909 390 LINE",
"883 266 LINE SMOOTH"
);
},
{
closed = 1;
nodes = (
"742 659 OFFCURVE",
"624 708 OFFCURVE",
"498 708 CURVE SMOOTH",
"428 708 OFFCURVE",
"306 678 OFFCURVE",
"268 498 CURVE SMOOTH",
"236 350 LINE SMOOTH",
"196 160 OFFCURVE",
"243 65 OFFCURVE",
"512 76 CURVE",
"644 84 OFFCURVE",
"727 93 OFFCURVE",
"728 92 CURVE",
"836 604 LINE"
);
},
{
closed = 1;
nodes = (
"1507 878 OFFCURVE",
"1359 922 OFFCURVE",
"1274 922 CURVE SMOOTH",
"1100 922 OFFCURVE",
"1002 830 OFFCURVE",
"957 616 CURVE SMOOTH",
"932 500 LINE",
"1431 522 LINE",
"1468 696 LINE SMOOTH"
);
}
);
width = 1494;
},
{
layerId = "EC4DDAD4-4840-4BAF-BE24-E50FF90D752F";
paths = (
{
closed = 1;
nodes = (
"886 234 OFFCURVE",
"911 182 OFFCURVE",
"989 182 CURVE SMOOTH",
"1058 182 OFFCURVE",
"1163 219 OFFCURVE",
"1258 262 CURVE",
"1297 72 LINE",
"1194 13 OFFCURVE",
"1089 -24 OFFCURVE",
"969 -24 CURVE SMOOTH",
"902 -24 OFFCURVE",
"831 -1 OFFCURVE",
"808 26 CURVE",
"801 -4 LINE",
"695 -17 OFFCURVE",
"584 -22 OFFCURVE",
"463 -22 CURVE SMOOTH",
"238 -22 OFFCURVE",
"80 56 OFFCURVE",
"122 310 CURVE",
"163 504 LINE SMOOTH",
"206 707 OFFCURVE",
"350 800 OFFCURVE",
"496 800 CURVE SMOOTH",
"590 800 OFFCURVE",
"705 757 OFFCURVE",
"748 668 CURVE",
"780 818 OFFCURVE",
"731 862 OFFCURVE",
"576 866 CURVE",
"595 919 OFFCURVE",
"610 965 OFFCURVE",
"626 1016 CURVE",
"727 1016 OFFCURVE",
"847 1009 OFFCURVE",
"919 938 CURVE",
"1009 994 OFFCURVE",
"1098 1020 OFFCURVE",
"1197 1020 CURVE SMOOTH",
"1393 1020 OFFCURVE",
"1523 901 OFFCURVE",
"1478 686 CURVE SMOOTH",
"1411 374 LINE",
"910 348 LINE",
"900 300 LINE SMOOTH"
);
},
{
closed = 1;
nodes = (
"693 519 OFFCURVE",
"607 574 OFFCURVE",
"510 574 CURVE SMOOTH",
"450 574 OFFCURVE",
"395 551 OFFCURVE",
"379 476 CURVE SMOOTH",
"352 346 LINE SMOOTH",
"330 247 OFFCURVE",
"343 180 OFFCURVE",
"524 180 CURVE SMOOTH",
"555 180 OFFCURVE",
"647 189 OFFCURVE",
"646 188 CURVE",
"713 504 LINE"
);
},
{
closed = 1;
nodes = (
"1268 734 OFFCURVE",
"1261 810 OFFCURVE",
"1150 810 CURVE",
"1052 805 OFFCURVE",
"998 760 OFFCURVE",
"975 652 CURVE SMOOTH",
"953 550 LINE",
"1233 568 LINE",
"1249 646 LINE SMOOTH"
);
}
);
width = 1396;
},
{
layerId = "350CE105-9128-4F96-9C2D-77D2DB4D6663";
paths = (
{
closed = 1;
nodes = (
"845 82 OFFCURVE",
"961 14 OFFCURVE",
"1137 14 CURVE SMOOTH",
"1246 14 OFFCURVE",
"1336 40 OFFCURVE",
"1464 104 CURVE",
"1475 70 LINE",
"1361 9 OFFCURVE",
"1245 -24 OFFCURVE",
"1133 -24 CURVE SMOOTH",
"970 -24 OFFCURVE",
"872 27 OFFCURVE",
"845 128 CURVE",
"818 0 LINE",
"821 0 OFFCURVE",
"530 -20 OFFCURVE",
"454 -20 CURVE",
"166 -20 OFFCURVE",
"71 101 OFFCURVE",
"121 336 CURVE SMOOTH",
"157 502 LINE SMOOTH",
"184 630 OFFCURVE",
"274 806 OFFCURVE",
"543 806 CURVE SMOOTH",
"690 806 OFFCURVE",
"819 749 OFFCURVE",
"927 690 CURVE",
"961 852 OFFCURVE",
"896 976 OFFCURVE",
"607 976 CURVE",
"610 989 OFFCURVE",
"615 1003 OFFCURVE",
"618 1014 CURVE",
"848 1014 OFFCURVE",
"962 930 OFFCURVE",
"970 782 CURVE",
"1042 931 OFFCURVE",
"1195 1016 OFFCURVE",
"1374 1016 CURVE SMOOTH",
"1594 1016 OFFCURVE",
"1701 897 OFFCURVE",
"1655 682 CURVE SMOOTH",
"1615 492 LINE",
"925 458 LINE",
"884 264 LINE SMOOTH"
);
},
{
closed = 1;
nodes = (
"790 717 OFFCURVE",
"680 766 OFFCURVE",
"533 766 CURVE SMOOTH",
"327 766 OFFCURVE",
"223 646 OFFCURVE",
"192 498 CURVE SMOOTH",
"155 324 LINE SMOOTH",
"124 179 OFFCURVE",
"148 11 OFFCURVE",
"461 16 CURVE",
"549 16 OFFCURVE",
"793 36 OFFCURVE",
"788 36 CURVE",
"917 644 LINE"
);
},
{
closed = 1;
nodes = (
"1666 924 OFFCURVE",
"1502 982 OFFCURVE",
"1361 982 CURVE SMOOTH",
"1226 982 OFFCURVE",
"1025 925 OFFCURVE",
"969 664 CURVE SMOOTH",
"933 496 LINE",
"1582 528 LINE",
"1615 684 LINE SMOOTH"
);
}
);
width = 1568;
}
);
leftKerningGroup = a;
rightKerningGroup = e;
unicode = 00E6;
},
{
glyphname = b;
layers = (
{
layerId = master01;
paths = (
{
closed = 1;
nodes = (
"285 982 OFFCURVE",
"387 1016 OFFCURVE",
"518 1016 CURVE SMOOTH",
"678 1016 OFFCURVE",
"850 941 OFFCURVE",
"850 716 CURVE SMOOTH",
"850 589 OFFCURVE",
"850 463 OFFCURVE",
"850 336 CURVE SMOOTH",
"850 42 OFFCURVE",
"654 -28 OFFCURVE",
"396 -20 CURVE SMOOTH",
"303 -18 OFFCURVE",
"77 0 OFFCURVE",
"82 0 CURVE",
"82 1396 LINE",
"194 1396 LINE",
"194 942 LINE"
);
},
{
closed = 1;
nodes = (
"194 93 OFFCURVE",
"276 84 OFFCURVE",
"406 76 CURVE",
"673 65 OFFCURVE",
"740 160 OFFCURVE",
"740 350 CURVE SMOOTH",
"740 386 OFFCURVE",
"740 669 OFFCURVE",
"740 708 CURVE SMOOTH",
"740 893 OFFCURVE",
"600 922 OFFCURVE",
"526 922 CURVE SMOOTH",
"398 922 OFFCURVE",
"303 889 OFFCURVE",
"194 844 CURVE",
"194 594 OFFCURVE",
"194 344 OFFCURVE",
"194 92 CURVE"
);
}
);
width = 910;
},
{
layerId = "9D15C82E-7F80-48F0-B3D1-43822CDE4CEB";
paths = (
{
closed = 1;
nodes = (
"221 985 OFFCURVE",
"347 1016 OFFCURVE",
"494 1016 CURVE SMOOTH",
"763 1016 OFFCURVE",
"850 842 OFFCURVE",
"850 716 CURVE",
"850 720 OFFCURVE",
"850 334 OFFCURVE",
"850 336 CURVE",
"850 99 OFFCURVE",
"736 -22 OFFCURVE",
"440 -22 CURVE",
"366 -22 OFFCURVE",
"76 -2 OFFCURVE",
"82 -2 CURVE",
"82 1396 LINE",
"120 1396 LINE",
"120 940 LINE"
);
},
{
closed = 1;
nodes = (
"116 37 OFFCURVE",
"351 15 OFFCURVE",
"440 14 CURVE SMOOTH",
"755 9 OFFCURVE",
"812 179 OFFCURVE",
"812 322 CURVE SMOOTH",
"812 359 OFFCURVE",
"812 666 OFFCURVE",
"812 708 CURVE SMOOTH",
"812 859 OFFCURVE",
"703 982 OFFCURVE",
"496 982 CURVE SMOOTH",
"349 982 OFFCURVE",
"227 948 OFFCURVE",
"120 900 CURVE",
"120 902 OFFCURVE",
"120 34 OFFCURVE",
"120 36 CURVE"
);
}
);
width = 908;
},
{
layerId = "0D2E68F6-AD65-4FDC-99B3-7B414CE95F5B";
paths = (
{
closed = 1;
nodes = (
"387 1001 OFFCURVE",
"461 1016 OFFCURVE",
"552 1016 CURVE SMOOTH",
"701 1016 OFFCURVE",
"850 921 OFFCURVE",
"850 718 CURVE",
"850 722 OFFCURVE",
"850 308 OFFCURVE",
"850 310 CURVE",
"838 50 OFFCURVE",
"662 -22 OFFCURVE",
"434 -22 CURVE SMOOTH",
"317 -22 OFFCURVE",
"200 -5 OFFCURVE",
"82 0 CURVE",
"82 1396 LINE",
"302 1396 LINE",
"302 964 LINE"
);
},
{
closed = 1;
nodes = (
"302 188 OFFCURVE",
"388 182 OFFCURVE",
"420 182 CURVE",
"605 182 OFFCURVE",
"630 246 OFFCURVE",
"630 348 CURVE SMOOTH",
"630 381 OFFCURVE",
"630 652 OFFCURVE",
"630 690 CURVE SMOOTH",
"630 765 OFFCURVE",
"552 788 OFFCURVE",
"492 788 CURVE SMOOTH",
"399 788 OFFCURVE",
"323 753 OFFCURVE",
"302 740 CURVE",
"302 742 OFFCURVE",
"302 186 OFFCURVE",
"302 188 CURVE"
);
}
);
width = 914;
},
{
layerId = "BAA7A442-529C-4232-9150-0627B90683AA";
paths = (
{
closed = 1;
nodes = (
"493 982 OFFCURVE",
"603 1016 OFFCURVE",
"734 1016 CURVE SMOOTH",
"893 1016 OFFCURVE",
"1050 941 OFFCURVE",
"1002 716 CURVE SMOOTH",
"975 589 OFFCURVE",
"948 463 OFFCURVE",
"921 336 CURVE SMOOTH",
"859 42 OFFCURVE",
"648 -28 OFFCURVE",
"392 -20 CURVE SMOOTH",
"299 -18 OFFCURVE",
"77 0 OFFCURVE",
"82 0 CURVE",
"379 1396 LINE",
"491 1396 LINE",
"394 942 LINE"
);
},
{
closed = 1;
nodes = (
"214 93 OFFCURVE",
"293 84 OFFCURVE",
"422 76 CURVE",
"687 65 OFFCURVE",
"774 160 OFFCURVE",
"814 350 CURVE SMOOTH",
"822 386 OFFCURVE",
"882 669 OFFCURVE",
"890 708 CURVE SMOOTH",
"930 893 OFFCURVE",
"796 922 OFFCURVE",
"722 922 CURVE SMOOTH",
"594 922 OFFCURVE",
"492 889 OFFCURVE",
"373 844 CURVE",
"320 594 OFFCURVE",
"267 344 OFFCURVE",
"214 92 CURVE"
);
}
);
width = 910;
},
{
layerId = "EC4DDAD4-4840-4BAF-BE24-E50FF90D752F";
paths = (
{
closed = 1;
nodes = (
"600 1001 OFFCURVE",
"678 1010 OFFCURVE",
"768 1010 CURVE SMOOTH",
"916 1010 OFFCURVE",
"1046 921 OFFCURVE",
"1003 718 CURVE",
"1003 722 OFFCURVE",
"915 308 OFFCURVE",
"916 310 CURVE",
"849 50 OFFCURVE",
"657 -22 OFFCURVE",
"429 -22 CURVE SMOOTH",
"311 -22 OFFCURVE",
"198 -5 OFFCURVE",
"82 0 CURVE",
"379 1396 LINE",
"599 1396 LINE",
"507 964 LINE"
);
},
{
closed = 1;
nodes = (
"342 188 OFFCURVE",
"427 182 OFFCURVE",
"459 182 CURVE",
"643 182 OFFCURVE",
"682 246 OFFCURVE",
"704 348 CURVE SMOOTH",
"711 381 OFFCURVE",
"768 652 OFFCURVE",
"777 690 CURVE SMOOTH",
"793 765 OFFCURVE",
"719 788 OFFCURVE",
"659 788 CURVE SMOOTH",
"566 788 OFFCURVE",
"483 753 OFFCURVE",
"459 740 CURVE",
"460 742 OFFCURVE",
"342 186 OFFCURVE",
"342 188 CURVE"
);
}
);
width = 914;
},
{
layerId = "350CE105-9128-4F96-9C2D-77D2DB4D6663";
paths = (
{
closed = 1;
nodes = (
"431 985 OFFCURVE",
"563 1016 OFFCURVE",
"710 1016 CURVE SMOOTH",
"979 1016 OFFCURVE",
"1029 842 OFFCURVE",
"1002 716 CURVE",
"1003 720 OFFCURVE",
"921 334 OFFCURVE",
"921 336 CURVE",
"871 99 OFFCURVE",
"731 -22 OFFCURVE",
"435 -22 CURVE",
"361 -22 OFFCURVE",
"76 -2 OFFCURVE",
"82 -2 CURVE",
"379 1396 LINE",
"417 1396 LINE",
"320 940 LINE"
);
},
{
closed = 1;
nodes = (
"124 37 OFFCURVE",
"354 15 OFFCURVE",
"443 14 CURVE SMOOTH",
"756 9 OFFCURVE",
"850 179 OFFCURVE",
"880 322 CURVE SMOOTH",
"888 359 OFFCURVE",
"953 666 OFFCURVE",
"962 708 CURVE SMOOTH",
"995 859 OFFCURVE",
"912 982 OFFCURVE",
"705 982 CURVE SMOOTH",
"558 982 OFFCURVE",
"428 948 OFFCURVE",
"311 900 CURVE",
"312 902 OFFCURVE",
"127 34 OFFCURVE",
"128 36 CURVE"
);
}
);
width = 908;
}
);
leftKerningGroup = b;
rightKerningGroup = o;
unicode = 0062;
},
{
glyphname = c;
layers = (
{
layerId = master01;
paths = (
{
closed = 1;
nodes = (
"570 905 OFFCURVE",
"435 927 OFFCURVE",
"350 906 CURVE SMOOTH",
"291 893 OFFCURVE",
"238 852 OFFCURVE",
"206 788 CURVE SMOOTH",
"182 743 OFFCURVE",
"168 682 OFFCURVE",
"168 610 CURVE SMOOTH",
"168 370 LINE SMOOTH",
"168 239 OFFCURVE",
"199 141 OFFCURVE",
"306 104 CURVE",
"430 49 OFFCURVE",
"682 112 OFFCURVE",
"678 110 CURVE",
"700 10 LINE",
"567 -25 OFFCURVE",
"402 -35 OFFCURVE",
"282 2 CURVE",
"146 47 OFFCURVE",
"58 151 OFFCURVE",
"58 346 CURVE SMOOTH",
"58 636 LINE",
"63 724 OFFCURVE",
"77 788 OFFCURVE",
"112 852 CURVE",
"165 940 OFFCURVE",
"241 989 OFFCURVE",
"332 1008 CURVE SMOOTH",
"449 1032 OFFCURVE",
"581 1005 OFFCURVE",
"696 952 CURVE",
"666 860 LINE"
);
}
);
width = 760;
},
{
layerId = "9D15C82E-7F80-48F0-B3D1-43822CDE4CEB";
paths = (
{
closed = 1;
nodes = (
"565 973 OFFCURVE",
"445 991 OFFCURVE",
"344 970 CURVE SMOOTH",
"261 951 OFFCURVE",
"191 906 OFFCURVE",
"146 834 CURVE SMOOTH",
"111 778 OFFCURVE",
"94 711 OFFCURVE",
"94 626 CURVE SMOOTH",
"94 350 LINE SMOOTH",
"94 198 OFFCURVE",
"141 90 OFFCURVE",
"282 42 CURVE SMOOTH",
"457 -18 OFFCURVE",
"693 52 OFFCURVE",
"690 50 CURVE",
"698 10 LINE",
"565 -25 OFFCURVE",
"400 -35 OFFCURVE",
"280 2 CURVE",
"144 47 OFFCURVE",
"56 151 OFFCURVE",
"56 346 CURVE SMOOTH",
"56 636 LINE",
"61 724 OFFCURVE",
"75 788 OFFCURVE",
"110 852 CURVE",
"163 940 OFFCURVE",
"239 989 OFFCURVE",
"330 1008 CURVE SMOOTH",
"447 1032 OFFCURVE",
"579 1008 OFFCURVE",
"694 952 CURVE",
"680 914 LINE"
);
}
);
width = 754;
},
{
layerId = "0D2E68F6-AD65-4FDC-99B3-7B414CE95F5B";
paths = (
{
closed = 1;
nodes = (
"583 816 OFFCURVE",
"495 839 OFFCURVE",
"418 826 CURVE SMOOTH",
"373 818 OFFCURVE",
"330 797 OFFCURVE",
"306 760 CURVE",
"293 733 OFFCURVE",
"280 702 OFFCURVE",
"280 662 CURVE SMOOTH",
"280 348 LINE SMOOTH",
"280 225 OFFCURVE",
"365 168 OFFCURVE",
"488 168 CURVE",
"573 168 OFFCURVE",
"668 188 OFFCURVE",
"666 188 CURVE",
"706 10 LINE",
"575 -25 OFFCURVE",
"427 -41 OFFCURVE",
"286 2 CURVE",
"150 47 OFFCURVE",
"62 151 OFFCURVE",
"62 346 CURVE SMOOTH",
"62 638 LINE",
"67 726 OFFCURVE",
"81 790 OFFCURVE",
"118 854 CURVE SMOOTH",
"171 942 OFFCURVE",
"247 991 OFFCURVE",
"338 1010 CURVE SMOOTH",
"458 1037 OFFCURVE",
"587 1007 OFFCURVE",
"702 954 CURVE",
"652 784 LINE"
);
}
);
width = 768;
},
{
layerId = "BAA7A442-529C-4232-9150-0627B90683AA";
paths = (
{
closed = 1;
nodes = (
"762 905 OFFCURVE",
"632 927 OFFCURVE",
"543 906 CURVE SMOOTH",
"481 893 OFFCURVE",
"419 852 OFFCURVE",
"373 788 CURVE SMOOTH",
"340 743 OFFCURVE",
"313 682 OFFCURVE",
"298 610 CURVE SMOOTH",
"247 370 LINE SMOOTH",
"219 239 OFFCURVE",
"229 141 OFFCURVE",
"328 104 CURVE",
"440 49 OFFCURVE",
"706 112 OFFCURVE",
"701 110 CURVE",
"702 10 LINE",
"561 -25 OFFCURVE",
"394 -35 OFFCURVE",
"282 2 CURVE",
"156 47 OFFCURVE",
"90 151 OFFCURVE",
"132 346 CURVE SMOOTH",
"193 636 LINE",
"217 724 OFFCURVE",
"245 788 OFFCURVE",
"293 852 CURVE",
"365 940 OFFCURVE",
"452 989 OFFCURVE",
"546 1008 CURVE SMOOTH",
"669 1032 OFFCURVE",
"795 1005 OFFCURVE",
"898 952 CURVE",
"849 860 LINE"
);
}
);
width = 760;
},
{
layerId = "EC4DDAD4-4840-4BAF-BE24-E50FF90D752F";
paths = (
{
closed = 1;
nodes = (
"756 816 OFFCURVE",
"674 839 OFFCURVE",
"594 826 CURVE SMOOTH",
"547 818 OFFCURVE",
"499 797 OFFCURVE",
"468 760 CURVE",
"449 733 OFFCURVE",
"429 702 OFFCURVE",
"421 662 CURVE SMOOTH",
"354 348 LINE SMOOTH",
"328 225 OFFCURVE",
"401 168 OFFCURVE",
"524 168 CURVE",
"609 168 OFFCURVE",
"708 188 OFFCURVE",
"706 188 CURVE",
"708 10 LINE",
"570 -25 OFFCURVE",
"419 -41 OFFCURVE",
"286 2 CURVE",
"160 47 OFFCURVE",
"94 151 OFFCURVE",
"136 346 CURVE SMOOTH",
"198 638 LINE",
"222 726 OFFCURVE",
"249 790 OFFCURVE",
"300 854 CURVE SMOOTH",
"372 942 OFFCURVE",
"458 991 OFFCURVE",
"553 1010 CURVE SMOOTH",
"678 1037 OFFCURVE",
"801 1007 OFFCURVE",
"905 954 CURVE",
"819 784 LINE"
);
}
);
width = 768;
},
{
layerId = "350CE105-9128-4F96-9C2D-77D2DB4D6663";
paths = (
{
closed = 1;
nodes = (
"772 973 OFFCURVE",
"656 991 OFFCURVE",
"550 970 CURVE SMOOTH",
"464 951 OFFCURVE",
"384 906 OFFCURVE",
"323 834 CURVE SMOOTH",
"277 778 OFFCURVE",
"245 711 OFFCURVE",
"227 626 CURVE SMOOTH",
"168 350 LINE SMOOTH",
"136 198 OFFCURVE",
"160 90 OFFCURVE",
"291 42 CURVE SMOOTH",
"453 -18 OFFCURVE",
"704 52 OFFCURVE",
"701 50 CURVE",
"700 10 LINE",
"559 -25 OFFCURVE",
"392 -35 OFFCURVE",
"280 2 CURVE",
"154 47 OFFCURVE",
"88 151 OFFCURVE",
"130 346 CURVE SMOOTH",
"191 636 LINE",
"215 724 OFFCURVE",
"243 788 OFFCURVE",
"291 852 CURVE",
"363 940 OFFCURVE",
"450 989 OFFCURVE",
"544 1008 CURVE SMOOTH",
"667 1032 OFFCURVE",
"794 1008 OFFCURVE",
"896 952 CURVE",
"874 914 LINE"
);
}
);
width = 754;
}
);
leftKerningGroup = o;
rightKerningGroup = c;
unicode = 0063;
},
{
glyphname = d;
layers = (
{
layerId = master01;
paths = (
{
closed = 1;
nodes = (
"830 0 OFFCURVE",
"606 -18 OFFCURVE",
"514 -20 CURVE SMOOTH",
"257 -28 OFFCURVE",
"58 42 OFFCURVE",
"58 336 CURVE SMOOTH",
"58 716 LINE SMOOTH",
"58 941 OFFCURVE",
"232 1016 OFFCURVE",
"390 1016 CURVE SMOOTH",
"521 1016 OFFCURVE",
"625 982 OFFCURVE",
"716 942 CURVE",
"716 1396 LINE",
"826 1396 LINE",
"826 0 LINE"
);
},
{
closed = 1;
nodes = (
"609 889 OFFCURVE",
"510 922 OFFCURVE",
"382 922 CURVE SMOOTH",
"314 922 OFFCURVE",
"163 895 OFFCURVE",
"168 708 CURVE",
"168 350 LINE SMOOTH",
"168 160 OFFCURVE",
"238 68 OFFCURVE",
"504 76 CURVE SMOOTH",
"632 80 OFFCURVE",
"716 93 OFFCURVE",
"716 92 CURVE",
"716 844 LINE"
);
}
);
width = 912;
},
{
layerId = "9D15C82E-7F80-48F0-B3D1-43822CDE4CEB";
paths = (
{
closed = 1;
nodes = (
"830 -2 OFFCURVE",
"540 -22 OFFCURVE",
"466 -22 CURVE SMOOTH",
"174 -22 OFFCURVE",
"56 99 OFFCURVE",
"56 336 CURVE SMOOTH",
"56 716 LINE SMOOTH",
"56 841 OFFCURVE",
"147 1016 OFFCURVE",
"414 1016 CURVE SMOOTH",
"561 1016 OFFCURVE",
"682 985 OFFCURVE",
"786 940 CURVE",
"786 1396 LINE",
"824 1396 LINE",
"824 -2 LINE"
);
},
{
closed = 1;
nodes = (
"682 948 OFFCURVE",
"559 982 OFFCURVE",
"410 982 CURVE SMOOTH",
"206 982 OFFCURVE",
"96 859 OFFCURVE",
"96 708 CURVE SMOOTH",
"96 322 LINE SMOOTH",
"96 179 OFFCURVE",
"154 12 OFFCURVE",
"468 14 CURVE SMOOTH",
"556 14 OFFCURVE",
"789 37 OFFCURVE",
"786 36 CURVE",
"786 900 LINE"
);
}
);
width = 910;
},
{
layerId = "0D2E68F6-AD65-4FDC-99B3-7B414CE95F5B";
paths = (
{
closed = 1;
nodes = (
"726 -16 OFFCURVE",
"608 -22 OFFCURVE",
"478 -22 CURVE SMOOTH",
"252 -22 OFFCURVE",
"70 74 OFFCURVE",
"62 310 CURVE",
"62 718 LINE SMOOTH",
"62 922 OFFCURVE",
"214 1016 OFFCURVE",
"360 1016 CURVE SMOOTH",
"454 1016 OFFCURVE",
"526 1002 OFFCURVE",
"612 964 CURVE",
"612 1396 LINE",
"832 1396 LINE",
"832 0 LINE"
);
},
{
closed = 1;
nodes = (
"588 754 OFFCURVE",
"518 788 OFFCURVE",
"424 788 CURVE SMOOTH",
"364 788 OFFCURVE",
"284 766 OFFCURVE",
"284 690 CURVE SMOOTH",
"284 348 LINE SMOOTH",
"284 246 OFFCURVE",
"312 182 OFFCURVE",
"492 182 CURVE SMOOTH",
"524 182 OFFCURVE",
"612 188 OFFCURVE",
"612 188 CURVE",
"612 740 LINE"
);
}
);
width = 918;
},
{
layerId = "BAA7A442-529C-4232-9150-0627B90683AA";
paths = (
{
closed = 1;
nodes = (
"830 0 OFFCURVE",
"602 -18 OFFCURVE",
"510 -20 CURVE SMOOTH",
"251 -28 OFFCURVE",
"67 42 OFFCURVE",
"129 336 CURVE SMOOTH",
"210 716 LINE SMOOTH",
"258 941 OFFCURVE",
"448 1016 OFFCURVE",
"606 1016 CURVE SMOOTH",
"737 1016 OFFCURVE",
"834 982 OFFCURVE",
"916 942 CURVE",
"1013 1396 LINE",
"1123 1396 LINE",
"826 0 LINE"
);
},
{
closed = 1;
nodes = (
"798 889 OFFCURVE",
"706 922 OFFCURVE",
"578 922 CURVE SMOOTH",
"510 922 OFFCURVE",
"353 895 OFFCURVE",
"319 708 CURVE",
"242 350 LINE SMOOTH",
"202 160 OFFCURVE",
"252 68 OFFCURVE",
"520 76 CURVE SMOOTH",
"649 80 OFFCURVE",
"736 93 OFFCURVE",
"736 92 CURVE",
"895 844 LINE"
);
}
);
width = 912;
},
{
layerId = "EC4DDAD4-4840-4BAF-BE24-E50FF90D752F";
paths = (
{
closed = 1;
nodes = (
"722 -16 OFFCURVE",
"603 -22 OFFCURVE",
"473 -22 CURVE SMOOTH",
"247 -22 OFFCURVE",
"86 74 OFFCURVE",
"128 310 CURVE",
"215 718 LINE SMOOTH",
"258 922 OFFCURVE",
"430 1016 OFFCURVE",
"576 1016 CURVE SMOOTH",
"669 1016 OFFCURVE",
"740 1001 OFFCURVE",
"817 964 CURVE",
"909 1396 LINE",
"1129 1396 LINE",
"832 0 LINE"
);
},
{
closed = 1;
nodes = (
"748 753 OFFCURVE",
"685 788 OFFCURVE",
"592 788 CURVE SMOOTH",
"531 788 OFFCURVE",
"447 765 OFFCURVE",
"431 690 CURVE SMOOTH",
"358 348 LINE SMOOTH",
"336 246 OFFCURVE",
"351 182 OFFCURVE",
"531 182 CURVE SMOOTH",
"563 182 OFFCURVE",
"653 188 OFFCURVE",
"652 188 CURVE",
"769 740 LINE"
);
}
);
width = 918;
},
{
layerId = "350CE105-9128-4F96-9C2D-77D2DB4D6663";
paths = (
{
closed = 1;
nodes = (
"830 -2 OFFCURVE",
"535 -22 OFFCURVE",
"461 -22 CURVE SMOOTH",
"169 -22 OFFCURVE",
"77 99 OFFCURVE",
"127 336 CURVE SMOOTH",
"208 716 LINE SMOOTH",
"235 841 OFFCURVE",
"363 1016 OFFCURVE",
"630 1016 CURVE SMOOTH",
"777 1016 OFFCURVE",
"891 985 OFFCURVE",
"986 940 CURVE",
"1083 1396 LINE",
"1121 1396 LINE",
"824 -2 LINE"
);
},
{
closed = 1;
nodes = (
"884 948 OFFCURVE",
"768 982 OFFCURVE",
"619 982 CURVE SMOOTH",
"415 982 OFFCURVE",
"279 859 OFFCURVE",
"247 708 CURVE SMOOTH",
"164 322 LINE SMOOTH",
"134 179 OFFCURVE",
"155 12 OFFCURVE",
"461 14 CURVE SMOOTH",
"559 14 OFFCURVE",
"797 37 OFFCURVE",
"794 36 CURVE",
"977 900 LINE"
);
}
);
width = 910;
}
);
leftKerningGroup = o;
rightKerningGroup = l;
unicode = 0064;
},
{
glyphname = eth;
layers = (
{
layerId = master01;
paths = (
{
closed = 1;
nodes = (
"378 1398 LINE",
"510 1381 OFFCURVE",
"612 1330 OFFCURVE",
"685 1245 CURVE SMOOTH",
"758 1160 OFFCURVE",
"794 1058 OFFCURVE",
"794 938 CURVE SMOOTH",
"794 374 LINE SMOOTH",
"794 121 OFFCURVE",
"659 -18 OFFCURVE",
"422 -18 CURVE SMOOTH",
"185 -18 OFFCURVE",
"56 131 OFFCURVE",
"56 374 CURVE SMOOTH",
"56 490 LINE SMOOTH",
"56 735 OFFCURVE",
"175 866 OFFCURVE",
"394 866 CURVE SMOOTH",
"518 866 OFFCURVE",
"636 803 OFFCURVE",
"680 718 CURVE",
"680 958 LINE SMOOTH",
"680 1249 OFFCURVE",
"431 1325 OFFCURVE",
"364 1340 CURVE"
);
},
{
closed = 1;
nodes = (
"168 374 LINE SMOOTH",
"168 179 OFFCURVE",
"248 86 OFFCURVE",
"416 86 CURVE SMOOTH",
"592 86 OFFCURVE",
"680 179 OFFCURVE",
"680 374 CURVE SMOOTH",
"680 496 LINE SMOOTH",
"680 666 OFFCURVE",
"557 760 OFFCURVE",
"404 760 CURVE SMOOTH",
"252 760 OFFCURVE",
"168 674 OFFCURVE",
"168 506 CURVE SMOOTH"
);
},
{
closed = 1;
nodes = (
"396 988 LINE",
"340 1044 LINE",
"698 1402 LINE",
"754 1346 LINE"
);
}
);
width = 848;
},
{
layerId = "9D15C82E-7F80-48F0-B3D1-43822CDE4CEB";
paths = (
{
closed = 1;
nodes = (
"368 1398 LINE",
"500 1381 OFFCURVE",
"602 1330 OFFCURVE",
"675 1245 CURVE SMOOTH",
"748 1160 OFFCURVE",
"784 1058 OFFCURVE",
"784 938 CURVE SMOOTH",
"784 374 LINE SMOOTH",
"784 121 OFFCURVE",
"649 -18 OFFCURVE",
"412 -18 CURVE SMOOTH",
"175 -18 OFFCURVE",
"46 131 OFFCURVE",
"46 374 CURVE SMOOTH",
"46 490 LINE SMOOTH",
"46 735 OFFCURVE",
"175 866 OFFCURVE",
"396 866 CURVE SMOOTH",
"517 866 OFFCURVE",
"700 793 OFFCURVE",
"744 678 CURVE",
"744 938 LINE SMOOTH",
"744 1261 OFFCURVE",
"491 1350 OFFCURVE",
"362 1372 CURVE"
);
},
{
closed = 1;
nodes = (
"86 364 LINE SMOOTH",
"86 137 OFFCURVE",
"220 22 OFFCURVE",
"412 22 CURVE SMOOTH",
"630 22 OFFCURVE",
"744 149 OFFCURVE",
"744 364 CURVE SMOOTH",
"744 546 LINE",
"749 740 OFFCURVE",
"529 843 OFFCURVE",
"358 832 CURVE SMOOTH",
"185 821 OFFCURVE",
"86 705 OFFCURVE",
"86 502 CURVE SMOOTH"
);
},
{
closed = 1;
nodes = (
"394 1026 LINE",
"370 1048 LINE",
"716 1400 LINE",
"740 1378 LINE"
);
}
);
width = 836;
},
{
layerId = "0D2E68F6-AD65-4FDC-99B3-7B414CE95F5B";
paths = (
{
closed = 1;
nodes = (
"374 1398 LINE",
"497 1369 OFFCURVE",
"597 1318 OFFCURVE",
"674 1246 CURVE SMOOTH",
"751 1174 OFFCURVE",
"790 1078 OFFCURVE",
"790 958 CURVE SMOOTH",
"790 372 LINE SMOOTH",
"790 119 OFFCURVE",
"657 -18 OFFCURVE",
"414 -18 CURVE SMOOTH",
"185 -18 OFFCURVE",
"52 129 OFFCURVE",
"52 372 CURVE SMOOTH",
"52 490 LINE SMOOTH",
"52 735 OFFCURVE",
"169 864 OFFCURVE",
"390 864 CURVE SMOOTH",
"454 864 OFFCURVE",
"527 847 OFFCURVE",
"570 816 CURVE",
"570 958 LINE",
"574 1188 OFFCURVE",
"316 1260 OFFCURVE",
"320 1260 CURVE"
);
},
{
closed = 1;
nodes = (
"272 360 LINE SMOOTH",
"272 264 OFFCURVE",
"326 202 OFFCURVE",
"422 202 CURVE SMOOTH",
"515 202 OFFCURVE",
"570 261 OFFCURVE",
"570 360 CURVE SMOOTH",
"570 562 LINE SMOOTH",
"570 636 OFFCURVE",
"469 666 OFFCURVE",
"402 666 CURVE SMOOTH",
"317 666 OFFCURVE",
"272 611 OFFCURVE",
"272 520 CURVE SMOOTH"
);
},
{
closed = 1;
nodes = (
"412 958 LINE",
"310 1060 LINE",
"668 1418 LINE",
"768 1316 LINE"
);
}
);
width = 846;
},
{
layerId = "BAA7A442-529C-4232-9150-0627B90683AA";
paths = (
{
closed = 1;
nodes = (
"675 1398 LINE",
"803 1381 OFFCURVE",
"895 1330 OFFCURVE",
"950 1245 CURVE SMOOTH",
"1004 1160 OFFCURVE",
"1019 1058 OFFCURVE",
"993 938 CURVE SMOOTH",
"873 374 LINE SMOOTH",
"820 121 OFFCURVE",
"656 -18 OFFCURVE",
"418 -18 CURVE SMOOTH",
"181 -18 OFFCURVE",
"84 131 OFFCURVE",
"135 374 CURVE SMOOTH",
"160 490 LINE SMOOTH",
"212 735 OFFCURVE",
"359 866 OFFCURVE",
"578 866 CURVE SMOOTH",
"702 866 OFFCURVE",
"806 803 OFFCURVE",
"833 718 CURVE",
"884 958 LINE SMOOTH",
"946 1249 OFFCURVE",
"712 1325 OFFCURVE",
"649 1340 CURVE"
);
},
{
closed = 1;
nodes = (
"247 374 LINE SMOOTH",
"206 179 OFFCURVE",
"266 86 OFFCURVE",
"434 86 CURVE SMOOTH",
"610 86 OFFCURVE",
"718 179 OFFCURVE",
"759 374 CURVE SMOOTH",
"785 496 LINE SMOOTH",
"822 666 OFFCURVE",
"718 760 OFFCURVE",
"566 760 CURVE SMOOTH",
"414 760 OFFCURVE",
"311 674 OFFCURVE",
"276 506 CURVE SMOOTH"
);
},
{
closed = 1;
nodes = (
"606 988 LINE",
"562 1044 LINE",
"996 1402 LINE",
"1040 1346 LINE"
);
}
);
width = 848;
},
{
layerId = "EC4DDAD4-4840-4BAF-BE24-E50FF90D752F";
paths = (
{
closed = 1;
nodes = (
"671 1398 LINE",
"788 1369 OFFCURVE",
"877 1318 OFFCURVE",
"939 1246 CURVE SMOOTH",
"1001 1174 OFFCURVE",
"1019 1078 OFFCURVE",
"994 958 CURVE SMOOTH",
"869 372 LINE SMOOTH",
"815 119 OFFCURVE",
"653 -18 OFFCURVE",
"410 -18 CURVE SMOOTH",
"181 -18 OFFCURVE",
"79 129 OFFCURVE",
"131 372 CURVE SMOOTH",
"156 490 LINE SMOOTH",
"208 735 OFFCURVE",
"352 864 OFFCURVE",
"574 864 CURVE SMOOTH",
"638 864 OFFCURVE",
"707 847 OFFCURVE",
"743 816 CURVE",
"774 958 LINE SMOOTH",
"822 1188 OFFCURVE",
"587 1260 OFFCURVE",
"588 1260 CURVE"
);
},
{
closed = 1;
nodes = (
"349 360 LINE SMOOTH",
"328 264 OFFCURVE",
"369 202 OFFCURVE",
"465 202 CURVE SMOOTH",
"558 202 OFFCURVE",
"626 261 OFFCURVE",
"647 360 CURVE SMOOTH",
"689 562 LINE SMOOTH",
"705 636 OFFCURVE",
"610 666 OFFCURVE",
"544 666 CURVE SMOOTH",
"458 666 OFFCURVE",
"402 611 OFFCURVE",
"383 520 CURVE SMOOTH"
);
},
{
closed = 1;
nodes = (
"616 958 LINE",
"535 1060 LINE",
"969 1418 LINE",
"1048 1316 LINE"
);
}
);
width = 846;
},
{
layerId = "350CE105-9128-4F96-9C2D-77D2DB4D6663";
paths = (
{
closed = 1;
nodes = (
"665 1398 LINE",
"793 1381 OFFCURVE",
"885 1330 OFFCURVE",
"940 1245 CURVE SMOOTH",
"994 1160 OFFCURVE",
"1009 1058 OFFCURVE",
"983 938 CURVE SMOOTH",
"863 374 LINE SMOOTH",
"810 121 OFFCURVE",
"646 -18 OFFCURVE",
"408 -18 CURVE SMOOTH",
"171 -18 OFFCURVE",
"74 131 OFFCURVE",
"125 374 CURVE SMOOTH",
"150 490 LINE SMOOTH",
"202 735 OFFCURVE",
"359 866 OFFCURVE",
"580 866 CURVE SMOOTH",
"701 866 OFFCURVE",
"869 793 OFFCURVE",
"888 678 CURVE",
"943 938 LINE SMOOTH",
"1012 1261 OFFCURVE",
"778 1351 OFFCURVE",
"654 1372 CURVE"
);
},
{
closed = 1;
nodes = (
"163 364 LINE SMOOTH",
"115 137 OFFCURVE",
"214 22 OFFCURVE",
"417 22 CURVE SMOOTH",
"638 22 OFFCURVE",
"776 152 OFFCURVE",
"821 364 CURVE SMOOTH",
"860 546 LINE",
"906 740 OFFCURVE",
"713 843 OFFCURVE",
"540 832 CURVE SMOOTH",
"364 821 OFFCURVE",
"236 705 OFFCURVE",
"193 502 CURVE SMOOTH"
);
},
{
closed = 1;
nodes = (
"615 1024 LINE",
"593 1048 LINE",
"1014 1400 LINE",
"1035 1376 LINE"
);
}
);
width = 836;
}
);
leftKerningGroup = o;
rightKerningGroup = l;
unicode = 00F0;
},
{
glyphname = dcroat;
layers = (
{
components = (
{
name = d;
}
);
layerId = master01;
paths = (
{
closed = 1;
nodes = (
"448 1124 LINE",
"448 1230 LINE",
"920 1230 LINE",
"920 1124 LINE"
);
}
);
width = 912;
},
{
components = (
{
name = d;
}
);
layerId = "9D15C82E-7F80-48F0-B3D1-43822CDE4CEB";
paths = (
{
closed = 1;
nodes = (
"446 1190 LINE",
"446 1230 LINE",
"918 1230 LINE",
"918 1190 LINE"
);
}
);
width = 910;
},
{
components = (
{
name = d;
}
);
layerId = "0D2E68F6-AD65-4FDC-99B3-7B414CE95F5B";
paths = (
{
closed = 1;
nodes = (
"448 1102 LINE",
"448 1280 LINE",
"916 1280 LINE",
"916 1102 LINE"
);
}
);
width = 918;
},
{
components = (
{
name = d;
}
);
layerId = "BAA7A442-529C-4232-9150-0627B90683AA";
paths = (
{
closed = 1;
nodes = (
"687 1124 LINE",
"709 1230 LINE",
"1181 1230 LINE",
"1159 1124 LINE"
);
}
);
width = 912;
},
{
components = (
{
name = d;
}
);
layerId = "EC4DDAD4-4840-4BAF-BE24-E50FF90D752F";
paths = (
{
closed = 1;
nodes = (
"682 1102 LINE",
"720 1280 LINE",
"1188 1280 LINE",
"1150 1102 LINE"
);
}
);
width = 918;
},
{
components = (
{
name = d;
}
);
layerId = "350CE105-9128-4F96-9C2D-77D2DB4D6663";
paths = (
{
closed = 1;
nodes = (
"699 1190 LINE",
"707 1230 LINE",
"1179 1230 LINE",
"1171 1190 LINE"
);
}
);
width = 910;
}
);
leftKerningGroup = o;
rightKerningGroup = l;
unicode = 0111;
},
{
glyphname = e;
layers = (
{
layerId = master01;
paths = (
{
closed = 1;
nodes = (
"174 126 OFFCURVE",
"266 72 OFFCURVE",
"396 72 CURVE SMOOTH",
"495 72 OFFCURVE",
"587 103 OFFCURVE",
"688 156 CURVE",
"732 70 LINE",
"631 9 OFFCURVE",
"508 -24 OFFCURVE",
"406 -24 CURVE SMOOTH",
"202 -24 OFFCURVE",
"62 44 OFFCURVE",
"62 266 CURVE SMOOTH",
"62 676 LINE SMOOTH",
"62 900 OFFCURVE",
"218 1016 OFFCURVE",
"430 1016 CURVE SMOOTH",
"644 1016 OFFCURVE",
"782 902 OFFCURVE",
"782 682 CURVE SMOOTH",
"782 422 LINE",
"174 390 LINE",
"174 266 LINE SMOOTH"
);
},
{
closed = 1;
nodes = (
"670 836 OFFCURVE",
"566 922 OFFCURVE",
"428 922 CURVE SMOOTH",
"270 922 OFFCURVE",
"174 834 OFFCURVE",
"174 674 CURVE SMOOTH",
"174 500 LINE",
"670 522 LINE",
"670 696 LINE SMOOTH"
);
}
);
width = 842;
},
{
layerId = "9D15C82E-7F80-48F0-B3D1-43822CDE4CEB";
paths = (
{
closed = 1;
nodes = (
"98 74 OFFCURVE",
"234 14 OFFCURVE",
"404 14 CURVE SMOOTH",
"513 14 OFFCURVE",
"597 40 OFFCURVE",
"712 104 CURVE",
"728 70 LINE",
"629 9 OFFCURVE",
"520 -24 OFFCURVE",
"408 -24 CURVE SMOOTH",
"214 -24 OFFCURVE",
"60 50 OFFCURVE",
"60 266 CURVE SMOOTH",
"60 676 LINE SMOOTH",
"60 898 OFFCURVE",
"216 1016 OFFCURVE",
"428 1016 CURVE SMOOTH",
"638 1016 OFFCURVE",
"780 904 OFFCURVE",
"780 682 CURVE SMOOTH",
"780 492 LINE",
"98 458 LINE",
"98 264 LINE SMOOTH"
);
},
{
closed = 1;
nodes = (
"740 886 OFFCURVE",
"610 982 OFFCURVE",
"420 982 CURVE SMOOTH",
"218 982 OFFCURVE",
"98 868 OFFCURVE",
"98 664 CURVE SMOOTH",
"98 496 LINE",
"740 528 LINE",
"740 684 LINE SMOOTH"
);
}
);
width = 838;
},
{
layerId = "0D2E68F6-AD65-4FDC-99B3-7B414CE95F5B";
paths = (
{
closed = 1;
nodes = (
"288 226 OFFCURVE",
"330 180 OFFCURVE",
"402 180 CURVE SMOOTH",
"474 180 OFFCURVE",
"571 217 OFFCURVE",
"656 260 CURVE",
"736 70 LINE",
"643 11 OFFCURVE",
"516 -26 OFFCURVE",
"396 -26 CURVE SMOOTH",
"208 -26 OFFCURVE",
"66 66 OFFCURVE",
"66 268 CURVE SMOOTH",
"66 678 LINE SMOOTH",
"66 902 OFFCURVE",
"224 1018 OFFCURVE",
"434 1018 CURVE SMOOTH",
"644 1018 OFFCURVE",
"786 906 OFFCURVE",
"786 684 CURVE SMOOTH",
"786 372 LINE",
"288 346 LINE",
"288 296 LINE SMOOTH"
);
},
{
closed = 1;
nodes = (
"564 714 OFFCURVE",
"544 814 OFFCURVE",
"432 808 CURVE SMOOTH",
"310 802 OFFCURVE",
"288 736 OFFCURVE",
"288 626 CURVE SMOOTH",
"288 548 LINE",
"564 566 LINE",
"564 624 LINE SMOOTH"
);
}
);
width = 850;
},
{
layerId = "BAA7A442-529C-4232-9150-0627B90683AA";
paths = (
{
closed = 1;
nodes = (
"202 128 OFFCURVE",
"280 72 OFFCURVE",
"411 72 CURVE SMOOTH",
"510 72 OFFCURVE",
"608 103 OFFCURVE",
"721 156 CURVE",
"747 70 LINE",
"633 9 OFFCURVE",
"502 -24 OFFCURVE",
"401 -24 CURVE SMOOTH",
"198 -24 OFFCURVE",
"72 44 OFFCURVE",
"119 266 CURVE SMOOTH",
"206 676 LINE SMOOTH",
"252 896 OFFCURVE",
"410 1016 OFFCURVE",
"628 1016 CURVE SMOOTH",
"846 1016 OFFCURVE",
"972 898 OFFCURVE",
"927 682 CURVE SMOOTH",
"872 422 LINE",
"257 390 LINE",
"231 266 LINE SMOOTH"
);
},
{
closed = 1;
nodes = (
"846 834 OFFCURVE",
"764 922 OFFCURVE",
"624 922 CURVE SMOOTH",
"462 922 OFFCURVE",
"354 832 OFFCURVE",
"317 674 CURVE SMOOTH",
"280 500 LINE",
"781 522 LINE",
"818 696 LINE SMOOTH"
);
}
);
width = 842;
},
{
layerId = "EC4DDAD4-4840-4BAF-BE24-E50FF90D752F";
paths = (
{
closed = 1;
nodes = (
"336 228 OFFCURVE",
"368 180 OFFCURVE",
"440 180 CURVE SMOOTH",
"512 180 OFFCURVE",
"617 217 OFFCURVE",
"711 260 CURVE",
"751 70 LINE",
"645 11 OFFCURVE",
"510 -26 OFFCURVE",
"390 -26 CURVE SMOOTH",
"202 -26 OFFCURVE",
"80 66 OFFCURVE",
"123 268 CURVE SMOOTH",
"210 678 LINE SMOOTH",
"256 896 OFFCURVE",
"426 1018 OFFCURVE",
"642 1018 CURVE SMOOTH",
"856 1018 OFFCURVE",
"978 904 OFFCURVE",
"931 684 CURVE SMOOTH",
"865 372 LINE",
"362 346 LINE",
"351 296 LINE SMOOTH"
);
},
{
closed = 1;
nodes = (
"714 708 OFFCURVE",
"722 814 OFFCURVE",
"604 808 CURVE SMOOTH",
"480 802 OFFCURVE",
"446 736 OFFCURVE",
"421 626 CURVE SMOOTH",
"404 548 LINE",
"684 566 LINE",
"697 624 LINE SMOOTH"
);
}
);
width = 850;
},
{
layerId = "350CE105-9128-4F96-9C2D-77D2DB4D6663";
paths = (
{
closed = 1;
nodes = (
"114 72 OFFCURVE",
"232 14 OFFCURVE",
"407 14 CURVE SMOOTH",
"516 14 OFFCURVE",
"606 40 OFFCURVE",
"734 104 CURVE",
"743 70 LINE",
"631 9 OFFCURVE",
"515 -24 OFFCURVE",
"403 -24 CURVE SMOOTH",
"210 -24 OFFCURVE",
"70 48 OFFCURVE",
"117 266 CURVE SMOOTH",
"204 676 LINE SMOOTH",
"250 894 OFFCURVE",
"400 1016 OFFCURVE",
"644 1016 CURVE SMOOTH",
"856 1016 OFFCURVE",
"972 902 OFFCURVE",
"925 682 CURVE SMOOTH",
"885 492 LINE",
"195 458 LINE",
"154 264 LINE SMOOTH"
);
},
{
closed = 1;
nodes = (
"932 896 OFFCURVE",
"820 982 OFFCURVE",
"628 982 CURVE SMOOTH",
"426 982 OFFCURVE",
"286 870 OFFCURVE",
"244 680 CURVE SMOOTH",
"204 496 LINE",
"852 528 LINE",
"886 684 LINE SMOOTH"
);
}
);
width = 838;
}
);
leftKerningGroup = o;
rightKerningGroup = e;
unicode = 0065;
},
{
glyphname = f;
layers = (
{
layerId = master01;
paths = (
{
closed = 1;
nodes = (
"409 1315 OFFCURVE",
"392 1316 OFFCURVE",
"376 1316 CURVE SMOOTH",
"255 1316 OFFCURVE",
"190 1242 OFFCURVE",
"190 1096 CURVE SMOOTH",
"190 996 LINE",
"418 996 LINE",
"372 892 LINE",
"190 892 LINE",
"190 0 LINE",
"78 0 LINE",
"78 1096 LINE SMOOTH",
"78 1348 OFFCURVE",
"244 1420 OFFCURVE",
"374 1416 CURVE",
"401 1416 OFFCURVE",
"425 1415 OFFCURVE",
"446 1410 CURVE",
"428 1312 LINE"
);
}
);
width = 496;
},
{
layerId = "9D15C82E-7F80-48F0-B3D1-43822CDE4CEB";
paths = (
{
closed = 1;
nodes = (
"419 1379 OFFCURVE",
"405 1382 OFFCURVE",
"386 1382 CURVE",
"262 1386 OFFCURVE",
"118 1325 OFFCURVE",
"118 1096 CURVE SMOOTH",
"118 996 LINE",
"418 996 LINE",
"404 964 LINE",
"118 964 LINE",
"118 0 LINE",
"78 0 LINE",
"78 1096 LINE SMOOTH",
"78 1341 OFFCURVE",
"235 1416 OFFCURVE",
"374 1416 CURVE SMOOTH",
"398 1416 OFFCURVE",
"425 1415 OFFCURVE",
"446 1410 CURVE",
"438 1374 LINE"
);
}
);
width = 492;
},
{
layerId = "0D2E68F6-AD65-4FDC-99B3-7B414CE95F5B";
paths = (
{
closed = 1;
nodes = (
"441 1217 OFFCURVE",
"411 1224 OFFCURVE",
"384 1224 CURVE SMOOTH",
"333 1224 OFFCURVE",
"306 1188 OFFCURVE",
"306 1116 CURVE SMOOTH",
"306 998 LINE",
"480 998 LINE",
"432 792 LINE",
"306 792 LINE",
"306 0 LINE",
"80 0 LINE",
"80 1096 LINE SMOOTH",
"80 1320 OFFCURVE",
"214 1422 OFFCURVE",
"374 1422 CURVE SMOOTH",
"411 1422 OFFCURVE",
"461 1417 OFFCURVE",
"498 1412 CURVE",
"462 1212 LINE"
);
}
);
width = 556;
},
{
layerId = "BAA7A442-529C-4232-9150-0627B90683AA";
paths = (
{
closed = 1;
nodes = (
"689 1315 OFFCURVE",
"672 1316 OFFCURVE",
"656 1316 CURVE SMOOTH",
"534 1316 OFFCURVE",
"454 1242 OFFCURVE",
"423 1096 CURVE SMOOTH",
"402 996 LINE",
"630 996 LINE",
"562 892 LINE",
"380 892 LINE",
"190 0 LINE",
"78 0 LINE",
"311 1096 LINE SMOOTH",
"364 1347 OFFCURVE",
"546 1420 OFFCURVE",
"675 1416 CURVE",
"702 1416 OFFCURVE",
"726 1415 OFFCURVE",
"746 1410 CURVE",
"707 1312 LINE"
);
}
);
width = 496;
},
{
layerId = "EC4DDAD4-4840-4BAF-BE24-E50FF90D752F";
paths = (
{
closed = 1;
nodes = (
"699 1217 OFFCURVE",
"671 1224 OFFCURVE",
"644 1224 CURVE SMOOTH",
"593 1224 OFFCURVE",
"559 1188 OFFCURVE",
"543 1116 CURVE SMOOTH",
"518 998 LINE",
"692 998 LINE",
"600 792 LINE",
"474 792 LINE",
"306 0 LINE",
"80 0 LINE",
"313 1096 LINE SMOOTH",
"360 1319 OFFCURVE",
"516 1422 OFFCURVE",
"676 1422 CURVE SMOOTH",
"714 1422 OFFCURVE",
"762 1417 OFFCURVE",
"798 1412 CURVE",
"720 1212 LINE"
);
}
);
width = 556;
},
{
layerId = "350CE105-9128-4F96-9C2D-77D2DB4D6663";
paths = (
{
closed = 1;
nodes = (
"713 1379 OFFCURVE",
"698 1382 OFFCURVE",
"680 1382 CURVE",
"557 1386 OFFCURVE",
"400 1325 OFFCURVE",
"351 1096 CURVE SMOOTH",
"330 996 LINE",
"630 996 LINE",
"609 964 LINE",
"323 964 LINE",
"118 0 LINE",
"78 0 LINE",
"311 1096 LINE SMOOTH",
"363 1341 OFFCURVE",
"536 1416 OFFCURVE",
"675 1416 CURVE SMOOTH",
"699 1416 OFFCURVE",
"726 1415 OFFCURVE",
"746 1410 CURVE",
"730 1374 LINE"
);
}
);
width = 492;
}
);
leftKerningGroup = f;
rightKerningGroup = f;
unicode = 0066;
},
{
glyphname = g;
layers = (
{
layerId = master01;
paths = (
{
closed = 1;
nodes = (
"800 -288 OFFCURVE",
"736 -372 OFFCURVE",
"584 -420 CURVE",
"552 -334 LINE",
"640 -298 OFFCURVE",
"686 -232 OFFCURVE",
"686 -126 CURVE SMOOTH",
"686 122 LINE",
"641 40 OFFCURVE",
"524 -24 OFFCURVE",
"404 -24 CURVE SMOOTH",
"180 -24 OFFCURVE",
"62 107 OFFCURVE",
"62 350 CURVE SMOOTH",
"62 690 LINE SMOOTH",
"62 901 OFFCURVE",
"183 1027 OFFCURVE",
"402 1016 CURVE SMOOTH",
"499 1012 OFFCURVE",
"598 974 OFFCURVE",
"686 902 CURVE",
"686 996 LINE",
"800 996 LINE",
"800 -128 LINE SMOOTH"
);
},
{
closed = 1;
nodes = (
"631 866 OFFCURVE",
"511 908 OFFCURVE",
"426 916 CURVE SMOOTH",
"302 928 OFFCURVE",
"174 864 OFFCURVE",
"174 684 CURVE SMOOTH",
"174 332 LINE SMOOTH",
"174 164 OFFCURVE",
"258 80 OFFCURVE",
"410 80 CURVE SMOOTH",
"563 80 OFFCURVE",
"686 177 OFFCURVE",
"686 346 CURVE SMOOTH",
"686 784 LINE"
);
}
);
width = 880;
},
{
layerId = "9D15C82E-7F80-48F0-B3D1-43822CDE4CEB";
paths = (
{
closed = 1;
nodes = (
"796 -288 OFFCURVE",
"732 -372 OFFCURVE",
"580 -420 CURVE",
"568 -386 LINE",
"631 -358 OFFCURVE",
"756 -327 OFFCURVE",
"756 -126 CURVE SMOOTH",
"756 160 LINE",
"712 45 OFFCURVE",
"526 -24 OFFCURVE",
"406 -24 CURVE SMOOTH",
"185 -24 OFFCURVE",
"58 107 OFFCURVE",
"58 350 CURVE SMOOTH",
"58 688 LINE SMOOTH",
"58 901 OFFCURVE",
"190 1016 OFFCURVE",
"408 1016 CURVE SMOOTH",
"503 1016 OFFCURVE",
"656 978 OFFCURVE",
"756 902 CURVE",
"756 996 LINE",
"796 996 LINE",
"796 -128 LINE SMOOTH"
);
},
{
closed = 1;
nodes = (
"672 940 OFFCURVE",
"490 982 OFFCURVE",
"376 976 CURVE SMOOTH",
"234 970 OFFCURVE",
"98 902 OFFCURVE",
"98 692 CURVE SMOOTH",
"98 336 LINE SMOOTH",
"98 133 OFFCURVE",
"206 26 OFFCURVE",
"376 16 CURVE SMOOTH",
"548 6 OFFCURVE",
"761 102 OFFCURVE",
"756 294 CURVE",
"756 852 LINE"
);
}
);
width = 874;
},
{
layerId = "0D2E68F6-AD65-4FDC-99B3-7B414CE95F5B";
paths = (
{
closed = 1;
nodes = (
"804 -339 OFFCURVE",
"681 -420 OFFCURVE",
"492 -420 CURVE",
"438 -248 LINE",
"504 -248 OFFCURVE",
"584 -212 OFFCURVE",
"584 -106 CURVE SMOOTH",
"584 24 LINE",
"539 -5 OFFCURVE",
"470 -24 OFFCURVE",
"404 -24 CURVE SMOOTH",
"183 -24 OFFCURVE",
"64 107 OFFCURVE",
"64 352 CURVE SMOOTH",
"64 690 LINE SMOOTH",
"64 893 OFFCURVE",
"175 1018 OFFCURVE",
"380 1018 CURVE SMOOTH",
"455 1018 OFFCURVE",
"524 998 OFFCURVE",
"584 954 CURVE",
"584 998 LINE",
"804 998 LINE",
"804 -128 LINE SMOOTH"
);
},
{
closed = 1;
nodes = (
"586 770 OFFCURVE",
"498 820 OFFCURVE",
"432 820 CURVE SMOOTH",
"356 820 OFFCURVE",
"284 787 OFFCURVE",
"284 674 CURVE SMOOTH",
"284 318 LINE SMOOTH",
"284 241 OFFCURVE",
"328 172 OFFCURVE",
"422 176 CURVE SMOOTH",
"532 180 OFFCURVE",
"584 234 OFFCURVE",
"584 278 CURVE SMOOTH",
"584 772 LINE"
);
}
);
width = 884;
},
{
layerId = "BAA7A442-529C-4232-9150-0627B90683AA";
paths = (
{
closed = 1;
nodes = (
"739 -288 OFFCURVE",
"657 -372 OFFCURVE",
"495 -420 CURVE",
"481 -334 LINE",
"577 -298 OFFCURVE",
"637 -232 OFFCURVE",
"659 -126 CURVE SMOOTH",
"712 122 LINE",
"650 40 OFFCURVE",
"518 -24 OFFCURVE",
"399 -24 CURVE SMOOTH",
"175 -24 OFFCURVE",
"85 107 OFFCURVE",
"136 350 CURVE SMOOTH",
"209 690 LINE SMOOTH",
"253 901 OFFCURVE",
"402 1027 OFFCURVE",
"618 1016 CURVE SMOOTH",
"714 1012 OFFCURVE",
"805 974 OFFCURVE",
"878 902 CURVE",
"898 996 LINE",
"1012 996 LINE",
"773 -128 LINE SMOOTH"
);
},
{
closed = 1;
nodes = (
"816 866 OFFCURVE",
"704 908 OFFCURVE",
"621 916 CURVE SMOOTH",
"499 928 OFFCURVE",
"358 864 OFFCURVE",
"319 684 CURVE SMOOTH",
"245 332 LINE SMOOTH",
"209 164 OFFCURVE",
"275 80 OFFCURVE",
"427 80 CURVE SMOOTH",
"580 80 OFFCURVE",
"724 177 OFFCURVE",
"760 346 CURVE SMOOTH",
"853 784 LINE"
);
}
);
width = 880;
},
{
layerId = "EC4DDAD4-4840-4BAF-BE24-E50FF90D752F";
paths = (
{
closed = 1;
nodes = (
"732 -339 OFFCURVE",
"592 -420 OFFCURVE",
"403 -420 CURVE",
"385 -248 LINE",
"451 -248 OFFCURVE",
"539 -212 OFFCURVE",
"561 -106 CURVE SMOOTH",
"589 24 LINE",
"538 -5 OFFCURVE",
"465 -24 OFFCURVE",
"399 -24 CURVE SMOOTH",
"178 -24 OFFCURVE",
"87 107 OFFCURVE",
"139 352 CURVE SMOOTH",
"211 690 LINE SMOOTH",
"254 893 OFFCURVE",
"391 1018 OFFCURVE",
"596 1018 CURVE SMOOTH",
"671 1018 OFFCURVE",
"736 998 OFFCURVE",
"787 954 CURVE",
"796 998 LINE",
"1016 998 LINE",
"777 -128 LINE SMOOTH"
);
},
{
closed = 1;
nodes = (
"750 770 OFFCURVE",
"672 820 OFFCURVE",
"606 820 CURVE SMOOTH",
"530 820 OFFCURVE",
"451 787 OFFCURVE",
"427 674 CURVE SMOOTH",
"352 318 LINE SMOOTH",
"335 241 OFFCURVE",
"365 172 OFFCURVE",
"459 176 CURVE SMOOTH",
"570 180 OFFCURVE",
"634 234 OFFCURVE",
"643 278 CURVE SMOOTH",
"748 772 LINE"
);
}
);
width = 884;
},
{
layerId = "350CE105-9128-4F96-9C2D-77D2DB4D6663";
paths = (
{
closed = 1;
nodes = (
"735 -288 OFFCURVE",
"653 -372 OFFCURVE",
"491 -420 CURVE",
"486 -386 LINE",
"555 -358 OFFCURVE",
"687 -327 OFFCURVE",
"729 -126 CURVE SMOOTH",
"790 160 LINE",
"722 45 OFFCURVE",
"521 -24 OFFCURVE",
"401 -24 CURVE SMOOTH",
"180 -24 OFFCURVE",
"81 107 OFFCURVE",
"132 350 CURVE SMOOTH",
"204 688 LINE SMOOTH",
"250 901 OFFCURVE",
"408 1027 OFFCURVE",
"624 1016 CURVE SMOOTH",
"718 1012 OFFCURVE",
"864 978 OFFCURVE",
"948 902 CURVE",
"968 996 LINE",
"1008 996 LINE",
"769 -128 LINE SMOOTH"
);
},
{
closed = 1;
nodes = (
"872 940 OFFCURVE",
"699 982 OFFCURVE",
"583 976 CURVE SMOOTH",
"440 970 OFFCURVE",
"290 902 OFFCURVE",
"245 692 CURVE SMOOTH",
"169 336 LINE SMOOTH",
"126 133 OFFCURVE",
"212 26 OFFCURVE",
"379 16 CURVE SMOOTH",
"549 6 OFFCURVE",
"783 102 OFFCURVE",
"819 294 CURVE",
"937 852 LINE"
);
}
);
width = 874;
}
);
leftKerningGroup = g;
rightKerningGroup = g;
unicode = 0067;
},
{
glyphname = h;
layers = (
{
layerId = master01;
paths = (
{
closed = 1;
nodes = (
"271 983 OFFCURVE",
"373 1016 OFFCURVE",
"472 1016 CURVE SMOOTH",
"693 1016 OFFCURVE",
"820 900 OFFCURVE",
"820 690 CURVE SMOOTH",
"820 0 LINE",
"708 0 LINE",
"708 684 LINE SMOOTH",
"708 866 OFFCURVE",
"577 916 OFFCURVE",
"450 916 CURVE SMOOTH",
"359 916 OFFCURVE",
"277 893 OFFCURVE",
"194 848 CURVE",
"194 0 LINE",
"82 0 LINE",
"82 1396 LINE",
"194 1396 LINE",
"194 930 LINE"
);
}
);
width = 886;
},
{
layerId = "9D15C82E-7F80-48F0-B3D1-43822CDE4CEB";
paths = (
{
closed = 1;
nodes = (
"186 971 OFFCURVE",
"308 1011 OFFCURVE",
"412 1016 CURVE SMOOTH",
"586 1027 OFFCURVE",
"820 1003 OFFCURVE",
"820 690 CURVE SMOOTH",
"820 0 LINE",
"782 0 LINE",
"782 692 LINE SMOOTH",
"782 919 OFFCURVE",
"654 998 OFFCURVE",
"438 986 CURVE SMOOTH",
"323 981 OFFCURVE",
"194 943 OFFCURVE",
"122 906 CURVE",
"122 0 LINE",
"82 0 LINE",
"82 1396 LINE",
"122 1396 LINE",
"122 942 LINE"
);
}
);
width = 884;
},
{
layerId = "0D2E68F6-AD65-4FDC-99B3-7B414CE95F5B";
paths = (
{
closed = 1;
nodes = (
"335 976 OFFCURVE",
"417 1018 OFFCURVE",
"500 1018 CURVE SMOOTH",
"658 1018 OFFCURVE",
"822 947 OFFCURVE",
"822 690 CURVE SMOOTH",
"822 0 LINE",
"604 0 LINE",
"604 686 LINE SMOOTH",
"604 762 OFFCURVE",
"545 818 OFFCURVE",
"460 818 CURVE SMOOTH",
"415 818 OFFCURVE",
"364 804 OFFCURVE",
"300 772 CURVE",
"300 0 LINE",
"82 0 LINE",
"82 1396 LINE",
"300 1396 LINE",
"300 952 LINE"
);
}
);
width = 890;
},
{
layerId = "BAA7A442-529C-4232-9150-0627B90683AA";
paths = (
{
closed = 1;
nodes = (
"480 983 OFFCURVE",
"589 1016 OFFCURVE",
"688 1016 CURVE SMOOTH",
"909 1016 OFFCURVE",
"1011 900 OFFCURVE",
"967 690 CURVE SMOOTH",
"820 0 LINE",
"708 0 LINE",
"853 684 LINE SMOOTH",
"892 866 OFFCURVE",
"772 916 OFFCURVE",
"645 916 CURVE SMOOTH",
"554 916 OFFCURVE",
"467 893 OFFCURVE",
"374 848 CURVE",
"194 0 LINE",
"82 0 LINE",
"379 1396 LINE",
"491 1396 LINE",
"392 930 LINE"
);
}
);
width = 886;
},
{
layerId = "EC4DDAD4-4840-4BAF-BE24-E50FF90D752F";
paths = (
{
closed = 1;
nodes = (
"542 976 OFFCURVE",
"634 1018 OFFCURVE",
"716 1018 CURVE SMOOTH",
"874 1018 OFFCURVE",
"1023 947 OFFCURVE",
"969 690 CURVE SMOOTH",
"822 0 LINE",
"604 0 LINE",
"750 686 LINE SMOOTH",
"766 762 OFFCURVE",
"719 818 OFFCURVE",
"634 818 CURVE SMOOTH",
"589 818 OFFCURVE",
"535 804 OFFCURVE",
"464 772 CURVE",
"300 0 LINE",
"82 0 LINE",
"379 1396 LINE",
"597 1396 LINE",
"502 952 LINE"
);
}
);
width = 890;
},
{
layerId = "350CE105-9128-4F96-9C2D-77D2DB4D6663";
paths = (
{
closed = 1;
nodes = (
"415 981 OFFCURVE",
"528 1011 OFFCURVE",
"628 1016 CURVE SMOOTH",
"804 1027 OFFCURVE",
"1033 1003 OFFCURVE",
"967 690 CURVE SMOOTH",
"820 0 LINE",
"782 0 LINE",
"929 692 LINE SMOOTH",
"977 919 OFFCURVE",
"866 998 OFFCURVE",
"648 986 CURVE SMOOTH",
"532 981 OFFCURVE",
"395 943 OFFCURVE",
"315 906 CURVE",
"122 0 LINE",
"82 0 LINE",
"379 1396 LINE",
"419 1396 LINE",
"322 942 LINE"
);
}
);
width = 884;
}
);
leftKerningGroup = h;
rightKerningGroup = h;
unicode = 0068;
},
{
glyphname = hbar;
layers = (
{
layerId = master01;
paths = (
{
closed = 1;
nodes = (
"52 1124 LINE",
"52 1230 LINE",
"522 1230 LINE",
"522 1124 LINE"
);
},
{
closed = 1;
nodes = (
"331 983 OFFCURVE",
"433 1016 OFFCURVE",
"532 1016 CURVE SMOOTH",
"753 1016 OFFCURVE",
"880 900 OFFCURVE",
"880 690 CURVE SMOOTH",
"880 0 LINE",
"768 0 LINE",
"768 684 LINE SMOOTH",
"768 866 OFFCURVE",
"637 916 OFFCURVE",
"510 916 CURVE SMOOTH",
"419 916 OFFCURVE",
"337 893 OFFCURVE",
"254 848 CURVE",
"254 0 LINE",
"142 0 LINE",
"142 1396 LINE",
"254 1396 LINE",
"254 930 LINE"
);
}
);
width = 942;
},
{
layerId = "9D15C82E-7F80-48F0-B3D1-43822CDE4CEB";
paths = (
{
closed = 1;
nodes = (
"48 1190 LINE",
"48 1230 LINE",
"518 1230 LINE",
"518 1190 LINE"
);
},
{
closed = 1;
nodes = (
"238 971 OFFCURVE",
"360 1011 OFFCURVE",
"464 1016 CURVE SMOOTH",
"638 1027 OFFCURVE",
"872 1003 OFFCURVE",
"872 690 CURVE SMOOTH",
"872 0 LINE",
"834 0 LINE",
"834 692 LINE SMOOTH",
"834 919 OFFCURVE",
"706 998 OFFCURVE",
"490 986 CURVE SMOOTH",
"375 981 OFFCURVE",
"246 943 OFFCURVE",
"174 906 CURVE",
"174 0 LINE",
"134 0 LINE",
"134 1396 LINE",
"174 1396 LINE",
"174 942 LINE"
);
}
);
width = 936;
},
{
layerId = "0D2E68F6-AD65-4FDC-99B3-7B414CE95F5B";
paths = (
{
closed = 1;
nodes = (
"58 1096 LINE",
"58 1278 LINE",
"528 1278 LINE",
"528 1096 LINE"
);
},
{
closed = 1;
nodes = (
"395 976 OFFCURVE",
"477 1018 OFFCURVE",
"560 1018 CURVE SMOOTH",
"718 1018 OFFCURVE",
"882 947 OFFCURVE",
"882 690 CURVE SMOOTH",
"882 0 LINE",
"664 0 LINE",
"664 686 LINE SMOOTH",
"664 762 OFFCURVE",
"605 818 OFFCURVE",
"520 818 CURVE SMOOTH",
"475 818 OFFCURVE",
"424 804 OFFCURVE",
"360 772 CURVE",
"360 0 LINE",
"142 0 LINE",
"142 1396 LINE",
"360 1396 LINE",
"360 952 LINE"
);
}
);
width = 952;
},
{
layerId = "BAA7A442-529C-4232-9150-0627B90683AA";
paths = (
{
closed = 1;
nodes = (
"291 1124 LINE",
"313 1230 LINE",
"783 1230 LINE",
"761 1124 LINE"
);
},
{
closed = 1;
nodes = (
"540 983 OFFCURVE",
"649 1016 OFFCURVE",
"748 1016 CURVE SMOOTH",
"969 1016 OFFCURVE",
"1071 900 OFFCURVE",
"1027 690 CURVE SMOOTH",
"880 0 LINE",
"768 0 LINE",
"913 684 LINE SMOOTH",
"952 866 OFFCURVE",
"832 916 OFFCURVE",
"705 916 CURVE SMOOTH",
"614 916 OFFCURVE",
"527 893 OFFCURVE",
"434 848 CURVE",
"254 0 LINE",
"142 0 LINE",
"439 1396 LINE",
"551 1396 LINE",
"452 930 LINE"
);
}
);
width = 942;
},
{
layerId = "EC4DDAD4-4840-4BAF-BE24-E50FF90D752F";
paths = (
{
closed = 1;
nodes = (
"291 1096 LINE",
"330 1278 LINE",
"800 1278 LINE",
"761 1096 LINE"
);
},
{
closed = 1;
nodes = (
"602 976 OFFCURVE",
"694 1018 OFFCURVE",
"776 1018 CURVE SMOOTH",
"934 1018 OFFCURVE",
"1083 947 OFFCURVE",
"1029 690 CURVE SMOOTH",
"882 0 LINE",
"664 0 LINE",
"810 686 LINE SMOOTH",
"826 762 OFFCURVE",
"779 818 OFFCURVE",
"694 818 CURVE SMOOTH",
"649 818 OFFCURVE",
"595 804 OFFCURVE",
"524 772 CURVE",
"360 0 LINE",
"142 0 LINE",
"439 1396 LINE",
"657 1396 LINE",
"562 952 LINE"
);
}
);
width = 952;
},
{
layerId = "350CE105-9128-4F96-9C2D-77D2DB4D6663";
paths = (
{
closed = 1;
nodes = (
"301 1190 LINE",
"309 1230 LINE",
"779 1230 LINE",
"771 1190 LINE"
);
},
{
closed = 1;
nodes = (
"467 981 OFFCURVE",
"580 1011 OFFCURVE",
"680 1016 CURVE SMOOTH",
"856 1027 OFFCURVE",
"1085 1003 OFFCURVE",
"1019 690 CURVE SMOOTH",
"872 0 LINE",
"834 0 LINE",
"981 692 LINE SMOOTH",
"1029 919 OFFCURVE",
"918 998 OFFCURVE",
"700 986 CURVE SMOOTH",
"584 981 OFFCURVE",
"447 943 OFFCURVE",
"367 906 CURVE",
"174 0 LINE",
"134 0 LINE",
"431 1396 LINE",
"471 1396 LINE",
"374 942 LINE"
);
}
);
width = 936;
}
);
leftKerningGroup = h;
rightKerningGroup = h;
unicode = 0127;
},
{
glyphname = i;
layers = (
{
layerId = master01;
paths = (
{
closed = 1;
nodes = (
"76 998 LINE",
"188 998 LINE",
"188 0 LINE",
"76 0 LINE"
);
},
{
closed = 1;
nodes = (
"185 1416 OFFCURVE",
"216 1385 OFFCURVE",
"216 1348 CURVE SMOOTH",
"216 1313 OFFCURVE",
"185 1282 OFFCURVE",
"150 1282 CURVE SMOOTH",
"113 1282 OFFCURVE",
"82 1313 OFFCURVE",
"82 1348 CURVE SMOOTH",
"82 1385 OFFCURVE",
"113 1416 OFFCURVE",
"150 1416 CURVE SMOOTH"
);
}
);
width = 300;
},
{
layerId = "9D15C82E-7F80-48F0-B3D1-43822CDE4CEB";
paths = (
{
closed = 1;
nodes = (
"94 998 LINE",
"132 998 LINE",
"132 0 LINE",
"94 0 LINE"
);
},
{
closed = 1;
nodes = (
"133 1416 OFFCURVE",
"148 1403 OFFCURVE",
"148 1382 CURVE SMOOTH",
"148 1363 OFFCURVE",
"133 1348 OFFCURVE",
"114 1348 CURVE SMOOTH",
"95 1348 OFFCURVE",
"80 1363 OFFCURVE",
"80 1382 CURVE SMOOTH",
"80 1403 OFFCURVE",
"95 1416 OFFCURVE",
"114 1416 CURVE SMOOTH"
);
}
);
width = 232;
},
{
layerId = "0D2E68F6-AD65-4FDC-99B3-7B414CE95F5B";
paths = (
{
closed = 1;
nodes = (
"88 998 LINE",
"308 998 LINE",
"308 0 LINE",
"88 0 LINE"
);
},
{
closed = 1;
nodes = (
"265 1416 OFFCURVE",
"318 1367 OFFCURVE",
"318 1300 CURVE SMOOTH",
"318 1233 OFFCURVE",
"265 1180 OFFCURVE",
"198 1180 CURVE SMOOTH",
"131 1180 OFFCURVE",
"80 1233 OFFCURVE",
"80 1300 CURVE SMOOTH",
"80 1367 OFFCURVE",
"131 1416 OFFCURVE",
"198 1416 CURVE SMOOTH"
);
}
);
width = 400;
},
{
layerId = "BAA7A442-529C-4232-9150-0627B90683AA";
paths = (
{
closed = 1;
nodes = (
"288 998 LINE",
"400 998 LINE",
"188 0 LINE",
"76 0 LINE"
);
},
{
closed = 1;
nodes = (
"486 1416 OFFCURVE",
"510 1385 OFFCURVE",
"503 1348 CURVE SMOOTH",
"495 1313 OFFCURVE",
"457 1282 OFFCURVE",
"422 1282 CURVE SMOOTH",
"385 1282 OFFCURVE",
"361 1313 OFFCURVE",
"369 1348 CURVE SMOOTH",
"376 1385 OFFCURVE",
"414 1416 OFFCURVE",
"451 1416 CURVE SMOOTH"
);
}
);
width = 300;
},
{
layerId = "EC4DDAD4-4840-4BAF-BE24-E50FF90D752F";
paths = (
{
closed = 1;
nodes = (
"300 998 LINE",
"520 998 LINE",
"308 0 LINE",
"88 0 LINE"
);
},
{
closed = 1;
nodes = (
"566 1416 OFFCURVE",
"608 1367 OFFCURVE",
"594 1300 CURVE SMOOTH",
"580 1233 OFFCURVE",
"515 1180 OFFCURVE",
"449 1180 CURVE SMOOTH",
"382 1180 OFFCURVE",
"342 1233 OFFCURVE",
"356 1300 CURVE SMOOTH",
"370 1367 OFFCURVE",
"432 1416 OFFCURVE",
"499 1416 CURVE SMOOTH"
);
}
);
width = 400;
},
{
layerId = "350CE105-9128-4F96-9C2D-77D2DB4D6663";
paths = (
{
closed = 1;
nodes = (
"306 998 LINE",
"344 998 LINE",
"132 0 LINE",
"94 0 LINE"
);
},
{
closed = 1;
nodes = (
"434 1416 OFFCURVE",
"446 1403 OFFCURVE",
"442 1382 CURVE SMOOTH",
"438 1363 OFFCURVE",
"419 1348 OFFCURVE",
"401 1348 CURVE SMOOTH",
"382 1348 OFFCURVE",
"370 1363 OFFCURVE",
"374 1382 CURVE SMOOTH",
"378 1403 OFFCURVE",
"396 1416 OFFCURVE",
"415 1416 CURVE SMOOTH"
);
}
);
width = 232;
}
);
leftKerningGroup = m;
rightKerningGroup = i;
unicode = 0069;
},
{
glyphname = dotlessi;
layers = (
{
layerId = master01;
paths = (
{
closed = 1;
nodes = (
"76 998 LINE",
"188 998 LINE",
"188 0 LINE",
"76 0 LINE"
);
}
);
width = 268;
},
{
layerId = "9D15C82E-7F80-48F0-B3D1-43822CDE4CEB";
paths = (
{
closed = 1;
nodes = (
"76 998 LINE",
"112 998 LINE",
"112 0 LINE",
"76 0 LINE"
);
}
);
width = 190;
},
{
layerId = "0D2E68F6-AD65-4FDC-99B3-7B414CE95F5B";
paths = (
{
closed = 1;
nodes = (
"78 998 LINE",
"298 998 LINE",
"298 0 LINE",
"78 0 LINE"
);
}
);
width = 378;
},
{
layerId = "BAA7A442-529C-4232-9150-0627B90683AA";
paths = (
{
closed = 1;
nodes = (
"288 998 LINE",
"400 998 LINE",
"188 0 LINE",
"76 0 LINE"
);
}
);
width = 268;
},
{
layerId = "EC4DDAD4-4840-4BAF-BE24-E50FF90D752F";
paths = (
{
closed = 1;
nodes = (
"290 998 LINE",
"510 998 LINE",
"298 0 LINE",
"78 0 LINE"
);
}
);
width = 378;
},
{
layerId = "350CE105-9128-4F96-9C2D-77D2DB4D6663";
paths = (
{
closed = 1;
nodes = (
"288 998 LINE",
"324 998 LINE",
"112 0 LINE",
"76 0 LINE"
);
}
);
width = 190;
}
);
leftKerningGroup = m;
rightKerningGroup = i;
unicode = 0131;
},
{
glyphname = ij;
layers = (
{
layerId = master01;
paths = (
{
closed = 1;
nodes = (
"185 1416 OFFCURVE",
"216 1385 OFFCURVE",
"216 1348 CURVE SMOOTH",
"216 1313 OFFCURVE",
"185 1282 OFFCURVE",
"150 1282 CURVE SMOOTH",
"113 1282 OFFCURVE",
"82 1313 OFFCURVE",
"82 1348 CURVE SMOOTH",
"82 1385 OFFCURVE",
"113 1416 OFFCURVE",
"150 1416 CURVE SMOOTH"
);
},
{
closed = 1;
nodes = (
"836 1313 OFFCURVE",
"805 1282 OFFCURVE",
"768 1282 CURVE SMOOTH",
"733 1282 OFFCURVE",
"702 1313 OFFCURVE",
"702 1348 CURVE SMOOTH",
"702 1385 OFFCURVE",
"733 1414 OFFCURVE",
"768 1414 CURVE SMOOTH",
"805 1414 OFFCURVE",
"836 1385 OFFCURVE",
"836 1348 CURVE SMOOTH"
);
},
{
closed = 1;
nodes = (
"830 1000 LINE",
"830 -124 LINE SMOOTH",
"830 -288 OFFCURVE",
"772 -366 OFFCURVE",
"620 -416 CURVE",
"588 -330 LINE",
"680 -294 OFFCURVE",
"718 -218 OFFCURVE",
"718 -122 CURVE SMOOTH",
"718 100 LINE",
"651 20 OFFCURVE",
"541 -18 OFFCURVE",
"440 -18 CURVE SMOOTH",
"219 -18 OFFCURVE",
"92 88 OFFCURVE",
"92 314 CURVE SMOOTH",
"92 998 LINE",
"204 998 LINE",
"204 322 LINE SMOOTH",
"204 137 OFFCURVE",
"340 88 OFFCURVE",
"464 88 CURVE SMOOTH",
"606 88 OFFCURVE",
"718 206 OFFCURVE",
"718 346 CURVE SMOOTH",
"718 1000 LINE"
);
}
);
width = 930;
},
{
layerId = "9D15C82E-7F80-48F0-B3D1-43822CDE4CEB";
paths = (
{
closed = 1;
nodes = (
"133 1416 OFFCURVE",
"148 1403 OFFCURVE",
"148 1382 CURVE SMOOTH",
"148 1363 OFFCURVE",
"133 1348 OFFCURVE",
"114 1348 CURVE SMOOTH",
"95 1348 OFFCURVE",
"80 1363 OFFCURVE",
"80 1382 CURVE SMOOTH",
"80 1403 OFFCURVE",
"95 1416 OFFCURVE",
"114 1416 CURVE SMOOTH"
);
},
{
closed = 1;
nodes = (
"846 1363 OFFCURVE",
"833 1348 OFFCURVE",
"812 1348 CURVE SMOOTH",
"793 1348 OFFCURVE",
"780 1363 OFFCURVE",
"780 1382 CURVE SMOOTH",
"780 1403 OFFCURVE",
"793 1414 OFFCURVE",
"812 1414 CURVE SMOOTH",
"833 1414 OFFCURVE",
"846 1403 OFFCURVE",
"846 1382 CURVE SMOOTH"
);
},
{
closed = 1;
nodes = (
"830 998 LINE",
"830 -134 LINE SMOOTH",
"830 -302 OFFCURVE",
"772 -372 OFFCURVE",
"620 -424 CURVE",
"608 -390 LINE",
"740 -344 OFFCURVE",
"796 -284 OFFCURVE",
"796 -132 CURVE SMOOTH",
"796 198 LINE",
"748 65 OFFCURVE",
"618 -8 OFFCURVE",
"482 -16 CURVE SMOOTH",
"334 -24 OFFCURVE",
"92 1 OFFCURVE",
"92 314 CURVE SMOOTH",
"92 998 LINE",
"132 998 LINE",
"132 312 LINE SMOOTH",
"132 88 OFFCURVE",
"266 6 OFFCURVE",
"480 20 CURVE SMOOTH",
"672 34 OFFCURVE",
"796 177 OFFCURVE",
"796 338 CURVE SMOOTH",
"796 998 LINE"
);
}
);
width = 918;
},
{
layerId = "0D2E68F6-AD65-4FDC-99B3-7B414CE95F5B";
paths = (
{
closed = 1;
nodes = (
"261 1416 OFFCURVE",
"314 1367 OFFCURVE",
"314 1300 CURVE SMOOTH",
"314 1233 OFFCURVE",
"261 1180 OFFCURVE",
"194 1180 CURVE SMOOTH",
"127 1180 OFFCURVE",
"76 1233 OFFCURVE",
"76 1300 CURVE SMOOTH",
"76 1367 OFFCURVE",
"127 1416 OFFCURVE",
"194 1416 CURVE SMOOTH"
);
},
{
closed = 1;
nodes = (
"836 1234 OFFCURVE",
"781 1180 OFFCURVE",
"714 1180 CURVE SMOOTH",
"647 1180 OFFCURVE",
"596 1234 OFFCURVE",
"596 1298 CURVE SMOOTH",
"596 1365 OFFCURVE",
"647 1416 OFFCURVE",
"714 1416 CURVE SMOOTH",
"781 1416 OFFCURVE",
"836 1365 OFFCURVE",
"836 1298 CURVE SMOOTH"
);
},
{
closed = 1;
nodes = (
"826 1002 LINE",
"826 -118 LINE SMOOTH",
"826 -308 OFFCURVE",
"716 -426 OFFCURVE",
"524 -426 CURVE",
"466 -248 LINE",
"548 -248 OFFCURVE",
"606 -174 OFFCURVE",
"606 -96 CURVE SMOOTH",
"606 56 LINE",
"579 27 OFFCURVE",
"491 -12 OFFCURVE",
"406 -12 CURVE SMOOTH",
"246 -12 OFFCURVE",
"86 59 OFFCURVE",
"86 316 CURVE SMOOTH",
"86 1002 LINE",
"308 1002 LINE",
"308 322 LINE SMOOTH",
"308 247 OFFCURVE",
"364 188 OFFCURVE",
"446 188 CURVE SMOOTH",
"537 188 OFFCURVE",
"606 261 OFFCURVE",
"606 352 CURVE SMOOTH",
"606 1002 LINE"
);
}
);
width = 902;
},
{
layerId = "BAA7A442-529C-4232-9150-0627B90683AA";
paths = (
{
closed = 1;
nodes = (
"486 1416 OFFCURVE",
"510 1385 OFFCURVE",
"503 1348 CURVE SMOOTH",
"495 1313 OFFCURVE",
"457 1282 OFFCURVE",
"422 1282 CURVE SMOOTH",
"385 1282 OFFCURVE",
"361 1313 OFFCURVE",
"369 1348 CURVE SMOOTH",
"376 1385 OFFCURVE",
"414 1416 OFFCURVE",
"451 1416 CURVE SMOOTH"
);
},
{
closed = 1;
nodes = (
"1115 1313 OFFCURVE",
"1078 1282 OFFCURVE",
"1040 1282 CURVE SMOOTH",
"1006 1282 OFFCURVE",
"981 1313 OFFCURVE",
"989 1348 CURVE SMOOTH",
"996 1385 OFFCURVE",
"1034 1414 OFFCURVE",
"1069 1414 CURVE SMOOTH",
"1106 1414 OFFCURVE",
"1130 1385 OFFCURVE",
"1123 1348 CURVE SMOOTH"
);
},
{
closed = 1;
nodes = (
"1043 1000 LINE",
"804 -124 LINE SMOOTH",
"768 -292 OFFCURVE",
"692 -366 OFFCURVE",
"532 -416 CURVE",
"518 -330 LINE",
"614 -294 OFFCURVE",
"670 -222 OFFCURVE",
"692 -122 CURVE SMOOTH",
"739 100 LINE",
"656 20 OFFCURVE",
"538 -18 OFFCURVE",
"436 -18 CURVE SMOOTH",
"216 -18 OFFCURVE",
"111 88 OFFCURVE",
"159 314 CURVE SMOOTH",
"304 998 LINE",
"416 998 LINE",
"272 322 LINE SMOOTH",
"233 137 OFFCURVE",
"359 88 OFFCURVE",
"483 88 CURVE SMOOTH",
"625 88 OFFCURVE",
"762 206 OFFCURVE",
"792 346 CURVE SMOOTH",
"931 1000 LINE"
);
}
);
width = 930;
},
{
layerId = "EC4DDAD4-4840-4BAF-BE24-E50FF90D752F";
paths = (
{
closed = 1;
nodes = (
"566 1416 OFFCURVE",
"608 1367 OFFCURVE",
"594 1300 CURVE SMOOTH",
"580 1233 OFFCURVE",
"515 1180 OFFCURVE",
"449 1180 CURVE SMOOTH",
"382 1180 OFFCURVE",
"342 1233 OFFCURVE",
"356 1300 CURVE SMOOTH",
"370 1367 OFFCURVE",
"432 1416 OFFCURVE",
"499 1416 CURVE SMOOTH"
);
},
{
closed = 1;
nodes = (
"1102 1234 OFFCURVE",
"1035 1180 OFFCURVE",
"969 1180 CURVE SMOOTH",
"902 1180 OFFCURVE",
"862 1234 OFFCURVE",
"876 1298 CURVE SMOOTH",
"890 1365 OFFCURVE",
"952 1416 OFFCURVE",
"1019 1416 CURVE SMOOTH",
"1086 1416 OFFCURVE",
"1130 1365 OFFCURVE",
"1116 1298 CURVE SMOOTH"
);
},
{
closed = 1;
nodes = (
"1039 1002 LINE",
"801 -118 LINE SMOOTH",
"762 -304 OFFCURVE",
"628 -426 OFFCURVE",
"433 -426 CURVE",
"413 -248 LINE",
"496 -248 OFFCURVE",
"570 -174 OFFCURVE",
"586 -96 CURVE SMOOTH",
"618 56 LINE",
"585 27 OFFCURVE",
"489 -12 OFFCURVE",
"403 -12 CURVE SMOOTH",
"244 -12 OFFCURVE",
"99 59 OFFCURVE",
"153 316 CURVE SMOOTH",
"299 1002 LINE",
"521 1002 LINE",
"376 322 LINE SMOOTH",
"360 247 OFFCURVE",
"404 188 OFFCURVE",
"486 188 CURVE SMOOTH",
"577 188 OFFCURVE",
"661 261 OFFCURVE",
"681 352 CURVE SMOOTH",
"819 1002 LINE"
);
}
);
width = 902;
},
{
layerId = "350CE105-9128-4F96-9C2D-77D2DB4D6663";
paths = (
{
closed = 1;
nodes = (
"434 1416 OFFCURVE",
"446 1403 OFFCURVE",
"442 1382 CURVE SMOOTH",
"438 1363 OFFCURVE",
"419 1348 OFFCURVE",
"401 1348 CURVE SMOOTH",
"382 1348 OFFCURVE",
"370 1363 OFFCURVE",
"374 1382 CURVE SMOOTH",
"378 1403 OFFCURVE",
"396 1416 OFFCURVE",
"415 1416 CURVE SMOOTH"
);
},
{
closed = 1;
nodes = (
"1136 1363 OFFCURVE",
"1120 1348 OFFCURVE",
"1099 1348 CURVE SMOOTH",
"1080 1348 OFFCURVE",
"1070 1363 OFFCURVE",
"1074 1382 CURVE SMOOTH",
"1078 1403 OFFCURVE",
"1094 1414 OFFCURVE",
"1113 1414 CURVE SMOOTH",
"1134 1414 OFFCURVE",
"1144 1403 OFFCURVE",
"1140 1382 CURVE SMOOTH"
);
},
{
closed = 1;
nodes = (
"1042 998 LINE",
"802 -134 LINE SMOOTH",
"766 -306 OFFCURVE",
"690 -372 OFFCURVE",
"530 -424 CURVE",
"525 -390 LINE",
"664 -340 OFFCURVE",
"736 -286 OFFCURVE",
"768 -132 CURVE SMOOTH",
"838 198 LINE",
"764 70 OFFCURVE",
"624 -8 OFFCURVE",
"479 -16 CURVE SMOOTH",
"328 -24 OFFCURVE",
"92 0 OFFCURVE",
"159 314 CURVE SMOOTH",
"304 998 LINE",
"344 998 LINE",
"198 312 LINE SMOOTH",
"151 88 OFFCURVE",
"266 6 OFFCURVE",
"484 20 CURVE SMOOTH",
"678 34 OFFCURVE",
"834 177 OFFCURVE",
"868 338 CURVE SMOOTH",
"1008 998 LINE"
);
}
);
width = 918;
}
);
unicode = 0133;
},
{
glyphname = j;
layers = (
{
layerId = master01;
paths = (
{
closed = 1;
nodes = (
"298 -217 OFFCURVE",
"279 -281 OFFCURVE",
"234 -332 CURVE SMOOTH",
"199 -369 OFFCURVE",
"153 -397 OFFCURVE",
"86 -418 CURVE",
"54 -332 LINE",
"97 -316 OFFCURVE",
"127 -291 OFFCURVE",
"148 -262 CURVE SMOOTH",
"175 -225 OFFCURVE",
"186 -180 OFFCURVE",
"186 -124 CURVE SMOOTH",
"186 894 LINE",
"58 894 LINE",
"58 998 LINE",
"298 998 LINE",
"298 -126 LINE SMOOTH"
);
},
{
closed = 1;
nodes = (
"314 1313 OFFCURVE",
"283 1282 OFFCURVE",
"246 1282 CURVE SMOOTH",
"209 1282 OFFCURVE",
"178 1313 OFFCURVE",
"178 1348 CURVE SMOOTH",
"178 1385 OFFCURVE",
"209 1414 OFFCURVE",
"246 1414 CURVE SMOOTH",
"283 1414 OFFCURVE",
"314 1385 OFFCURVE",
"314 1348 CURVE SMOOTH"
);
}
);
width = 398;
},
{
layerId = "9D15C82E-7F80-48F0-B3D1-43822CDE4CEB";
paths = (
{
closed = 1;
nodes = (
"262 -232 OFFCURVE",
"240 -299 OFFCURVE",
"192 -350 CURVE",
"157 -382 OFFCURVE",
"111 -407 OFFCURVE",
"50 -426 CURVE",
"38 -392 LINE",
"99 -368 OFFCURVE",
"119 -357 OFFCURVE",
"164 -322 CURVE",
"207 -285 OFFCURVE",
"228 -225 OFFCURVE",
"228 -134 CURVE SMOOTH",
"228 962 LINE",
"58 962 LINE",
"58 998 LINE",
"262 998 LINE",
"262 -136 LINE SMOOTH"
);
},
{
closed = 1;
nodes = (
"278 1363 OFFCURVE",
"267 1348 OFFCURVE",
"246 1348 CURVE SMOOTH",
"227 1348 OFFCURVE",
"212 1363 OFFCURVE",
"212 1382 CURVE SMOOTH",
"212 1403 OFFCURVE",
"227 1414 OFFCURVE",
"246 1414 CURVE SMOOTH",
"267 1414 OFFCURVE",
"278 1403 OFFCURVE",
"278 1382 CURVE SMOOTH"
);
}
);
width = 362;
},
{
layerId = "0D2E68F6-AD65-4FDC-99B3-7B414CE95F5B";
paths = (
{
closed = 1;
nodes = (
"422 -231 OFFCURVE",
"385 -301 OFFCURVE",
"326 -354 CURVE SMOOTH",
"270 -405 OFFCURVE",
"177 -430 OFFCURVE",
"118 -430 CURVE",
"58 -250 LINE",
"103 -239 OFFCURVE",
"133 -231 OFFCURVE",
"160 -204 CURVE SMOOTH",
"184 -183 OFFCURVE",
"202 -148 OFFCURVE",
"202 -100 CURVE SMOOTH",
"202 800 LINE",
"56 820 LINE",
"56 998 LINE",
"422 998 LINE",
"422 -122 LINE SMOOTH"
);
},
{
closed = 1;
nodes = (
"434 1234 OFFCURVE",
"381 1180 OFFCURVE",
"314 1180 CURVE SMOOTH",
"247 1180 OFFCURVE",
"194 1234 OFFCURVE",
"194 1298 CURVE SMOOTH",
"194 1365 OFFCURVE",
"247 1416 OFFCURVE",
"314 1416 CURVE SMOOTH",
"381 1416 OFFCURVE",
"434 1365 OFFCURVE",
"434 1298 CURVE SMOOTH"
);
}
);
width = 516;
},
{
layerId = "BAA7A442-529C-4232-9150-0627B90683AA";
paths = (
{
closed = 1;
nodes = (
"252 -217 OFFCURVE",
"220 -281 OFFCURVE",
"163 -332 CURVE SMOOTH",
"121 -369 OFFCURVE",
"68 -397 OFFCURVE",
"-3 -418 CURVE",
"-17 -332 LINE",
"29 -316 OFFCURVE",
"65 -291 OFFCURVE",
"92 -262 CURVE SMOOTH",
"127 -225 OFFCURVE",
"148 -180 OFFCURVE",
"160 -124 CURVE SMOOTH",
"376 894 LINE",
"248 894 LINE",
"270 998 LINE",
"510 998 LINE",
"271 -126 LINE SMOOTH"
);
},
{
closed = 1;
nodes = (
"593 1313 OFFCURVE",
"556 1282 OFFCURVE",
"518 1282 CURVE SMOOTH",
"481 1282 OFFCURVE",
"457 1313 OFFCURVE",
"465 1348 CURVE SMOOTH",
"472 1385 OFFCURVE",
"509 1414 OFFCURVE",
"547 1414 CURVE SMOOTH",
"584 1414 OFFCURVE",
"608 1385 OFFCURVE",
"601 1348 CURVE SMOOTH"
);
}
);
width = 398;
},
{
layerId = "EC4DDAD4-4840-4BAF-BE24-E50FF90D752F";
paths = (
{
closed = 1;
nodes = (
"373 -231 OFFCURVE",
"321 -301 OFFCURVE",
"251 -354 CURVE SMOOTH",
"184 -405 OFFCURVE",
"85 -430 OFFCURVE",
"27 -430 CURVE",
"5 -250 LINE",
"52 -239 OFFCURVE",
"84 -231 OFFCURVE",
"117 -204 CURVE SMOOTH",
"145 -183 OFFCURVE",
"171 -148 OFFCURVE",
"181 -100 CURVE SMOOTH",
"372 800 LINE",
"230 820 LINE",
"268 998 LINE",
"634 998 LINE",
"396 -122 LINE SMOOTH"
);
},
{
closed = 1;
nodes = (
"696 1234 OFFCURVE",
"631 1180 OFFCURVE",
"565 1180 CURVE SMOOTH",
"498 1180 OFFCURVE",
"456 1234 OFFCURVE",
"470 1298 CURVE SMOOTH",
"484 1365 OFFCURVE",
"548 1416 OFFCURVE",
"615 1416 CURVE SMOOTH",
"682 1416 OFFCURVE",
"724 1365 OFFCURVE",
"710 1298 CURVE SMOOTH"
);
}
);
width = 516;
},
{
layerId = "350CE105-9128-4F96-9C2D-77D2DB4D6663";
paths = (
{
closed = 1;
nodes = (
"213 -232 OFFCURVE",
"176 -299 OFFCURVE",
"118 -350 CURVE",
"76 -382 OFFCURVE",
"25 -407 OFFCURVE",
"-41 -426 CURVE",
"-45 -392 LINE",
"21 -368 OFFCURVE",
"43 -357 OFFCURVE",
"96 -322 CURVE",
"146 -285 OFFCURVE",
"180 -225 OFFCURVE",
"200 -134 CURVE SMOOTH",
"432 962 LINE",
"262 962 LINE",
"270 998 LINE",
"474 998 LINE",
"233 -136 LINE SMOOTH"
);
},
{
closed = 1;
nodes = (
"568 1363 OFFCURVE",
"554 1348 OFFCURVE",
"533 1348 CURVE SMOOTH",
"514 1348 OFFCURVE",
"502 1363 OFFCURVE",
"506 1382 CURVE SMOOTH",
"510 1403 OFFCURVE",
"528 1414 OFFCURVE",
"547 1414 CURVE SMOOTH",
"568 1414 OFFCURVE",
"576 1403 OFFCURVE",
"572 1382 CURVE SMOOTH"
);
}
);
width = 362;
}
);
leftKerningGroup = j;
rightKerningGroup = j;
unicode = 006A;
},
{
glyphname = dotlessj;
layers = (
{
layerId = master01;
paths = (
{
closed = 1;
nodes = (
"294 -288 OFFCURVE",
"236 -370 OFFCURVE",
"84 -418 CURVE",
"52 -332 LINE",
"144 -296 OFFCURVE",
"182 -220 OFFCURVE",
"182 -124 CURVE SMOOTH",
"182 894 LINE",
"56 894 LINE",
"56 998 LINE",
"294 998 LINE",
"294 -126 LINE SMOOTH"
);
}
);
width = 374;
},
{
layerId = "9D15C82E-7F80-48F0-B3D1-43822CDE4CEB";
paths = (
{
closed = 1;
nodes = (
"260 -298 OFFCURVE",
"200 -380 OFFCURVE",
"48 -426 CURVE",
"36 -392 LINE",
"170 -340 OFFCURVE",
"226 -288 OFFCURVE",
"226 -134 CURVE SMOOTH",
"226 962 LINE",
"56 962 LINE",
"56 998 LINE",
"260 998 LINE",
"260 -136 LINE SMOOTH"
);
}
);
width = 338;
},
{
layerId = "0D2E68F6-AD65-4FDC-99B3-7B414CE95F5B";
paths = (
{
closed = 1;
nodes = (
"418 -300 OFFCURVE",
"300 -430 OFFCURVE",
"118 -430 CURVE",
"58 -250 LINE",
"144 -230 OFFCURVE",
"198 -198 OFFCURVE",
"198 -100 CURVE SMOOTH",
"198 800 LINE",
"56 820 LINE",
"56 998 LINE",
"418 998 LINE",
"418 -122 LINE SMOOTH"
);
}
);
width = 500;
},
{
layerId = "BAA7A442-529C-4232-9150-0627B90683AA";
paths = (
{
closed = 1;
nodes = (
"233 -288 OFFCURVE",
"157 -370 OFFCURVE",
"-5 -418 CURVE",
"-19 -332 LINE",
"81 -296 OFFCURVE",
"135 -220 OFFCURVE",
"156 -124 CURVE SMOOTH",
"372 894 LINE",
"246 894 LINE",
"268 998 LINE",
"506 998 LINE",
"267 -126 LINE SMOOTH"
);
}
);
width = 374;
},
{
layerId = "EC4DDAD4-4840-4BAF-BE24-E50FF90D752F";
paths = (
{
closed = 1;
nodes = (
"354 -300 OFFCURVE",
"209 -430 OFFCURVE",
"27 -430 CURVE",
"5 -250 LINE",
"95 -230 OFFCURVE",
"156 -198 OFFCURVE",
"177 -100 CURVE SMOOTH",
"368 800 LINE",
"230 820 LINE",
"268 998 LINE",
"630 998 LINE",
"392 -122 LINE SMOOTH"
);
}
);
width = 500;
},
{
layerId = "350CE105-9128-4F96-9C2D-77D2DB4D6663";
paths = (
{
closed = 1;
nodes = (
"197 -298 OFFCURVE",
"119 -380 OFFCURVE",
"-43 -426 CURVE",
"-47 -392 LINE",
"98 -340 OFFCURVE",
"165 -288 OFFCURVE",
"198 -134 CURVE SMOOTH",
"430 962 LINE",
"260 962 LINE",
"268 998 LINE",
"472 998 LINE",
"231 -136 LINE SMOOTH"
);
}
);
width = 338;
}
);
leftKerningGroup = j;
rightKerningGroup = j;
unicode = 0237;
},
{
glyphname = k;
layers = (
{
layerId = master01;
paths = (
{
closed = 1;
nodes = (
"814 0 LINE",
"680 0 LINE",
"298 632 LINE",
"194 544 LINE",
"194 0 LINE",
"82 0 LINE",
"82 1396 LINE",
"194 1396 LINE",
"194 668 LINE",
"594 1036 LINE",
"674 960 LINE",
"378 702 LINE"
);
}
);
width = 852;
},
{
layerId = "9D15C82E-7F80-48F0-B3D1-43822CDE4CEB";
paths = (
{
closed = 1;
nodes = (
"814 0 LINE",
"768 0 LINE",
"318 730 LINE",
"122 552 LINE",
"122 0 LINE",
"82 0 LINE",
"82 1396 LINE",
"122 1396 LINE",
"122 600 LINE",
"594 1036 LINE",
"620 1012 LINE",
"346 756 LINE"
);
}
);
width = 848;
},
{
layerId = "0D2E68F6-AD65-4FDC-99B3-7B414CE95F5B";
paths = (
{
closed = 1;
nodes = (
"908 0 LINE",
"630 0 LINE",
"330 508 LINE",
"302 480 LINE",
"302 0 LINE",
"82 0 LINE",
"82 1396 LINE",
"302 1396 LINE",
"302 764 LINE",
"602 1038 LINE",
"762 886 LINE",
"500 664 LINE"
);
}
);
width = 946;
},
{
layerId = "BAA7A442-529C-4232-9150-0627B90683AA";
paths = (
{
closed = 1;
nodes = (
"814 0 LINE",
"680 0 LINE",
"432 632 LINE",
"310 544 LINE",
"194 0 LINE",
"82 0 LINE",
"379 1396 LINE",
"491 1396 LINE",
"336 668 LINE",
"814 1036 LINE",
"878 960 LINE",
"527 702 LINE"
);
}
);
width = 852;
},
{
layerId = "EC4DDAD4-4840-4BAF-BE24-E50FF90D752F";
paths = (
{
closed = 1;
nodes = (
"908 0 LINE",
"640 0 LINE",
"438 508 LINE",
"404 480 LINE",
"302 0 LINE",
"82 0 LINE",
"379 1396 LINE",
"599 1396 LINE",
"464 764 LINE",
"823 1038 LINE",
"950 886 LINE",
"632 654 LINE"
);
}
);
width = 946;
},
{
layerId = "350CE105-9128-4F96-9C2D-77D2DB4D6663";
paths = (
{
closed = 1;
nodes = (
"814 0 LINE",
"768 0 LINE",
"473 730 LINE",
"239 552 LINE",
"122 0 LINE",
"82 0 LINE",
"379 1396 LINE",
"419 1396 LINE",
"250 600 LINE",
"814 1036 LINE",
"835 1012 LINE",
"507 756 LINE"
);
}
);
width = 848;
}
);
leftKerningGroup = l;
rightKerningGroup = k;
unicode = 006B;
},
{
glyphname = l;
layers = (
{
layerId = master01;
paths = (
{
closed = 1;
nodes = (
"82 1396 LINE",
"192 1396 LINE",
"192 0 LINE",
"82 0 LINE"
);
}
);
width = 278;
},
{
layerId = "9D15C82E-7F80-48F0-B3D1-43822CDE4CEB";
paths = (
{
closed = 1;
nodes = (
"82 1396 LINE",
"122 1396 LINE",
"122 0 LINE",
"82 0 LINE"
);
}
);
width = 208;
},
{
layerId = "0D2E68F6-AD65-4FDC-99B3-7B414CE95F5B";
paths = (
{
closed = 1;
nodes = (
"82 1396 LINE",
"302 1396 LINE",
"302 0 LINE",
"82 0 LINE"
);
}
);
width = 388;
},
{
layerId = "BAA7A442-529C-4232-9150-0627B90683AA";
paths = (
{
closed = 1;
nodes = (
"379 1396 LINE",
"489 1396 LINE",
"192 0 LINE",
"82 0 LINE"
);
}
);
width = 278;
},
{
layerId = "EC4DDAD4-4840-4BAF-BE24-E50FF90D752F";
paths = (
{
closed = 1;
nodes = (
"379 1396 LINE",
"599 1396 LINE",
"302 0 LINE",
"82 0 LINE"
);
}
);
width = 388;
},
{
layerId = "350CE105-9128-4F96-9C2D-77D2DB4D6663";
paths = (
{
closed = 1;
nodes = (
"379 1396 LINE",
"419 1396 LINE",
"122 0 LINE",
"82 0 LINE"
);
}
);
width = 208;
}
);
leftKerningGroup = l;
rightKerningGroup = l;
unicode = 006C;
},
{
glyphname = lslash;
layers = (
{
layerId = master01;
paths = (
{
closed = 1;
nodes = (
"290 1396 LINE",
"402 1396 LINE",
"402 878 LINE",
"614 974 LINE",
"660 876 LINE",
"402 760 LINE",
"402 0 LINE",
"290 0 LINE",
"290 708 LINE",
"78 614 LINE",
"34 712 LINE",
"290 828 LINE"
);
}
);
width = 706;
},
{
layerId = "9D15C82E-7F80-48F0-B3D1-43822CDE4CEB";
paths = (
{
closed = 1;
nodes = (
"320 1396 LINE",
"358 1396 LINE",
"358 860 LINE",
"608 974 LINE",
"624 942 LINE",
"358 820 LINE",
"358 0 LINE",
"320 0 LINE",
"320 806 LINE",
"42 680 LINE",
"28 712 LINE",
"320 844 LINE"
);
}
);
width = 666;
},
{
layerId = "0D2E68F6-AD65-4FDC-99B3-7B414CE95F5B";
paths = (
{
closed = 1;
nodes = (
"248 1396 LINE",
"468 1396 LINE",
"468 906 LINE",
"628 976 LINE",
"700 818 LINE",
"468 712 LINE",
"468 0 LINE",
"248 0 LINE",
"248 612 LINE",
"118 554 LINE",
"44 716 LINE",
"248 806 LINE"
);
}
);
width = 752;
},
{
layerId = "BAA7A442-529C-4232-9150-0627B90683AA";
paths = (
{
closed = 1;
nodes = (
"587 1396 LINE",
"699 1396 LINE",
"589 878 LINE",
"821 974 LINE",
"846 876 LINE",
"564 760 LINE",
"402 0 LINE",
"290 0 LINE",
"440 708 LINE",
"209 614 LINE",
"185 712 LINE",
"466 828 LINE"
);
}
);
width = 706;
},
{
layerId = "EC4DDAD4-4840-4BAF-BE24-E50FF90D752F";
paths = (
{
closed = 1;
nodes = (
"545 1396 LINE",
"765 1396 LINE",
"661 906 LINE",
"835 976 LINE",
"874 818 LINE",
"619 712 LINE",
"468 0 LINE",
"248 0 LINE",
"378 612 LINE",
"236 554 LINE",
"196 716 LINE",
"419 806 LINE"
);
}
);
width = 752;
},
{
layerId = "350CE105-9128-4F96-9C2D-77D2DB4D6663";
paths = (
{
closed = 1;
nodes = (
"617 1396 LINE",
"655 1396 LINE",
"541 860 LINE",
"815 974 LINE",
"824 942 LINE",
"532 820 LINE",
"358 0 LINE",
"320 0 LINE",
"491 806 LINE",
"187 680 LINE",
"179 712 LINE",
"499 844 LINE"
);
}
);
width = 666;
}
);
leftKerningGroup = l;
rightKerningGroup = l;
unicode = 0142;
},
{
glyphname = m;
layers = (
{
layerId = master01;
paths = (
{
closed = 1;
nodes = (
"1252 864 OFFCURVE",
"1137 914 OFFCURVE",
"1010 914 CURVE SMOOTH",
"933 914 OFFCURVE",
"846 893 OFFCURVE",
"750 834 CURVE",
"766 791 OFFCURVE",
"772 742 OFFCURVE",
"772 686 CURVE SMOOTH",
"772 0 LINE",
"668 0 LINE",
"668 682 LINE SMOOTH",
"668 864 OFFCURVE",
"553 914 OFFCURVE",
"426 914 CURVE SMOOTH",
"335 914 OFFCURVE",
"271 892 OFFCURVE",
"188 844 CURVE",
"188 0 LINE",
"76 0 LINE",
"76 996 LINE",
"188 996 LINE",
"188 928 LINE",
"269 980 OFFCURVE",
"347 1014 OFFCURVE",
"446 1014 CURVE SMOOTH",
"571 1014 OFFCURVE",
"663 974 OFFCURVE",
"716 902 CURVE",
"804 969 OFFCURVE",
"919 1014 OFFCURVE",
"1030 1014 CURVE SMOOTH",
"1252 1014 OFFCURVE",
"1358 899 OFFCURVE",
"1358 686 CURVE SMOOTH",
"1358 0 LINE",
"1252 0 LINE",
"1252 682 LINE SMOOTH"
);
}
);
width = 1430;
},
{
layerId = "9D15C82E-7F80-48F0-B3D1-43822CDE4CEB";
paths = (
{
closed = 1;
nodes = (
"1324 914 OFFCURVE",
"1220 1000 OFFCURVE",
"1004 984 CURVE",
"892 973 OFFCURVE",
"782 927 OFFCURVE",
"702 882 CURVE",
"723 834 OFFCURVE",
"740 771 OFFCURVE",
"740 686 CURVE SMOOTH",
"740 0 LINE",
"700 0 LINE",
"700 688 LINE SMOOTH",
"700 914 OFFCURVE",
"595 1000 OFFCURVE",
"382 984 CURVE SMOOTH",
"262 973 OFFCURVE",
"189 939 OFFCURVE",
"114 902 CURVE",
"114 0 LINE",
"76 0 LINE",
"76 996 LINE",
"114 996 LINE",
"114 940 LINE",
"175 972 OFFCURVE",
"271 1006 OFFCURVE",
"372 1014 CURVE SMOOTH",
"487 1024 OFFCURVE",
"616 1015 OFFCURVE",
"684 908 CURVE",
"764 963 OFFCURVE",
"899 1009 OFFCURVE",
"996 1014 CURVE",
"1166 1030 OFFCURVE",
"1358 997 OFFCURVE",
"1358 686 CURVE SMOOTH",
"1358 0 LINE",
"1324 0 LINE",
"1324 688 LINE SMOOTH"
);
}
);
width = 1430;
},
{
layerId = "0D2E68F6-AD65-4FDC-99B3-7B414CE95F5B";
paths = (
{
closed = 1;
nodes = (
"1144 761 OFFCURVE",
"1073 816 OFFCURVE",
"988 816 CURVE SMOOTH",
"953 816 OFFCURVE",
"885 800 OFFCURVE",
"824 768 CURVE",
"829 744 OFFCURVE",
"830 717 OFFCURVE",
"830 688 CURVE SMOOTH",
"830 0 LINE",
"610 0 LINE",
"610 682 LINE SMOOTH",
"610 761 OFFCURVE",
"543 816 OFFCURVE",
"458 816 CURVE SMOOTH",
"413 816 OFFCURVE",
"359 800 OFFCURVE",
"298 768 CURVE",
"298 0 LINE",
"78 0 LINE",
"78 998 LINE",
"298 998 LINE",
"298 950 LINE",
"330 971 OFFCURVE",
"413 1014 OFFCURVE",
"496 1014 CURVE SMOOTH",
"589 1014 OFFCURVE",
"687 990 OFFCURVE",
"754 918 CURVE",
"823 965 OFFCURVE",
"943 1014 OFFCURVE",
"1028 1014 CURVE SMOOTH",
"1186 1014 OFFCURVE",
"1364 944 OFFCURVE",
"1364 688 CURVE SMOOTH",
"1364 0 LINE",
"1144 0 LINE",
"1144 682 LINE SMOOTH"
);
}
);
width = 1438;
},
{
layerId = "BAA7A442-529C-4232-9150-0627B90683AA";
paths = (
{
closed = 1;
nodes = (
"1436 864 OFFCURVE",
"1331 914 OFFCURVE",
"1204 914 CURVE SMOOTH",
"1127 914 OFFCURVE",
"1036 893 OFFCURVE",
"927 834 CURVE",
"934 791 OFFCURVE",
"930 742 OFFCURVE",
"918 686 CURVE SMOOTH",
"772 0 LINE",
"668 0 LINE",
"813 682 LINE SMOOTH",
"852 864 OFFCURVE",
"747 914 OFFCURVE",
"620 914 CURVE SMOOTH",
"530 914 OFFCURVE",
"460 892 OFFCURVE",
"367 844 CURVE",
"188 0 LINE",
"76 0 LINE",
"288 996 LINE",
"400 996 LINE",
"385 928 LINE",
"479 981 OFFCURVE",
"563 1014 OFFCURVE",
"662 1014 CURVE SMOOTH",
"787 1014 OFFCURVE",
"870 974 OFFCURVE",
"908 902 CURVE",
"1035 985 OFFCURVE",
"1160 1014 OFFCURVE",
"1246 1014 CURVE SMOOTH",
"1467 1014 OFFCURVE",
"1549 899 OFFCURVE",
"1504 686 CURVE SMOOTH",
"1358 0 LINE",
"1252 0 LINE",
"1397 682 LINE SMOOTH"
);
}
);
width = 1430;
},
{
layerId = "EC4DDAD4-4840-4BAF-BE24-E50FF90D752F";
paths = (
{
closed = 1;
nodes = (
"1306 762 OFFCURVE",
"1247 816 OFFCURVE",
"1161 816 CURVE SMOOTH",
"1127 816 OFFCURVE",
"1055 800 OFFCURVE",
"987 768 CURVE",
"987 744 OFFCURVE",
"982 717 OFFCURVE",
"976 688 CURVE SMOOTH",
"830 0 LINE",
"610 0 LINE",
"755 682 LINE SMOOTH",
"772 762 OFFCURVE",
"717 816 OFFCURVE",
"631 816 CURVE SMOOTH",
"586 816 OFFCURVE",
"529 800 OFFCURVE",
"461 768 CURVE",
"298 0 LINE",
"78 0 LINE",
"290 998 LINE",
"510 998 LINE",
"500 950 LINE",
"561 986 OFFCURVE",
"641 1014 OFFCURVE",
"712 1014 CURVE SMOOTH",
"805 1014 OFFCURVE",
"898 990 OFFCURVE",
"949 918 CURVE",
"1024 963 OFFCURVE",
"1155 1014 OFFCURVE",
"1244 1014 CURVE SMOOTH",
"1401 1014 OFFCURVE",
"1565 944 OFFCURVE",
"1510 688 CURVE SMOOTH",
"1364 0 LINE",
"1144 0 LINE",
"1289 682 LINE SMOOTH"
);
}
);
width = 1438;
},
{
layerId = "350CE105-9128-4F96-9C2D-77D2DB4D6663";
paths = (
{
closed = 1;
nodes = (
"1518 914 OFFCURVE",
"1432 1000 OFFCURVE",
"1213 984 CURVE",
"1099 973 OFFCURVE",
"979 927 OFFCURVE",
"889 882 CURVE",
"901 834 OFFCURVE",
"904 771 OFFCURVE",
"886 686 CURVE SMOOTH",
"740 0 LINE",
"700 0 LINE",
"846 688 LINE SMOOTH",
"894 914 OFFCURVE",
"807 1000 OFFCURVE",
"591 984 CURVE SMOOTH",
"469 973 OFFCURVE",
"388 939 OFFCURVE",
"306 902 CURVE",
"114 0 LINE",
"76 0 LINE",
"288 996 LINE",
"326 996 LINE",
"314 940 LINE",
"382 972 OFFCURVE",
"484 1006 OFFCURVE",
"588 1014 CURVE SMOOTH",
"692 1023 OFFCURVE",
"829 1020 OFFCURVE",
"877 908 CURVE",
"965 961 OFFCURVE",
"1109 1009 OFFCURVE",
"1212 1014 CURVE",
"1384 1030 OFFCURVE",
"1570 998 OFFCURVE",
"1504 686 CURVE SMOOTH",
"1358 0 LINE",
"1324 0 LINE",
"1470 688 LINE SMOOTH"
);
}
);
width = 1430;
}
);
leftKerningGroup = m;
rightKerningGroup = m;
unicode = 006D;
},
{
glyphname = n;
layers = (
{
layerId = master01;
paths = (
{
closed = 1;
nodes = (
"702 862 OFFCURVE",
"570 916 OFFCURVE",
"442 916 CURVE SMOOTH",
"351 916 OFFCURVE",
"271 893 OFFCURVE",
"188 848 CURVE",
"188 0 LINE",
"76 0 LINE",
"76 998 LINE",
"188 998 LINE",
"188 930 LINE",
"265 983 OFFCURVE",
"365 1016 OFFCURVE",
"464 1016 CURVE SMOOTH",
"685 1016 OFFCURVE",
"812 896 OFFCURVE",
"812 688 CURVE SMOOTH",
"812 0 LINE",
"702 0 LINE",
"702 682 LINE SMOOTH"
);
}
);
width = 884;
},
{
layerId = "9D15C82E-7F80-48F0-B3D1-43822CDE4CEB";
paths = (
{
closed = 1;
nodes = (
"776 918 OFFCURVE",
"648 998 OFFCURVE",
"432 986 CURVE SMOOTH",
"317 981 OFFCURVE",
"189 941 OFFCURVE",
"114 904 CURVE",
"114 0 LINE",
"76 0 LINE",
"76 998 LINE",
"114 998 LINE",
"114 942 LINE",
"200 982 OFFCURVE",
"312 1011 OFFCURVE",
"406 1016 CURVE SMOOTH",
"579 1026 OFFCURVE",
"812 1003 OFFCURVE",
"812 688 CURVE SMOOTH",
"812 0 LINE",
"776 0 LINE",
"776 690 LINE SMOOTH"
);
}
);
width = 884;
},
{
layerId = "0D2E68F6-AD65-4FDC-99B3-7B414CE95F5B";
paths = (
{
closed = 1;
nodes = (
"598 759 OFFCURVE",
"540 818 OFFCURVE",
"456 818 CURVE SMOOTH",
"411 818 OFFCURVE",
"360 805 OFFCURVE",
"296 770 CURVE",
"296 -2 LINE",
"78 -2 LINE",
"78 998 LINE",
"296 998 LINE",
"296 952 LINE",
"331 973 OFFCURVE",
"413 1016 OFFCURVE",
"496 1016 CURVE SMOOTH",
"656 1016 OFFCURVE",
"816 946 OFFCURVE",
"816 690 CURVE SMOOTH",
"816 -2 LINE",
"598 -2 LINE",
"598 684 LINE SMOOTH"
);
}
);
width = 890;
},
{
layerId = "BAA7A442-529C-4232-9150-0627B90683AA";
paths = (
{
closed = 1;
nodes = (
"885 862 OFFCURVE",
"765 916 OFFCURVE",
"637 916 CURVE SMOOTH",
"546 916 OFFCURVE",
"461 893 OFFCURVE",
"368 848 CURVE",
"188 0 LINE",
"76 0 LINE",
"288 998 LINE",
"400 998 LINE",
"386 930 LINE",
"474 983 OFFCURVE",
"581 1016 OFFCURVE",
"680 1016 CURVE SMOOTH",
"901 1016 OFFCURVE",
"1002 896 OFFCURVE",
"958 688 CURVE SMOOTH",
"812 0 LINE",
"702 0 LINE",
"847 682 LINE SMOOTH"
);
}
);
width = 884;
},
{
layerId = "EC4DDAD4-4840-4BAF-BE24-E50FF90D752F";
paths = (
{
closed = 1;
nodes = (
"759 759 OFFCURVE",
"714 818 OFFCURVE",
"630 818 CURVE SMOOTH",
"585 818 OFFCURVE",
"531 805 OFFCURVE",
"460 770 CURVE",
"296 -2 LINE",
"78 -2 LINE",
"290 998 LINE",
"508 998 LINE",
"498 952 LINE",
"538 973 OFFCURVE",
"629 1016 OFFCURVE",
"712 1016 CURVE SMOOTH",
"872 1016 OFFCURVE",
"1017 946 OFFCURVE",
"963 690 CURVE SMOOTH",
"816 -2 LINE",
"598 -2 LINE",
"743 684 LINE SMOOTH"
);
}
);
width = 890;
},
{
layerId = "350CE105-9128-4F96-9C2D-77D2DB4D6663";
paths = (
{
closed = 1;
nodes = (
"971 918 OFFCURVE",
"860 998 OFFCURVE",
"642 986 CURVE SMOOTH",
"526 981 OFFCURVE",
"389 941 OFFCURVE",
"306 904 CURVE",
"114 0 LINE",
"76 0 LINE",
"288 998 LINE",
"326 998 LINE",
"314 942 LINE",
"409 982 OFFCURVE",
"526 1011 OFFCURVE",
"622 1016 CURVE SMOOTH",
"797 1026 OFFCURVE",
"1025 1003 OFFCURVE",
"958 688 CURVE SMOOTH",
"812 0 LINE",
"776 0 LINE",
"923 690 LINE SMOOTH"
);
}
);
width = 884;
}
);
leftKerningGroup = m;
rightKerningGroup = m;
unicode = 006E;
},
{
glyphname = eng;
layers = (
{
layerId = master01;
paths = (
{
closed = 1;
nodes = (
"812 -181 OFFCURVE",
"793 -246 OFFCURVE",
"748 -294 CURVE SMOOTH",
"713 -331 OFFCURVE",
"669 -359 OFFCURVE",
"602 -380 CURVE",
"568 -294 LINE",
"608 -281 OFFCURVE",
"639 -258 OFFCURVE",
"660 -226 CURVE SMOOTH",
"687 -191 OFFCURVE",
"700 -147 OFFCURVE",
"700 -88 CURVE SMOOTH",
"700 684 LINE SMOOTH",
"700 866 OFFCURVE",
"569 916 OFFCURVE",
"442 916 CURVE SMOOTH",
"351 916 OFFCURVE",
"265 893 OFFCURVE",
"188 848 CURVE",
"188 0 LINE",
"76 0 LINE",
"76 996 LINE",
"188 996 LINE",
"188 930 LINE",
"265 983 OFFCURVE",
"365 1016 OFFCURVE",
"464 1016 CURVE SMOOTH",
"685 1016 OFFCURVE",
"812 900 OFFCURVE",
"812 690 CURVE SMOOTH",
"812 -90 LINE SMOOTH"
);
}
);
width = 884;
},
{
layerId = "9D15C82E-7F80-48F0-B3D1-43822CDE4CEB";
paths = (
{
closed = 1;
nodes = (
"812 -195 OFFCURVE",
"791 -262 OFFCURVE",
"740 -310 CURVE SMOOTH",
"705 -345 OFFCURVE",
"659 -369 OFFCURVE",
"598 -390 CURVE",
"586 -354 LINE",
"647 -330 OFFCURVE",
"664 -321 OFFCURVE",
"712 -284 CURVE",
"755 -247 OFFCURVE",
"772 -184 OFFCURVE",
"772 -96 CURVE SMOOTH",
"772 692 LINE SMOOTH",
"772 919 OFFCURVE",
"648 998 OFFCURVE",
"432 986 CURVE SMOOTH",
"312 981 OFFCURVE",
"189 943 OFFCURVE",
"114 906 CURVE",
"114 0 LINE",
"76 0 LINE",
"76 996 LINE",
"114 996 LINE",
"114 942 LINE",
"181 971 OFFCURVE",
"302 1011 OFFCURVE",
"406 1016 CURVE SMOOTH",
"579 1026 OFFCURVE",
"812 1003 OFFCURVE",
"812 690 CURVE SMOOTH",
"812 -96 LINE SMOOTH"
);
}
);
width = 884;
},
{
layerId = "0D2E68F6-AD65-4FDC-99B3-7B414CE95F5B";
paths = (
{
closed = 1;
nodes = (
"816 -200 OFFCURVE",
"781 -269 OFFCURVE",
"722 -320 CURVE",
"669 -371 OFFCURVE",
"570 -396 OFFCURVE",
"514 -396 CURVE",
"454 -218 LINE",
"499 -210 OFFCURVE",
"529 -199 OFFCURVE",
"558 -172 CURVE",
"579 -148 OFFCURVE",
"596 -114 OFFCURVE",
"596 -66 CURVE SMOOTH",
"596 686 LINE SMOOTH",
"596 760 OFFCURVE",
"551 818 OFFCURVE",
"464 818 CURVE SMOOTH",
"413 818 OFFCURVE",
"365 801 OFFCURVE",
"296 772 CURVE",
"296 0 LINE",
"78 0 LINE",
"78 998 LINE",
"296 998 LINE",
"296 952 LINE",
"331 976 OFFCURVE",
"413 1018 OFFCURVE",
"496 1018 CURVE SMOOTH",
"656 1018 OFFCURVE",
"816 947 OFFCURVE",
"816 690 CURVE SMOOTH",
"816 -88 LINE SMOOTH"
);
}
);
width = 890;
},
{
layerId = "BAA7A442-529C-4232-9150-0627B90683AA";
paths = (
{
closed = 1;
nodes = (
"774 -181 OFFCURVE",
"741 -246 OFFCURVE",
"686 -294 CURVE SMOOTH",
"643 -331 OFFCURVE",
"592 -359 OFFCURVE",
"521 -380 CURVE",
"506 -294 LINE",
"548 -281 OFFCURVE",
"584 -258 OFFCURVE",
"612 -226 CURVE SMOOTH",
"646 -191 OFFCURVE",
"669 -147 OFFCURVE",
"681 -88 CURVE SMOOTH",
"845 684 LINE SMOOTH",
"884 866 OFFCURVE",
"764 916 OFFCURVE",
"637 916 CURVE SMOOTH",
"546 916 OFFCURVE",
"455 893 OFFCURVE",
"368 848 CURVE",
"188 0 LINE",
"76 0 LINE",
"288 996 LINE",
"400 996 LINE",
"386 930 LINE",
"474 983 OFFCURVE",
"581 1016 OFFCURVE",
"680 1016 CURVE SMOOTH",
"901 1016 OFFCURVE",
"1003 900 OFFCURVE",
"959 690 CURVE SMOOTH",
"793 -90 LINE SMOOTH"
);
}
);
width = 884;
},
{
layerId = "EC4DDAD4-4840-4BAF-BE24-E50FF90D752F";
paths = (
{
closed = 1;
nodes = (
"773 -200 OFFCURVE",
"723 -269 OFFCURVE",
"654 -320 CURVE",
"590 -371 OFFCURVE",
"486 -396 OFFCURVE",
"430 -396 CURVE",
"408 -218 LINE",
"455 -210 OFFCURVE",
"486 -199 OFFCURVE",
"521 -172 CURVE",
"548 -148 OFFCURVE",
"572 -114 OFFCURVE",
"582 -66 CURVE SMOOTH",
"742 686 LINE SMOOTH",
"757 760 OFFCURVE",
"725 818 OFFCURVE",
"638 818 CURVE SMOOTH",
"587 818 OFFCURVE",
"536 801 OFFCURVE",
"460 772 CURVE",
"296 0 LINE",
"78 0 LINE",
"290 998 LINE",
"508 998 LINE",
"498 952 LINE",
"538 976 OFFCURVE",
"630 1018 OFFCURVE",
"712 1018 CURVE SMOOTH",
"872 1018 OFFCURVE",
"1017 947 OFFCURVE",
"963 690 CURVE SMOOTH",
"797 -88 LINE SMOOTH"
);
}
);
width = 890;
},
{
layerId = "350CE105-9128-4F96-9C2D-77D2DB4D6663";
paths = (
{
closed = 1;
nodes = (
"771 -195 OFFCURVE",
"735 -262 OFFCURVE",
"674 -310 CURVE SMOOTH",
"632 -345 OFFCURVE",
"581 -369 OFFCURVE",
"515 -390 CURVE",
"511 -354 LINE",
"582 -328 OFFCURVE",
"591 -324 OFFCURVE",
"652 -284 CURVE",
"702 -247 OFFCURVE",
"733 -184 OFFCURVE",
"752 -96 CURVE SMOOTH",
"919 692 LINE SMOOTH",
"967 919 OFFCURVE",
"860 998 OFFCURVE",
"642 986 CURVE SMOOTH",
"520 981 OFFCURVE",
"389 943 OFFCURVE",
"307 906 CURVE",
"114 0 LINE",
"76 0 LINE",
"288 996 LINE",
"326 996 LINE",
"314 942 LINE",
"409 980 OFFCURVE",
"519 1011 OFFCURVE",
"622 1016 CURVE SMOOTH",
"797 1026 OFFCURVE",
"1025 1003 OFFCURVE",
"959 690 CURVE SMOOTH",
"792 -96 LINE SMOOTH"
);
}
);
width = 884;
}
);
leftKerningGroup = m;
rightKerningGroup = j;
unicode = 014B;
},
{
glyphname = o;
layers = (
{
layerId = master01;
paths = (
{
closed = 1;
nodes = (
"796 136 OFFCURVE",
"675 -20 OFFCURVE",
"434 -20 CURVE SMOOTH",
"185 -20 OFFCURVE",
"58 153 OFFCURVE",
"58 368 CURVE SMOOTH",
"58 630 LINE SMOOTH",
"58 883 OFFCURVE",
"193 1020 OFFCURVE",
"430 1020 CURVE SMOOTH",
"667 1020 OFFCURVE",
"796 873 OFFCURVE",
"796 630 CURVE SMOOTH",
"796 368 LINE SMOOTH"
);
},
{
closed = 1;
nodes = (
"684 822 OFFCURVE",
"607 920 OFFCURVE",
"434 920 CURVE SMOOTH",
"258 920 OFFCURVE",
"170 822 OFFCURVE",
"170 630 CURVE SMOOTH",
"170 348 LINE SMOOTH",
"170 189 OFFCURVE",
"272 80 OFFCURVE",
"434 80 CURVE SMOOTH",
"601 80 OFFCURVE",
"684 185 OFFCURVE",
"684 348 CURVE SMOOTH",
"684 630 LINE SMOOTH"
);
}
);
width = 858;
},
{
layerId = "9D15C82E-7F80-48F0-B3D1-43822CDE4CEB";
paths = (
{
closed = 1;
nodes = (
"792 135 OFFCURVE",
"669 -20 OFFCURVE",
"428 -20 CURVE SMOOTH",
"171 -20 OFFCURVE",
"54 154 OFFCURVE",
"54 368 CURVE SMOOTH",
"54 630 LINE SMOOTH",
"54 883 OFFCURVE",
"191 1020 OFFCURVE",
"428 1020 CURVE SMOOTH",
"665 1020 OFFCURVE",
"792 873 OFFCURVE",
"792 630 CURVE SMOOTH",
"792 368 LINE SMOOTH"
);
},
{
closed = 1;
nodes = (
"754 867 OFFCURVE",
"617 984 OFFCURVE",
"428 984 CURVE SMOOTH",
"207 984 OFFCURVE",
"94 855 OFFCURVE",
"94 638 CURVE SMOOTH",
"94 368 LINE SMOOTH",
"94 172 OFFCURVE",
"206 16 OFFCURVE",
"428 16 CURVE SMOOTH",
"656 16 OFFCURVE",
"754 168 OFFCURVE",
"754 368 CURVE SMOOTH",
"754 638 LINE SMOOTH"
);
}
);
width = 852;
},
{
layerId = "0D2E68F6-AD65-4FDC-99B3-7B414CE95F5B";
paths = (
{
closed = 1;
nodes = (
"800 134 OFFCURVE",
"679 -20 OFFCURVE",
"436 -20 CURVE SMOOTH",
"173 -20 OFFCURVE",
"62 166 OFFCURVE",
"62 368 CURVE SMOOTH",
"62 632 LINE SMOOTH",
"62 885 OFFCURVE",
"193 1020 OFFCURVE",
"436 1020 CURVE SMOOTH",
"668 1020 OFFCURVE",
"800 875 OFFCURVE",
"800 632 CURVE SMOOTH",
"800 368 LINE SMOOTH"
);
},
{
closed = 1;
nodes = (
"574 740 OFFCURVE",
"527 800 OFFCURVE",
"434 800 CURVE SMOOTH",
"338 800 OFFCURVE",
"284 745 OFFCURVE",
"284 644 CURVE SMOOTH",
"284 352 LINE SMOOTH",
"284 271 OFFCURVE",
"328 196 OFFCURVE",
"434 196 CURVE SMOOTH",
"535 196 OFFCURVE",
"574 262 OFFCURVE",
"574 352 CURVE SMOOTH",
"574 644 LINE SMOOTH"
);
}
);
width = 864;
},
{
layerId = "BAA7A442-529C-4232-9150-0627B90683AA";
paths = (
{
closed = 1;
nodes = (
"825 138 OFFCURVE",
"673 -20 OFFCURVE",
"430 -20 CURVE SMOOTH",
"181 -20 OFFCURVE",
"90 153 OFFCURVE",
"136 368 CURVE SMOOTH",
"192 630 LINE SMOOTH",
"246 883 OFFCURVE",
"409 1020 OFFCURVE",
"647 1020 CURVE SMOOTH",
"884 1020 OFFCURVE",
"981 873 OFFCURVE",
"930 630 CURVE SMOOTH",
"874 368 LINE SMOOTH"
);
},
{
closed = 1;
nodes = (
"859 822 OFFCURVE",
"803 920 OFFCURVE",
"630 920 CURVE SMOOTH",
"454 920 OFFCURVE",
"345 822 OFFCURVE",
"304 630 CURVE SMOOTH",
"244 348 LINE SMOOTH",
"210 189 OFFCURVE",
"289 80 OFFCURVE",
"451 80 CURVE SMOOTH",
"618 80 OFFCURVE",
"723 185 OFFCURVE",
"758 348 CURVE SMOOTH",
"818 630 LINE SMOOTH"
);
}
);
width = 858;
},
{
layerId = "EC4DDAD4-4840-4BAF-BE24-E50FF90D752F";
paths = (
{
closed = 1;
nodes = (
"829 136 OFFCURVE",
"676 -20 OFFCURVE",
"432 -20 CURVE SMOOTH",
"169 -20 OFFCURVE",
"97 166 OFFCURVE",
"140 368 CURVE SMOOTH",
"196 632 LINE SMOOTH",
"250 885 OFFCURVE",
"410 1020 OFFCURVE",
"653 1020 CURVE SMOOTH",
"885 1020 OFFCURVE",
"986 875 OFFCURVE",
"934 632 CURVE SMOOTH",
"878 368 LINE SMOOTH"
);
},
{
closed = 1;
nodes = (
"731 740 OFFCURVE",
"697 800 OFFCURVE",
"604 800 CURVE SMOOTH",
"508 800 OFFCURVE",
"442 745 OFFCURVE",
"421 644 CURVE SMOOTH",
"359 352 LINE SMOOTH",
"342 271 OFFCURVE",
"369 196 OFFCURVE",
"476 196 CURVE SMOOTH",
"576 196 OFFCURVE",
"630 262 OFFCURVE",
"649 352 CURVE SMOOTH",
"711 644 LINE SMOOTH"
);
}
);
width = 864;
},
{
layerId = "350CE105-9128-4F96-9C2D-77D2DB4D6663";
paths = (
{
closed = 1;
nodes = (
"821 138 OFFCURVE",
"667 -20 OFFCURVE",
"424 -20 CURVE SMOOTH",
"167 -20 OFFCURVE",
"87 154 OFFCURVE",
"132 368 CURVE SMOOTH",
"188 630 LINE SMOOTH",
"242 883 OFFCURVE",
"407 1020 OFFCURVE",
"645 1020 CURVE SMOOTH",
"882 1020 OFFCURVE",
"977 873 OFFCURVE",
"926 630 CURVE SMOOTH",
"870 368 LINE SMOOTH"
);
},
{
closed = 1;
nodes = (
"938 867 OFFCURVE",
"826 984 OFFCURVE",
"637 984 CURVE SMOOTH",
"413 984 OFFCURVE",
"275 852 OFFCURVE",
"230 638 CURVE SMOOTH",
"172 368 LINE SMOOTH",
"131 172 OFFCURVE",
"209 16 OFFCURVE",
"431 16 CURVE SMOOTH",
"659 16 OFFCURVE",
"790 168 OFFCURVE",
"832 368 CURVE SMOOTH",
"890 638 LINE SMOOTH"
);
}
);
width = 852;
}
);
leftKerningGroup = o;
rightKerningGroup = o;
unicode = 006F;
},
{
glyphname = oslash;
layers = (
{
components = (
{
name = o;
}
);
layerId = master01;
paths = (
{
closed = 1;
nodes = (
"258 -40 LINE",
"146 -40 LINE",
"603 1025 LINE",
"719 1025 LINE"
);
}
);
width = 858;
},
{
components = (
{
name = o;
}
);
layerId = "9D15C82E-7F80-48F0-B3D1-43822CDE4CEB";
paths = (
{
closed = 1;
nodes = (
"210 -40 LINE",
"168 -40 LINE",
"646 1025 LINE",
"688 1025 LINE"
);
}
);
width = 852;
},
{
components = (
{
name = o;
}
);
layerId = "0D2E68F6-AD65-4FDC-99B3-7B414CE95F5B";
paths = (
{
closed = 1;
nodes = (
"286 -40 LINE",
"116 -40 LINE",
"580 1024 LINE",
"756 1024 LINE"
);
}
);
width = 864;
},
{
components = (
{
name = o;
}
);
layerId = "BAA7A442-529C-4232-9150-0627B90683AA";
paths = (
{
closed = 1;
nodes = (
"248 -40 LINE",
"136 -40 LINE",
"821 1025 LINE",
"937 1025 LINE"
);
}
);
width = 858;
},
{
components = (
{
name = o;
}
);
layerId = "EC4DDAD4-4840-4BAF-BE24-E50FF90D752F";
paths = (
{
closed = 1;
nodes = (
"277 -40 LINE",
"107 -40 LINE",
"798 1024 LINE",
"974 1024 LINE"
);
}
);
width = 864;
},
{
components = (
{
name = o;
}
);
layerId = "350CE105-9128-4F96-9C2D-77D2DB4D6663";
paths = (
{
closed = 1;
nodes = (
"200 -40 LINE",
"158 -40 LINE",
"862 1025 LINE",
"904 1025 LINE"
);
}
);
width = 852;
}
);
leftKerningGroup = o;
rightKerningGroup = o;
unicode = 00F8;
},
